%TF.GenerationSoftware,KiCad,Pcbnew,8.0.1*%
%TF.CreationDate,2024-03-27T16:27:56-04:00*%
%TF.ProjectId,aditBoard,61646974-426f-4617-9264-2e6b69636164,rev?*%
%TF.SameCoordinates,Original*%
%TF.FileFunction,Copper,L1,Top*%
%TF.FilePolarity,Positive*%
%FSLAX46Y46*%
G04 Gerber Fmt 4.6, Leading zero omitted, Abs format (unit mm)*
G04 Created by KiCad (PCBNEW 8.0.1) date 2024-03-27 16:27:56*
%MOMM*%
%LPD*%
G01*
G04 APERTURE LIST*
G04 Aperture macros list*
%AMRoundRect*
0 Rectangle with rounded corners*
0 $1 Rounding radius*
0 $2 $3 $4 $5 $6 $7 $8 $9 X,Y pos of 4 corners*
0 Add a 4 corners polygon primitive as box body*
4,1,4,$2,$3,$4,$5,$6,$7,$8,$9,$2,$3,0*
0 Add four circle primitives for the rounded corners*
1,1,$1+$1,$2,$3*
1,1,$1+$1,$4,$5*
1,1,$1+$1,$6,$7*
1,1,$1+$1,$8,$9*
0 Add four rect primitives between the rounded corners*
20,1,$1+$1,$2,$3,$4,$5,0*
20,1,$1+$1,$4,$5,$6,$7,0*
20,1,$1+$1,$6,$7,$8,$9,0*
20,1,$1+$1,$8,$9,$2,$3,0*%
G04 Aperture macros list end*
%TA.AperFunction,SMDPad,CuDef*%
%ADD10RoundRect,0.150000X-0.150000X-0.425000X0.150000X-0.425000X0.150000X0.425000X-0.150000X0.425000X0*%
%TD*%
%TA.AperFunction,SMDPad,CuDef*%
%ADD11RoundRect,0.075000X-0.075000X-0.500000X0.075000X-0.500000X0.075000X0.500000X-0.075000X0.500000X0*%
%TD*%
%TA.AperFunction,ComponentPad*%
%ADD12O,1.000000X2.100000*%
%TD*%
%TA.AperFunction,ComponentPad*%
%ADD13O,1.000000X1.800000*%
%TD*%
%TA.AperFunction,SMDPad,CuDef*%
%ADD14R,1.400000X1.200000*%
%TD*%
%TA.AperFunction,SMDPad,CuDef*%
%ADD15R,0.620000X1.100000*%
%TD*%
%TA.AperFunction,SMDPad,CuDef*%
%ADD16RoundRect,0.140000X0.170000X-0.140000X0.170000X0.140000X-0.170000X0.140000X-0.170000X-0.140000X0*%
%TD*%
%TA.AperFunction,SMDPad,CuDef*%
%ADD17RoundRect,0.135000X0.185000X-0.135000X0.185000X0.135000X-0.185000X0.135000X-0.185000X-0.135000X0*%
%TD*%
%TA.AperFunction,SMDPad,CuDef*%
%ADD18RoundRect,0.140000X-0.140000X-0.170000X0.140000X-0.170000X0.140000X0.170000X-0.140000X0.170000X0*%
%TD*%
%TA.AperFunction,SMDPad,CuDef*%
%ADD19R,0.580000X0.280000*%
%TD*%
%TA.AperFunction,SMDPad,CuDef*%
%ADD20R,0.200000X1.600000*%
%TD*%
%TA.AperFunction,ComponentPad*%
%ADD21C,1.350000*%
%TD*%
%TA.AperFunction,ComponentPad*%
%ADD22O,1.350000X1.350000*%
%TD*%
%TA.AperFunction,SMDPad,CuDef*%
%ADD23RoundRect,0.140000X-0.170000X0.140000X-0.170000X-0.140000X0.170000X-0.140000X0.170000X0.140000X0*%
%TD*%
%TA.AperFunction,SMDPad,CuDef*%
%ADD24RoundRect,0.050000X0.387500X0.050000X-0.387500X0.050000X-0.387500X-0.050000X0.387500X-0.050000X0*%
%TD*%
%TA.AperFunction,SMDPad,CuDef*%
%ADD25RoundRect,0.050000X0.050000X0.387500X-0.050000X0.387500X-0.050000X-0.387500X0.050000X-0.387500X0*%
%TD*%
%TA.AperFunction,HeatsinkPad*%
%ADD26R,3.200000X3.200000*%
%TD*%
%TA.AperFunction,SMDPad,CuDef*%
%ADD27RoundRect,0.135000X-0.185000X0.135000X-0.185000X-0.135000X0.185000X-0.135000X0.185000X0.135000X0*%
%TD*%
%TA.AperFunction,SMDPad,CuDef*%
%ADD28RoundRect,0.135000X-0.135000X-0.185000X0.135000X-0.185000X0.135000X0.185000X-0.135000X0.185000X0*%
%TD*%
%TA.AperFunction,SMDPad,CuDef*%
%ADD29RoundRect,0.135000X0.135000X0.185000X-0.135000X0.185000X-0.135000X-0.185000X0.135000X-0.185000X0*%
%TD*%
%TA.AperFunction,ViaPad*%
%ADD30C,0.500000*%
%TD*%
%TA.AperFunction,Conductor*%
%ADD31C,0.200000*%
%TD*%
%TA.AperFunction,Conductor*%
%ADD32C,0.508000*%
%TD*%
G04 APERTURE END LIST*
D10*
%TO.P,J1,A1B12,GND*%
%TO.N,/GND*%
X117840000Y-103425000D03*
%TO.P,J1,A4B9,VBUS*%
%TO.N,/5V*%
X118640000Y-103425000D03*
D11*
%TO.P,J1,A5,CC1*%
%TO.N,Net-(J1-CC1)*%
X119790000Y-103425000D03*
%TO.P,J1,A6,D+*%
%TO.N,/USB_DP*%
X120790000Y-103425000D03*
%TO.P,J1,A7,D-*%
%TO.N,/USB_DN*%
X121290000Y-103425000D03*
%TO.P,J1,A8,SBU1*%
%TO.N,/SWCLK*%
X122290000Y-103425000D03*
D10*
%TO.P,J1,B1A12,GND*%
%TO.N,/GND*%
X124240000Y-103425000D03*
%TO.P,J1,B4A9,VBUS*%
%TO.N,/5V*%
X123440000Y-103425000D03*
D11*
%TO.P,J1,B5,CC2*%
%TO.N,Net-(J1-CC2)*%
X122790000Y-103425000D03*
%TO.P,J1,B6,D+*%
%TO.N,/USB_DP*%
X121790000Y-103425000D03*
%TO.P,J1,B7,D-*%
%TO.N,/USB_DN*%
X120290000Y-103425000D03*
%TO.P,J1,B8,SBU2*%
%TO.N,/SWD*%
X119290000Y-103425000D03*
D12*
%TO.P,J1,S1,SHIELD*%
%TO.N,/GND*%
X116720000Y-104000000D03*
D13*
X116720000Y-108180000D03*
D12*
X125360000Y-104000000D03*
D13*
X125360000Y-108180000D03*
%TD*%
D14*
%TO.P,Y1,1,1*%
%TO.N,/XOUT*%
X118160000Y-83880000D03*
%TO.P,Y1,2,2*%
%TO.N,/GND*%
X120360000Y-83880000D03*
%TO.P,Y1,3,3*%
%TO.N,/XIN*%
X120360000Y-82120000D03*
%TO.P,Y1,4,4*%
%TO.N,/GND*%
X118160000Y-82120000D03*
%TD*%
D15*
%TO.P,U4,1,VIN*%
%TO.N,/5V*%
X116750200Y-101202050D03*
%TO.P,U4,2,GND*%
%TO.N,/GND*%
X117700200Y-101202050D03*
%TO.P,U4,3,EN*%
%TO.N,/5V*%
X118650200Y-101202050D03*
%TO.P,U4,4,NC*%
%TO.N,unconnected-(U4-NC-Pad4)*%
X118650200Y-98602050D03*
%TO.P,U4,5,VOUT*%
%TO.N,/3V3*%
X116750200Y-98602050D03*
%TD*%
D16*
%TO.P,C13,1*%
%TO.N,/GND*%
X116030000Y-94960000D03*
%TO.P,C13,2*%
%TO.N,/3V3*%
X116030000Y-94000000D03*
%TD*%
%TO.P,C11,1*%
%TO.N,/GND*%
X114990000Y-94970000D03*
%TO.P,C11,2*%
%TO.N,/3V3*%
X114990000Y-94010000D03*
%TD*%
D17*
%TO.P,R1,1*%
%TO.N,/3V3*%
X122090000Y-98310000D03*
%TO.P,R1,2*%
%TO.N,/QSPI_SS*%
X122090000Y-97290000D03*
%TD*%
D18*
%TO.P,C2,1*%
%TO.N,/GND*%
X115150000Y-82670000D03*
%TO.P,C2,2*%
%TO.N,/XOUT*%
X116110000Y-82670000D03*
%TD*%
D19*
%TO.P,U2,1,/CS*%
%TO.N,/QSPI_SS*%
X121990000Y-96060000D03*
%TO.P,U2,2,DO(IO1)*%
%TO.N,/QSPI_SD1*%
X121990000Y-95560000D03*
%TO.P,U2,3,/WP*%
%TO.N,/QSPI_SD2*%
X121990000Y-95060000D03*
%TO.P,U2,4,GND*%
%TO.N,/GND*%
X121990000Y-94560000D03*
%TO.P,U2,5,DI(IO0)*%
%TO.N,/QSPI_SD0*%
X119150000Y-94560000D03*
%TO.P,U2,6,CLK*%
%TO.N,/QSPI_SCLK*%
X119150000Y-95060000D03*
%TO.P,U2,7,/HOLD*%
%TO.N,/QSPI_SD3*%
X119150000Y-95560000D03*
%TO.P,U2,8,VCC*%
%TO.N,/3V3*%
X119150000Y-96060000D03*
D20*
%TO.P,U2,9,EP*%
%TO.N,/GND*%
X120570000Y-95310000D03*
%TD*%
D18*
%TO.P,C7,1*%
%TO.N,/GND*%
X115150000Y-81600000D03*
%TO.P,C7,2*%
%TO.N,/1V1*%
X116110000Y-81600000D03*
%TD*%
D21*
%TO.P,J2,1,Pin_1*%
%TO.N,/GND*%
X124635000Y-81725000D03*
D22*
%TO.P,J2,2,Pin_2*%
X126635000Y-81725000D03*
%TO.P,J2,3,Pin_3*%
%TO.N,/SDA*%
X124635000Y-83725000D03*
%TO.P,J2,4,Pin_4*%
%TO.N,/SCL*%
X126635000Y-83725000D03*
%TO.P,J2,5,Pin_5*%
%TO.N,/PLUG*%
X124635000Y-85725000D03*
%TO.P,J2,6,Pin_6*%
%TO.N,/A2*%
X126635000Y-85725000D03*
%TO.P,J2,7,Pin_7*%
%TO.N,/A1*%
X124635000Y-87725000D03*
%TO.P,J2,8,Pin_8*%
%TO.N,/A0*%
X126635000Y-87725000D03*
%TO.P,J2,9,Pin_9*%
%TO.N,/GND*%
X124635000Y-89725000D03*
%TO.P,J2,10,Pin_10*%
X126635000Y-89725000D03*
%TO.P,J2,11,Pin_11*%
%TO.N,/TXD*%
X124635000Y-91725000D03*
%TO.P,J2,12,Pin_12*%
%TO.N,/RXD*%
X126635000Y-91725000D03*
%TO.P,J2,13,Pin_13*%
%TO.N,/GND*%
X124635000Y-93725000D03*
%TO.P,J2,14,Pin_14*%
X126635000Y-93725000D03*
%TO.P,J2,15,Pin_15*%
%TO.N,/RST*%
X124635000Y-95725000D03*
%TO.P,J2,16,Pin_16*%
%TO.N,/3V3*%
X126635000Y-95725000D03*
%TO.P,J2,17,Pin_17*%
%TO.N,unconnected-(J2-Pin_17-Pad17)*%
X124635000Y-97725000D03*
%TO.P,J2,18,Pin_18*%
%TO.N,unconnected-(J2-Pin_18-Pad18)*%
X126635000Y-97725000D03*
%TD*%
D23*
%TO.P,C10,1*%
%TO.N,/GND*%
X116150000Y-83700000D03*
%TO.P,C10,2*%
%TO.N,/3V3*%
X116150000Y-84660000D03*
%TD*%
D18*
%TO.P,C18,1*%
%TO.N,/3V3*%
X116380000Y-97220000D03*
%TO.P,C18,2*%
%TO.N,/GND*%
X117340000Y-97220000D03*
%TD*%
D24*
%TO.P,U3,1,IOVDD*%
%TO.N,/3V3*%
X122107500Y-91917500D03*
%TO.P,U3,2,GPIO0*%
%TO.N,unconnected-(U3-GPIO0-Pad2)*%
X122107500Y-91517500D03*
%TO.P,U3,3,GPIO1*%
%TO.N,unconnected-(U3-GPIO1-Pad3)*%
X122107500Y-91117500D03*
%TO.P,U3,4,GPIO2*%
%TO.N,unconnected-(U3-GPIO2-Pad4)*%
X122107500Y-90717500D03*
%TO.P,U3,5,GPIO3*%
%TO.N,unconnected-(U3-GPIO3-Pad5)*%
X122107500Y-90317500D03*
%TO.P,U3,6,GPIO4*%
%TO.N,unconnected-(U3-GPIO4-Pad6)*%
X122107500Y-89917500D03*
%TO.P,U3,7,GPIO5*%
%TO.N,unconnected-(U3-GPIO5-Pad7)*%
X122107500Y-89517500D03*
%TO.P,U3,8,GPIO6*%
%TO.N,unconnected-(U3-GPIO6-Pad8)*%
X122107500Y-89117500D03*
%TO.P,U3,9,GPIO7*%
%TO.N,unconnected-(U3-GPIO7-Pad9)*%
X122107500Y-88717500D03*
%TO.P,U3,10,IOVDD*%
%TO.N,/3V3*%
X122107500Y-88317500D03*
%TO.P,U3,11,GPIO8*%
%TO.N,/TXD*%
X122107500Y-87917500D03*
%TO.P,U3,12,GPIO9*%
%TO.N,/RXD*%
X122107500Y-87517500D03*
%TO.P,U3,13,GPIO10*%
%TO.N,/PLUG*%
X122107500Y-87117500D03*
%TO.P,U3,14,GPIO11*%
%TO.N,/RST*%
X122107500Y-86717500D03*
D25*
%TO.P,U3,15,GPIO12*%
%TO.N,unconnected-(U3-GPIO12-Pad15)*%
X121270000Y-85880000D03*
%TO.P,U3,16,GPIO13*%
%TO.N,unconnected-(U3-GPIO13-Pad16)*%
X120870000Y-85880000D03*
%TO.P,U3,17,GPIO14*%
%TO.N,/SDA*%
X120470000Y-85880000D03*
%TO.P,U3,18,GPIO15*%
%TO.N,/SCL*%
X120070000Y-85880000D03*
%TO.P,U3,19,TESTEN*%
%TO.N,/GND*%
X119670000Y-85880000D03*
%TO.P,U3,20,XIN*%
%TO.N,/XIN*%
X119270000Y-85880000D03*
%TO.P,U3,21,XOUT*%
%TO.N,/XOUT*%
X118870000Y-85880000D03*
%TO.P,U3,22,IOVDD*%
%TO.N,/3V3*%
X118470000Y-85880000D03*
%TO.P,U3,23,DVDD*%
%TO.N,/1V1*%
X118070000Y-85880000D03*
%TO.P,U3,24,SWCLK*%
%TO.N,/SWCLK*%
X117670000Y-85880000D03*
%TO.P,U3,25,SWD*%
%TO.N,/SWD*%
X117270000Y-85880000D03*
%TO.P,U3,26,RUN*%
%TO.N,/3V3*%
X116870000Y-85880000D03*
%TO.P,U3,27,GPIO16*%
%TO.N,unconnected-(U3-GPIO16-Pad27)*%
X116470000Y-85880000D03*
%TO.P,U3,28,GPIO17*%
%TO.N,unconnected-(U3-GPIO17-Pad28)*%
X116070000Y-85880000D03*
D24*
%TO.P,U3,29,GPIO18*%
%TO.N,unconnected-(U3-GPIO18-Pad29)*%
X115232500Y-86717500D03*
%TO.P,U3,30,GPIO19*%
%TO.N,unconnected-(U3-GPIO19-Pad30)*%
X115232500Y-87117500D03*
%TO.P,U3,31,GPIO20*%
%TO.N,unconnected-(U3-GPIO20-Pad31)*%
X115232500Y-87517500D03*
%TO.P,U3,32,GPIO21*%
%TO.N,unconnected-(U3-GPIO21-Pad32)*%
X115232500Y-87917500D03*
%TO.P,U3,33,IOVDD*%
%TO.N,/3V3*%
X115232500Y-88317500D03*
%TO.P,U3,34,GPIO22*%
%TO.N,unconnected-(U3-GPIO22-Pad34)*%
X115232500Y-88717500D03*
%TO.P,U3,35,GPIO23*%
%TO.N,unconnected-(U3-GPIO23-Pad35)*%
X115232500Y-89117500D03*
%TO.P,U3,36,GPIO24*%
%TO.N,unconnected-(U3-GPIO24-Pad36)*%
X115232500Y-89517500D03*
%TO.P,U3,37,GPIO25*%
%TO.N,unconnected-(U3-GPIO25-Pad37)*%
X115232500Y-89917500D03*
%TO.P,U3,38,GPIO26_ADC0*%
%TO.N,unconnected-(U3-GPIO26_ADC0-Pad38)*%
X115232500Y-90317500D03*
%TO.P,U3,39,GPIO27_ADC1*%
%TO.N,unconnected-(U3-GPIO27_ADC1-Pad39)*%
X115232500Y-90717500D03*
%TO.P,U3,40,GPIO28_ADC2*%
%TO.N,unconnected-(U3-GPIO28_ADC2-Pad40)*%
X115232500Y-91117500D03*
%TO.P,U3,41,GPIO29_ADC3*%
%TO.N,unconnected-(U3-GPIO29_ADC3-Pad41)*%
X115232500Y-91517500D03*
%TO.P,U3,42,IOVDD*%
%TO.N,/3V3*%
X115232500Y-91917500D03*
D25*
%TO.P,U3,43,ADC_AVDD*%
X116070000Y-92755000D03*
%TO.P,U3,44,VREG_IN*%
X116470000Y-92755000D03*
%TO.P,U3,45,VREG_VOUT*%
%TO.N,/1V1*%
X116870000Y-92755000D03*
%TO.P,U3,46,USB_DM*%
%TO.N,Net-(U3-USB_DM)*%
X117270000Y-92755000D03*
%TO.P,U3,47,USB_DP*%
%TO.N,Net-(U3-USB_DP)*%
X117670000Y-92755000D03*
%TO.P,U3,48,USB_VDD*%
%TO.N,/3V3*%
X118070000Y-92755000D03*
%TO.P,U3,49,IOVDD*%
X118470000Y-92755000D03*
%TO.P,U3,50,DVDD*%
%TO.N,/1V1*%
X118870000Y-92755000D03*
%TO.P,U3,51,QSPI_SD3*%
%TO.N,/QSPI_SD3*%
X119270000Y-92755000D03*
%TO.P,U3,52,QSPI_SCLK*%
%TO.N,/QSPI_SCLK*%
X119670000Y-92755000D03*
%TO.P,U3,53,QSPI_SD0*%
%TO.N,/QSPI_SD0*%
X120070000Y-92755000D03*
%TO.P,U3,54,QSPI_SD2*%
%TO.N,/QSPI_SD2*%
X120470000Y-92755000D03*
%TO.P,U3,55,QSPI_SD1*%
%TO.N,/QSPI_SD1*%
X120870000Y-92755000D03*
%TO.P,U3,56,QSPI_SS*%
%TO.N,/QSPI_SS*%
X121270000Y-92755000D03*
D26*
%TO.P,U3,57,GND*%
%TO.N,/GND*%
X118670000Y-89317500D03*
%TD*%
D23*
%TO.P,C14,1*%
%TO.N,/GND*%
X115090000Y-83700000D03*
%TO.P,C14,2*%
%TO.N,/3V3*%
X115090000Y-84660000D03*
%TD*%
D16*
%TO.P,C6,1*%
%TO.N,/GND*%
X121600000Y-101350000D03*
%TO.P,C6,2*%
%TO.N,/1V1*%
X121600000Y-100390000D03*
%TD*%
D23*
%TO.P,C12,1*%
%TO.N,/GND*%
X122250000Y-83740000D03*
%TO.P,C12,2*%
%TO.N,/3V3*%
X122250000Y-84700000D03*
%TD*%
D16*
%TO.P,C5,1*%
%TO.N,/GND*%
X122570000Y-101350000D03*
%TO.P,C5,2*%
%TO.N,/3V3*%
X122570000Y-100390000D03*
%TD*%
%TO.P,C17,1*%
%TO.N,/5V*%
X115100000Y-99880000D03*
%TO.P,C17,2*%
%TO.N,/GND*%
X115100000Y-98920000D03*
%TD*%
D27*
%TO.P,R4,1*%
%TO.N,/GND*%
X115100000Y-100830000D03*
%TO.P,R4,2*%
%TO.N,Net-(J1-CC1)*%
X115100000Y-101850000D03*
%TD*%
%TO.P,R5,1*%
%TO.N,/GND*%
X126660000Y-100830000D03*
%TO.P,R5,2*%
%TO.N,Net-(J1-CC2)*%
X126660000Y-101850000D03*
%TD*%
D16*
%TO.P,C16,1*%
%TO.N,/GND*%
X123570000Y-101350000D03*
%TO.P,C16,2*%
%TO.N,/3V3*%
X123570000Y-100390000D03*
%TD*%
D17*
%TO.P,R3,1*%
%TO.N,/USB_DN*%
X120060000Y-99400000D03*
%TO.P,R3,2*%
%TO.N,Net-(U3-USB_DM)*%
X120060000Y-98380000D03*
%TD*%
D23*
%TO.P,C4,1*%
%TO.N,/GND*%
X122260000Y-81750000D03*
%TO.P,C4,2*%
%TO.N,/XIN*%
X122260000Y-82710000D03*
%TD*%
D17*
%TO.P,R2,1*%
%TO.N,/USB_DP*%
X121080000Y-99400000D03*
%TO.P,R2,2*%
%TO.N,Net-(U3-USB_DP)*%
X121080000Y-98380000D03*
%TD*%
D28*
%TO.P,R27,1*%
%TO.N,/A0*%
X124560000Y-99370000D03*
%TO.P,R27,2*%
%TO.N,/GND*%
X125580000Y-99370000D03*
%TD*%
%TO.P,R29,1*%
%TO.N,/A2*%
X124540000Y-101410000D03*
%TO.P,R29,2*%
%TO.N,/GND*%
X125560000Y-101410000D03*
%TD*%
D23*
%TO.P,C15,1*%
%TO.N,/GND*%
X123090000Y-97320000D03*
%TO.P,C15,2*%
%TO.N,/3V3*%
X123090000Y-98280000D03*
%TD*%
%TO.P,C9,1*%
%TO.N,/3V3*%
X115090000Y-96970000D03*
%TO.P,C9,2*%
%TO.N,/GND*%
X115090000Y-97930000D03*
%TD*%
D29*
%TO.P,R25,1*%
%TO.N,/GND*%
X125570000Y-100390000D03*
%TO.P,R25,2*%
%TO.N,/A1*%
X124550000Y-100390000D03*
%TD*%
D18*
%TO.P,C8,1*%
%TO.N,/GND*%
X114990000Y-95960000D03*
%TO.P,C8,2*%
%TO.N,/1V1*%
X115950000Y-95960000D03*
%TD*%
D30*
%TO.N,/GND*%
X126260000Y-100220000D03*
X115470000Y-95330000D03*
X124250000Y-102310000D03*
X117240000Y-82120000D03*
X117590000Y-88250000D03*
X119850000Y-90310000D03*
X121500000Y-83740000D03*
X115580000Y-98300000D03*
X115570000Y-100830000D03*
X117830000Y-102330000D03*
X122700000Y-83730000D03*
X123090000Y-96890000D03*
X117040000Y-96600000D03*
X115620000Y-83470000D03*
X122260000Y-81340000D03*
X126190000Y-99380000D03*
X115170000Y-82150000D03*
X117600000Y-90340000D03*
X119810000Y-88250000D03*
X121190000Y-94630000D03*
X125650000Y-102020000D03*
%TO.N,/3V3*%
X116100000Y-88320000D03*
X118260000Y-91790000D03*
X118880000Y-86920000D03*
X122930000Y-91930000D03*
X116750000Y-99470000D03*
X123060000Y-99630000D03*
X119870000Y-96070000D03*
X123080000Y-98710000D03*
X122760000Y-84590000D03*
X116520000Y-86780000D03*
X115780000Y-96880000D03*
X121300000Y-88300000D03*
X121990000Y-98740000D03*
X115220000Y-92830000D03*
X115640000Y-85200000D03*
%TO.N,/1V1*%
X116540000Y-81630000D03*
X119700000Y-100330000D03*
X121730000Y-99830000D03*
X118990000Y-91820000D03*
X118330000Y-84950000D03*
X118070000Y-86810000D03*
%TO.N,/5V*%
X123430000Y-102310000D03*
X118640000Y-102340000D03*
%TO.N,/A2*%
X124870000Y-102020000D03*
%TO.N,/A0*%
X124260000Y-98910000D03*
%TO.N,/A1*%
X123830000Y-99610000D03*
%TO.N,/SCL*%
X120170000Y-86820000D03*
%TO.N,/RST*%
X122990000Y-86600000D03*
%TO.N,/SDA*%
X120560000Y-85050000D03*
%TO.N,/SWCLK*%
X122300000Y-104700000D03*
X117180000Y-84940000D03*
%TO.N,/SWD*%
X119240000Y-105690000D03*
X116530000Y-87550000D03*
%TD*%
D31*
%TO.N,Net-(J1-CC2)*%
X126660000Y-101850000D02*
X126660000Y-104810000D01*
X125920000Y-105550000D02*
X123410000Y-105550000D01*
X126660000Y-104810000D02*
X125920000Y-105550000D01*
X123410000Y-105550000D02*
X122800000Y-104940000D01*
X122800000Y-104940000D02*
X122800000Y-103435000D01*
X122800000Y-103435000D02*
X122790000Y-103425000D01*
%TO.N,/RXD*%
X123420000Y-87982893D02*
X123420000Y-90360000D01*
X122954607Y-87517500D02*
X123420000Y-87982893D01*
X122107500Y-87517500D02*
X122954607Y-87517500D01*
X123420000Y-90360000D02*
X123790000Y-90730000D01*
X123790000Y-90730000D02*
X125640000Y-90730000D01*
X125640000Y-90730000D02*
X126635000Y-91725000D01*
%TO.N,/TXD*%
X122107500Y-87917500D02*
X122847500Y-87917500D01*
X123070000Y-88140000D02*
X123070000Y-90680000D01*
X122847500Y-87917500D02*
X123070000Y-88140000D01*
X123070000Y-90680000D02*
X124115000Y-91725000D01*
X124115000Y-91725000D02*
X124635000Y-91725000D01*
%TO.N,/USB_DN*%
X121290000Y-103425000D02*
X121290000Y-104120000D01*
X120440000Y-104270000D02*
X120290000Y-104120000D01*
X121290000Y-104120000D02*
X121140000Y-104270000D01*
X121140000Y-104270000D02*
X120440000Y-104270000D01*
X120290000Y-104120000D02*
X120290000Y-103425000D01*
%TO.N,/USB_DP*%
X121690000Y-102580000D02*
X120790000Y-102580000D01*
X121790000Y-102680000D02*
X121690000Y-102580000D01*
X121790000Y-103425000D02*
X121790000Y-102680000D01*
%TO.N,/USB_DN*%
X120290000Y-103425000D02*
X120290000Y-99710000D01*
X120290000Y-99710000D02*
X120010000Y-99430000D01*
X120010000Y-99430000D02*
X119980000Y-99430000D01*
%TO.N,/USB_DP*%
X120790000Y-102580000D02*
X120790000Y-99690000D01*
X120790000Y-99690000D02*
X121080000Y-99400000D01*
%TO.N,Net-(U3-USB_DM)*%
X117270000Y-92755000D02*
X117270000Y-95560000D01*
X117270000Y-95560000D02*
X118840000Y-97130000D01*
X119570000Y-97130000D02*
X119980000Y-97540000D01*
X118840000Y-97130000D02*
X119570000Y-97130000D01*
X119980000Y-97540000D02*
X119980000Y-98410000D01*
%TO.N,/1V1*%
X116870000Y-95660000D02*
X116570000Y-95960000D01*
X116570000Y-95960000D02*
X115950000Y-95960000D01*
X116870000Y-95040000D02*
X116870000Y-95660000D01*
X119350000Y-97690000D02*
X119350000Y-99980000D01*
X116870000Y-95660000D02*
X118760000Y-97550000D01*
X118760000Y-97550000D02*
X119210000Y-97550000D01*
X119210000Y-97550000D02*
X119350000Y-97690000D01*
X119350000Y-99980000D02*
X119700000Y-100330000D01*
%TO.N,/XOUT*%
X118870000Y-85880000D02*
X118870000Y-84590000D01*
X118870000Y-84590000D02*
X118160000Y-83880000D01*
X118160000Y-83880000D02*
X116970000Y-82690000D01*
X116970000Y-82690000D02*
X116110000Y-82690000D01*
%TO.N,/GND*%
X114990000Y-95960000D02*
X114990000Y-95810000D01*
D32*
X117840000Y-103425000D02*
X117840000Y-102340000D01*
D31*
X122690000Y-83740000D02*
X122700000Y-83730000D01*
X115470000Y-95330000D02*
X115350000Y-95330000D01*
X115090000Y-98710000D02*
X115170000Y-98710000D01*
X114990000Y-94970000D02*
X114990000Y-95960000D01*
X126090000Y-100390000D02*
X126260000Y-100220000D01*
X115150000Y-81600000D02*
X115150000Y-82130000D01*
X120570000Y-95250000D02*
X121190000Y-94630000D01*
X123570000Y-101350000D02*
X122570000Y-101350000D01*
X125600000Y-101420000D02*
X125600000Y-101970000D01*
X126660000Y-100620000D02*
X126260000Y-100220000D01*
D32*
X117830000Y-102330000D02*
X117710000Y-102210000D01*
D31*
X123580000Y-101640000D02*
X124250000Y-102310000D01*
X120570000Y-95310000D02*
X120570000Y-95250000D01*
X117340000Y-96900000D02*
X117040000Y-96600000D01*
D32*
X117710000Y-102210000D02*
X117710000Y-101289800D01*
D31*
X115150000Y-82130000D02*
X115170000Y-82150000D01*
X121360000Y-83880000D02*
X121500000Y-83740000D01*
X119670000Y-88317500D02*
X118670000Y-89317500D01*
X120360000Y-83880000D02*
X121360000Y-83880000D01*
X115340000Y-83750000D02*
X115620000Y-83470000D01*
X115100000Y-97840000D02*
X115120000Y-97840000D01*
D32*
X124240000Y-103425000D02*
X124240000Y-102320000D01*
D31*
X115120000Y-97840000D02*
X115580000Y-98300000D01*
X115000000Y-94960000D02*
X114990000Y-94970000D01*
X119670000Y-88110000D02*
X119810000Y-88250000D01*
X116160000Y-83740000D02*
X115890000Y-83740000D01*
X121260000Y-94560000D02*
X121190000Y-94630000D01*
X126660000Y-100830000D02*
X126660000Y-100620000D01*
X122570000Y-101350000D02*
X121600000Y-101350000D01*
X125570000Y-100390000D02*
X126090000Y-100390000D01*
X119670000Y-85880000D02*
X119670000Y-88110000D01*
X121990000Y-94560000D02*
X121260000Y-94560000D01*
X117340000Y-97220000D02*
X117340000Y-96900000D01*
X125600000Y-101970000D02*
X125650000Y-102020000D01*
X115150000Y-82170000D02*
X115170000Y-82150000D01*
D32*
X117840000Y-102340000D02*
X117830000Y-102330000D01*
D31*
X119810000Y-88250000D02*
X119670000Y-88317500D01*
X117240000Y-82120000D02*
X118160000Y-82120000D01*
X115170000Y-98710000D02*
X115580000Y-98300000D01*
X115100000Y-100830000D02*
X115570000Y-100830000D01*
X115350000Y-95330000D02*
X114990000Y-94970000D01*
X123580000Y-101300000D02*
X123580000Y-101640000D01*
X116030000Y-94960000D02*
X115000000Y-94960000D01*
D32*
X117710000Y-101289800D02*
X117700200Y-101280000D01*
D31*
X115890000Y-83740000D02*
X115620000Y-83470000D01*
X115100000Y-83750000D02*
X115340000Y-83750000D01*
X122260000Y-81750000D02*
X122260000Y-81340000D01*
D32*
X124240000Y-102320000D02*
X124250000Y-102310000D01*
D31*
X123090000Y-97320000D02*
X123090000Y-96890000D01*
X115150000Y-82690000D02*
X115150000Y-82170000D01*
X125600000Y-99380000D02*
X126190000Y-99380000D01*
X122250000Y-83740000D02*
X122690000Y-83740000D01*
%TO.N,/XIN*%
X119270000Y-85880000D02*
X119270000Y-83210000D01*
X122260000Y-82710000D02*
X120950000Y-82710000D01*
X120950000Y-82710000D02*
X120360000Y-82120000D01*
X119270000Y-83210000D02*
X120360000Y-82120000D01*
%TO.N,/3V3*%
X121300000Y-88300000D02*
X121317500Y-88317500D01*
X119860000Y-96060000D02*
X119870000Y-96070000D01*
X118470000Y-85880000D02*
X118470000Y-86510000D01*
X122107500Y-91917500D02*
X122917500Y-91917500D01*
X116520000Y-86780000D02*
X116870000Y-86430000D01*
X123090000Y-98280000D02*
X123090000Y-98700000D01*
X118470000Y-92000000D02*
X118260000Y-91790000D01*
X122560000Y-100350000D02*
X122560000Y-100130000D01*
X116870000Y-86430000D02*
X116870000Y-85880000D01*
D32*
X116760400Y-99459600D02*
X116750000Y-99470000D01*
D31*
X122000000Y-98730000D02*
X121990000Y-98740000D01*
X118470000Y-92755000D02*
X118470000Y-92000000D01*
X116097500Y-88317500D02*
X116100000Y-88320000D01*
X122760000Y-84590000D02*
X122360000Y-84590000D01*
X122000000Y-98330000D02*
X122000000Y-98730000D01*
X118070000Y-91980000D02*
X118260000Y-91790000D01*
X121317500Y-88317500D02*
X122107500Y-88317500D01*
X122560000Y-100130000D02*
X123060000Y-99630000D01*
X115232500Y-88317500D02*
X116097500Y-88317500D01*
X116120000Y-97220000D02*
X115780000Y-96880000D01*
X116470000Y-92755000D02*
X116070000Y-92755000D01*
X118070000Y-92755000D02*
X118070000Y-91980000D01*
X115100000Y-96880000D02*
X115780000Y-96880000D01*
X115295000Y-92755000D02*
X115220000Y-92830000D01*
X116070000Y-92755000D02*
X115295000Y-92755000D01*
X114990000Y-94010000D02*
X114990000Y-93060000D01*
X122360000Y-84590000D02*
X122250000Y-84700000D01*
X123580000Y-100340000D02*
X123580000Y-100150000D01*
X115232500Y-92817500D02*
X115220000Y-92830000D01*
X119150000Y-96060000D02*
X119860000Y-96060000D01*
X116160000Y-84700000D02*
X116140000Y-84700000D01*
X122917500Y-91917500D02*
X122930000Y-91930000D01*
X116070000Y-93960000D02*
X116070000Y-92755000D01*
X116140000Y-84700000D02*
X115640000Y-85200000D01*
X115232500Y-91917500D02*
X115232500Y-92817500D01*
X115150000Y-84710000D02*
X115640000Y-85200000D01*
D32*
X116760400Y-98524100D02*
X116760400Y-99459600D01*
D31*
X123580000Y-100150000D02*
X123060000Y-99630000D01*
X115100000Y-84710000D02*
X115150000Y-84710000D01*
X116030000Y-94000000D02*
X116070000Y-93960000D01*
X114990000Y-93060000D02*
X115220000Y-92830000D01*
X118470000Y-86510000D02*
X118880000Y-86920000D01*
X123090000Y-98700000D02*
X123080000Y-98710000D01*
X116380000Y-97220000D02*
X116120000Y-97220000D01*
%TO.N,/1V1*%
X121600000Y-100390000D02*
X121600000Y-99960000D01*
X116880000Y-91940000D02*
X116880000Y-92745000D01*
X116870000Y-92755000D02*
X116870000Y-95040000D01*
X116540000Y-81630000D02*
X116140000Y-81630000D01*
X118070000Y-85880000D02*
X118070000Y-85210000D01*
X118870000Y-92755000D02*
X118870000Y-91940000D01*
X118470000Y-91290000D02*
X118990000Y-91810000D01*
X116140000Y-81630000D02*
X116110000Y-81600000D01*
X117530000Y-91290000D02*
X118470000Y-91290000D01*
X118990000Y-91810000D02*
X118990000Y-91820000D01*
X118870000Y-91940000D02*
X118990000Y-91820000D01*
X116880000Y-91940000D02*
X117530000Y-91290000D01*
X118070000Y-85880000D02*
X118070000Y-86810000D01*
X121600000Y-99960000D02*
X121730000Y-99830000D01*
X116880000Y-92745000D02*
X116870000Y-92755000D01*
X118070000Y-85210000D02*
X118330000Y-84950000D01*
D32*
%TO.N,/5V*%
X116760400Y-100799600D02*
X116760400Y-101280000D01*
X117290000Y-100120000D02*
X117286000Y-100124000D01*
X118640000Y-103425000D02*
X118640000Y-102340000D01*
X118290000Y-100120000D02*
X117290000Y-100120000D01*
X118640000Y-100470000D02*
X118290000Y-100120000D01*
X116114000Y-100124000D02*
X116760400Y-100124000D01*
X123440000Y-102320000D02*
X123430000Y-102310000D01*
X118640000Y-102340000D02*
X118640000Y-100470000D01*
X117286000Y-100124000D02*
X116760400Y-100124000D01*
X123440000Y-103425000D02*
X123440000Y-102320000D01*
X123430000Y-102310000D02*
X123400400Y-102280400D01*
X115870000Y-99880000D02*
X116114000Y-100124000D01*
X115100000Y-99880000D02*
X115870000Y-99880000D01*
X116760400Y-100124000D02*
X116760400Y-100799600D01*
D31*
%TO.N,Net-(J1-CC1)*%
X116670000Y-106270000D02*
X115100000Y-104700000D01*
X115100000Y-104700000D02*
X115100000Y-101850000D01*
X119790000Y-103425000D02*
X119790000Y-105880000D01*
X119790000Y-105880000D02*
X119400000Y-106270000D01*
X119400000Y-106270000D02*
X116670000Y-106270000D01*
%TO.N,/USB_DP*%
X120790000Y-103425000D02*
X120790000Y-102580000D01*
%TO.N,Net-(U3-USB_DP)*%
X119780000Y-96770000D02*
X121080000Y-98070000D01*
X121080000Y-98070000D02*
X121080000Y-98380000D01*
X119000000Y-96770000D02*
X119780000Y-96770000D01*
X117670000Y-95440000D02*
X119000000Y-96770000D01*
X117670000Y-92755000D02*
X117670000Y-95440000D01*
%TO.N,/QSPI_SS*%
X122480000Y-96060000D02*
X123084800Y-95455200D01*
X122090000Y-97290000D02*
X122090000Y-96160000D01*
X123084800Y-95455200D02*
X123084800Y-94011747D01*
X122489854Y-93416800D02*
X121440000Y-93416800D01*
X123084800Y-94011747D02*
X122489854Y-93416800D01*
X121990000Y-96060000D02*
X122480000Y-96060000D01*
X122090000Y-96160000D02*
X121990000Y-96060000D01*
X121440000Y-93416800D02*
X121270000Y-93246800D01*
X121270000Y-93246800D02*
X121270000Y-92755000D01*
%TO.N,/QSPI_SD2*%
X122480000Y-95060000D02*
X122481600Y-95058400D01*
X120470000Y-93650000D02*
X120470000Y-92755000D01*
X121990000Y-95060000D02*
X122480000Y-95060000D01*
X122240000Y-94020000D02*
X120840000Y-94020000D01*
X120840000Y-94020000D02*
X120470000Y-93650000D01*
X122481600Y-94261600D02*
X122240000Y-94020000D01*
X122481600Y-95058400D02*
X122481600Y-94261600D01*
%TO.N,/QSPI_SD3*%
X118356800Y-95256800D02*
X118660000Y-95560000D01*
X118356800Y-94093473D02*
X118356800Y-95256800D01*
X118533473Y-93916800D02*
X118356800Y-94093473D01*
X119196674Y-93916800D02*
X118533473Y-93916800D01*
X119270000Y-93843474D02*
X119196674Y-93916800D01*
X119270000Y-92755000D02*
X119270000Y-93843474D01*
X118660000Y-95560000D02*
X119150000Y-95560000D01*
%TO.N,/QSPI_SCLK*%
X119670000Y-92755000D02*
X119670000Y-93870000D01*
X119321600Y-94218400D02*
X118658400Y-94218400D01*
X118816800Y-95060000D02*
X119150000Y-95060000D01*
X118658400Y-94218400D02*
X118658400Y-94901600D01*
X119670000Y-93870000D02*
X119321600Y-94218400D01*
X118658400Y-94901600D02*
X118816800Y-95060000D01*
%TO.N,/QSPI_SD1*%
X122783200Y-95256800D02*
X122783200Y-94136674D01*
X122480000Y-95560000D02*
X122783200Y-95256800D01*
X121990000Y-95560000D02*
X122480000Y-95560000D01*
X121060000Y-93718400D02*
X120870000Y-93528400D01*
X122783200Y-94136674D02*
X122364927Y-93718400D01*
X120870000Y-93528400D02*
X120870000Y-92755000D01*
X122364927Y-93718400D02*
X121060000Y-93718400D01*
%TO.N,/QSPI_SD0*%
X120070000Y-92755000D02*
X120070000Y-93970000D01*
X120070000Y-93970000D02*
X119480000Y-94560000D01*
X119480000Y-94560000D02*
X119150000Y-94560000D01*
%TO.N,/PLUG*%
X122107500Y-87117500D02*
X123702500Y-87117500D01*
X123702500Y-87117500D02*
X124635000Y-86185000D01*
X124635000Y-86185000D02*
X124635000Y-85725000D01*
%TO.N,/A2*%
X124570000Y-101430000D02*
X124580000Y-101420000D01*
X124850000Y-102020000D02*
X124570000Y-101740000D01*
X124870000Y-102020000D02*
X124850000Y-102020000D01*
X124570000Y-101740000D02*
X124570000Y-101430000D01*
%TO.N,/A0*%
X124260000Y-99060000D02*
X124580000Y-99380000D01*
X124260000Y-98910000D02*
X124260000Y-99060000D01*
%TO.N,/A1*%
X123830000Y-99610000D02*
X123830000Y-99670000D01*
X123830000Y-99670000D02*
X124550000Y-100390000D01*
%TO.N,/SCL*%
X120070000Y-86720000D02*
X120170000Y-86820000D01*
X120070000Y-85880000D02*
X120070000Y-86720000D01*
%TO.N,/RST*%
X122872500Y-86717500D02*
X122107500Y-86717500D01*
X122990000Y-86600000D02*
X122872500Y-86717500D01*
%TO.N,/SDA*%
X120470000Y-85880000D02*
X120470000Y-85140000D01*
X120470000Y-85140000D02*
X120560000Y-85050000D01*
%TO.N,/SWCLK*%
X122290000Y-104690000D02*
X122300000Y-104700000D01*
X122290000Y-103425000D02*
X122290000Y-104690000D01*
X117180000Y-84940000D02*
X117670000Y-85430000D01*
X117670000Y-85430000D02*
X117670000Y-85880000D01*
%TO.N,/SWD*%
X119290000Y-105640000D02*
X119290000Y-103425000D01*
X117270000Y-86810000D02*
X117270000Y-85880000D01*
X116530000Y-87550000D02*
X117270000Y-86810000D01*
X119240000Y-105690000D02*
X119290000Y-105640000D01*
%TD*%
M02*
