%TF.GenerationSoftware,KiCad,Pcbnew,8.0.1*%
%TF.CreationDate,2024-03-27T16:27:56-04:00*%
%TF.ProjectId,aditBoard,61646974-426f-4617-9264-2e6b69636164,rev?*%
%TF.SameCoordinates,Original*%
%TF.FileFunction,Copper,L4,Bot*%
%TF.FilePolarity,Positive*%
%FSLAX46Y46*%
G04 Gerber Fmt 4.6, Leading zero omitted, Abs format (unit mm)*
G04 Created by KiCad (PCBNEW 8.0.1) date 2024-03-27 16:27:56*
%MOMM*%
%LPD*%
G01*
G04 APERTURE LIST*
%TA.AperFunction,ComponentPad*%
%ADD10O,1.000000X2.100000*%
%TD*%
%TA.AperFunction,ComponentPad*%
%ADD11O,1.000000X1.800000*%
%TD*%
%TA.AperFunction,ComponentPad*%
%ADD12C,1.350000*%
%TD*%
%TA.AperFunction,ComponentPad*%
%ADD13O,1.350000X1.350000*%
%TD*%
%TA.AperFunction,ViaPad*%
%ADD14C,0.500000*%
%TD*%
%TA.AperFunction,Conductor*%
%ADD15C,0.200000*%
%TD*%
%TA.AperFunction,Conductor*%
%ADD16C,0.508000*%
%TD*%
G04 APERTURE END LIST*
D10*
%TO.P,J1,S1,SHIELD*%
%TO.N,/GND*%
X116720000Y-104000000D03*
D11*
X116720000Y-108180000D03*
D10*
X125360000Y-104000000D03*
D11*
X125360000Y-108180000D03*
%TD*%
D12*
%TO.P,J2,1,Pin_1*%
%TO.N,/GND*%
X124635000Y-81725000D03*
D13*
%TO.P,J2,2,Pin_2*%
X126635000Y-81725000D03*
%TO.P,J2,3,Pin_3*%
%TO.N,/SDA*%
X124635000Y-83725000D03*
%TO.P,J2,4,Pin_4*%
%TO.N,/SCL*%
X126635000Y-83725000D03*
%TO.P,J2,5,Pin_5*%
%TO.N,/PLUG*%
X124635000Y-85725000D03*
%TO.P,J2,6,Pin_6*%
%TO.N,/A2*%
X126635000Y-85725000D03*
%TO.P,J2,7,Pin_7*%
%TO.N,/A1*%
X124635000Y-87725000D03*
%TO.P,J2,8,Pin_8*%
%TO.N,/A0*%
X126635000Y-87725000D03*
%TO.P,J2,9,Pin_9*%
%TO.N,/GND*%
X124635000Y-89725000D03*
%TO.P,J2,10,Pin_10*%
X126635000Y-89725000D03*
%TO.P,J2,11,Pin_11*%
%TO.N,/TXD*%
X124635000Y-91725000D03*
%TO.P,J2,12,Pin_12*%
%TO.N,/RXD*%
X126635000Y-91725000D03*
%TO.P,J2,13,Pin_13*%
%TO.N,/GND*%
X124635000Y-93725000D03*
%TO.P,J2,14,Pin_14*%
X126635000Y-93725000D03*
%TO.P,J2,15,Pin_15*%
%TO.N,/RST*%
X124635000Y-95725000D03*
%TO.P,J2,16,Pin_16*%
%TO.N,/3V3*%
X126635000Y-95725000D03*
%TO.P,J2,17,Pin_17*%
%TO.N,unconnected-(J2-Pin_17-Pad17)*%
X124635000Y-97725000D03*
%TO.P,J2,18,Pin_18*%
%TO.N,unconnected-(J2-Pin_18-Pad18)*%
X126635000Y-97725000D03*
%TD*%
D14*
%TO.N,/GND*%
X126260000Y-100220000D03*
X115470000Y-95330000D03*
X124250000Y-102310000D03*
X117240000Y-82120000D03*
X117590000Y-88250000D03*
X119850000Y-90310000D03*
X121500000Y-83740000D03*
X115580000Y-98300000D03*
X115570000Y-100830000D03*
X117830000Y-102330000D03*
X122700000Y-83730000D03*
X123090000Y-96890000D03*
X117040000Y-96600000D03*
X115620000Y-83470000D03*
X122260000Y-81340000D03*
X126190000Y-99380000D03*
X115170000Y-82150000D03*
X117600000Y-90340000D03*
X119810000Y-88250000D03*
X121190000Y-94630000D03*
X125650000Y-102020000D03*
%TO.N,/3V3*%
X116100000Y-88320000D03*
X118260000Y-91790000D03*
X118880000Y-86920000D03*
X122930000Y-91930000D03*
X116750000Y-99470000D03*
X123060000Y-99630000D03*
X119870000Y-96070000D03*
X123080000Y-98710000D03*
X122760000Y-84590000D03*
X116520000Y-86780000D03*
X115780000Y-96880000D03*
X121300000Y-88300000D03*
X121990000Y-98740000D03*
X115220000Y-92830000D03*
X115640000Y-85200000D03*
%TO.N,/1V1*%
X116540000Y-81630000D03*
X119700000Y-100330000D03*
X121730000Y-99830000D03*
X118990000Y-91820000D03*
X118330000Y-84950000D03*
X118070000Y-86810000D03*
%TO.N,/5V*%
X123430000Y-102310000D03*
X118640000Y-102340000D03*
%TO.N,/A2*%
X124870000Y-102020000D03*
%TO.N,/A0*%
X124260000Y-98910000D03*
%TO.N,/A1*%
X123830000Y-99610000D03*
%TO.N,/SCL*%
X120170000Y-86820000D03*
%TO.N,/RST*%
X122990000Y-86600000D03*
%TO.N,/SDA*%
X120560000Y-85050000D03*
%TO.N,/SWCLK*%
X122300000Y-104700000D03*
X117180000Y-84940000D03*
%TO.N,/SWD*%
X119240000Y-105690000D03*
X116530000Y-87550000D03*
%TD*%
D15*
%TO.N,/A2*%
X126635000Y-85725000D02*
X125660000Y-86700000D01*
X125660000Y-86700000D02*
X124223633Y-86700000D01*
X124223633Y-86700000D02*
X123322033Y-85798400D01*
X123322033Y-85798400D02*
X122431600Y-85798400D01*
X122128400Y-95004926D02*
X122560000Y-95436526D01*
X122431600Y-85798400D02*
X122128400Y-86101600D01*
X122560000Y-95436526D02*
X122560000Y-100050000D01*
X122128400Y-86101600D02*
X122128400Y-95004926D01*
X122560000Y-100050000D02*
X124070000Y-101560000D01*
X124070000Y-101560000D02*
X124410000Y-101560000D01*
X124410000Y-101560000D02*
X124870000Y-102020000D01*
%TO.N,/RST*%
X122990000Y-86600000D02*
X123560000Y-87170000D01*
X124235000Y-95725000D02*
X124635000Y-95725000D01*
X123560000Y-87170000D02*
X123560000Y-95050000D01*
X123560000Y-95050000D02*
X124235000Y-95725000D01*
%TO.N,/A0*%
X126635000Y-87725000D02*
X125630000Y-88730000D01*
X125630000Y-88730000D02*
X125630000Y-98300000D01*
X125020000Y-98910000D02*
X124260000Y-98910000D01*
X125630000Y-98300000D02*
X125020000Y-98910000D01*
%TO.N,/SCL*%
X120170000Y-86820000D02*
X121588400Y-85401600D01*
X121588400Y-85401600D02*
X123384926Y-85401600D01*
X123384926Y-85401600D02*
X124066526Y-84720000D01*
X124066526Y-84720000D02*
X125640000Y-84720000D01*
X125640000Y-84720000D02*
X126635000Y-83725000D01*
%TO.N,/A1*%
X124635000Y-87725000D02*
X124635000Y-87537893D01*
X124635000Y-87537893D02*
X123197107Y-86100000D01*
X123650000Y-99430000D02*
X123830000Y-99610000D01*
X122560000Y-86100000D02*
X122430000Y-86230000D01*
X123197107Y-86100000D02*
X122560000Y-86100000D01*
X122430000Y-86230000D02*
X122430000Y-94880000D01*
X122430000Y-94880000D02*
X123650000Y-96100000D01*
X123650000Y-96100000D02*
X123650000Y-99430000D01*
%TO.N,/1V1*%
X119700000Y-100330000D02*
X121230000Y-100330000D01*
X116540000Y-83160000D02*
X116540000Y-81630000D01*
X118760000Y-91582893D02*
X118760000Y-91590000D01*
X118624541Y-88084541D02*
X118624541Y-91447434D01*
X118070000Y-86810000D02*
X118070000Y-87530000D01*
X118624541Y-91447434D02*
X118760000Y-91582893D01*
X118760000Y-91590000D02*
X118990000Y-91820000D01*
X118330000Y-84950000D02*
X116540000Y-83160000D01*
X118070000Y-87530000D02*
X118624541Y-88084541D01*
X121230000Y-100330000D02*
X121730000Y-99830000D01*
D16*
%TO.N,/5V*%
X118640000Y-102340000D02*
X123400000Y-102340000D01*
X123400000Y-102340000D02*
X123430000Y-102310000D01*
D15*
%TO.N,/SDA*%
X120560000Y-85050000D02*
X120610000Y-85100000D01*
X123260000Y-85100000D02*
X124635000Y-83725000D01*
X120610000Y-85100000D02*
X123260000Y-85100000D01*
%TO.N,/SWCLK*%
X118140000Y-100096526D02*
X118140000Y-95139999D01*
X119052893Y-105170000D02*
X118584493Y-105638400D01*
X122300000Y-104700000D02*
X121830000Y-105170000D01*
X117090000Y-94090000D02*
X117090000Y-85030000D01*
X118140000Y-95139999D02*
X117090000Y-94090000D01*
X116204926Y-105638400D02*
X115611600Y-105045074D01*
X115611600Y-105045074D02*
X115611600Y-102624926D01*
X115611600Y-102624926D02*
X118140000Y-100096526D01*
X117090000Y-85030000D02*
X117180000Y-84940000D01*
X121830000Y-105170000D02*
X119052893Y-105170000D01*
X118584493Y-105638400D02*
X116204926Y-105638400D01*
%TO.N,/SWD*%
X117838400Y-99971600D02*
X117838400Y-95264926D01*
X116788400Y-87808400D02*
X116530000Y-87550000D01*
X115310000Y-102500000D02*
X117838400Y-99971600D01*
X117838400Y-95264926D02*
X116788400Y-94214926D01*
X119240000Y-105690000D02*
X118990000Y-105940000D01*
X116080000Y-105940000D02*
X115310000Y-105170000D01*
X118990000Y-105940000D02*
X116080000Y-105940000D01*
X116788400Y-94214926D02*
X116788400Y-87808400D01*
X115310000Y-105170000D02*
X115310000Y-102500000D01*
%TD*%
M02*
