%TF.GenerationSoftware,KiCad,Pcbnew,8.0.1*%
%TF.CreationDate,2024-03-27T16:27:56-04:00*%
%TF.ProjectId,aditBoard,61646974-426f-4617-9264-2e6b69636164,rev?*%
%TF.SameCoordinates,Original*%
%TF.FileFunction,Legend,Bot*%
%TF.FilePolarity,Positive*%
%FSLAX46Y46*%
G04 Gerber Fmt 4.6, Leading zero omitted, Abs format (unit mm)*
G04 Created by KiCad (PCBNEW 8.0.1) date 2024-03-27 16:27:56*
%MOMM*%
%LPD*%
G01*
G04 APERTURE LIST*
%ADD10C,0.150000*%
%ADD11C,0.000000*%
%ADD12C,0.650000*%
%ADD13O,1.000000X2.100000*%
%ADD14O,1.000000X1.800000*%
%ADD15C,1.350000*%
%ADD16O,1.350000X1.350000*%
G04 APERTURE END LIST*
D10*
X122143152Y-108801541D02*
X122809819Y-109039636D01*
X122809819Y-109039636D02*
X122143152Y-109277731D01*
X122809819Y-110182493D02*
X122809819Y-109611065D01*
X122809819Y-109896779D02*
X121809819Y-109896779D01*
X121809819Y-109896779D02*
X121952676Y-109801541D01*
X121952676Y-109801541D02*
X122047914Y-109706303D01*
X122047914Y-109706303D02*
X122095533Y-109611065D01*
D11*
%TO.C,G\u002A\u002A\u002A*%
G36*
X114681856Y-92224550D02*
G01*
X114698956Y-92235038D01*
X114711267Y-92266302D01*
X114704294Y-92308490D01*
X114681065Y-92329675D01*
X114639250Y-92328691D01*
X114619421Y-92323306D01*
X114598075Y-92307453D01*
X114592941Y-92276239D01*
X114592942Y-92275802D01*
X114604627Y-92238328D01*
X114635916Y-92220284D01*
X114681856Y-92224550D01*
G37*
G36*
X115141118Y-84697245D02*
G01*
X115164751Y-84713841D01*
X115170887Y-84747704D01*
X115170863Y-84752042D01*
X115165782Y-84787265D01*
X115147069Y-84800474D01*
X115107821Y-84797073D01*
X115077037Y-84784288D01*
X115067380Y-84757683D01*
X115072724Y-84720883D01*
X115094274Y-84695474D01*
X115132249Y-84694706D01*
X115141118Y-84697245D01*
G37*
G36*
X118698043Y-100045210D02*
G01*
X118721245Y-100065502D01*
X118723489Y-100091507D01*
X118697782Y-100123205D01*
X118690514Y-100129471D01*
X118663618Y-100142079D01*
X118631095Y-100133229D01*
X118604820Y-100117153D01*
X118595513Y-100092717D01*
X118609448Y-100055490D01*
X118622572Y-100038165D01*
X118654665Y-100028072D01*
X118698043Y-100045210D01*
G37*
G36*
X115161008Y-101933555D02*
G01*
X115167713Y-101951482D01*
X115170887Y-101985422D01*
X115168231Y-102012356D01*
X115153920Y-102024850D01*
X115119020Y-102027409D01*
X115110533Y-102027205D01*
X115076388Y-102017640D01*
X115065403Y-101991837D01*
X115076148Y-101947116D01*
X115078195Y-101943173D01*
X115101693Y-101927693D01*
X115134631Y-101923635D01*
X115161008Y-101933555D01*
G37*
G36*
X115726605Y-109098834D02*
G01*
X115731642Y-109101214D01*
X115756731Y-109120173D01*
X115761905Y-109147484D01*
X115749200Y-109191497D01*
X115727563Y-109221443D01*
X115693066Y-109227368D01*
X115648397Y-109206441D01*
X115631694Y-109191541D01*
X115616574Y-109158097D01*
X115623089Y-109125797D01*
X115646655Y-109100949D01*
X115682688Y-109089859D01*
X115726605Y-109098834D01*
G37*
G36*
X118681035Y-82806166D02*
G01*
X118688760Y-82809522D01*
X118720530Y-82831490D01*
X118723341Y-82856870D01*
X118697782Y-82888549D01*
X118690514Y-82894815D01*
X118663618Y-82907423D01*
X118631095Y-82898573D01*
X118604663Y-82881060D01*
X118595799Y-82852634D01*
X118614349Y-82814610D01*
X118628127Y-82799231D01*
X118647653Y-82794973D01*
X118681035Y-82806166D01*
G37*
G36*
X118939888Y-92271478D02*
G01*
X118946454Y-92285143D01*
X118949584Y-92318093D01*
X118945363Y-92352447D01*
X118934586Y-92372965D01*
X118911482Y-92376748D01*
X118875310Y-92372662D01*
X118845002Y-92359654D01*
X118830753Y-92330675D01*
X118840209Y-92285039D01*
X118849254Y-92274663D01*
X118878960Y-92263424D01*
X118914090Y-92261693D01*
X118939888Y-92271478D01*
G37*
G36*
X115003938Y-92137721D02*
G01*
X115018596Y-92142959D01*
X115030209Y-92159078D01*
X115027296Y-92192758D01*
X115022340Y-92217989D01*
X115013261Y-92241307D01*
X114994674Y-92246577D01*
X114956701Y-92240477D01*
X114926417Y-92232846D01*
X114908266Y-92217727D01*
X114904143Y-92188438D01*
X114904270Y-92183992D01*
X114918321Y-92149501D01*
X114952856Y-92133411D01*
X115003938Y-92137721D01*
G37*
G36*
X115726605Y-87373980D02*
G01*
X115751456Y-87391532D01*
X115763653Y-87414822D01*
X115761726Y-87428678D01*
X115745867Y-87463202D01*
X115721112Y-87492371D01*
X115696126Y-87504655D01*
X115684229Y-87502357D01*
X115653093Y-87482115D01*
X115626636Y-87450245D01*
X115615461Y-87418119D01*
X115621181Y-87398269D01*
X115647437Y-87375787D01*
X115685940Y-87366355D01*
X115726605Y-87373980D01*
G37*
G36*
X115765616Y-88559531D02*
G01*
X115776719Y-88573160D01*
X115778472Y-88606912D01*
X115778103Y-88623585D01*
X115770500Y-88657877D01*
X115748263Y-88670292D01*
X115705109Y-88665881D01*
X115678579Y-88658801D01*
X115663197Y-88643153D01*
X115662835Y-88610376D01*
X115669038Y-88579664D01*
X115685899Y-88565376D01*
X115722900Y-88559624D01*
X115736401Y-88558567D01*
X115765616Y-88559531D01*
G37*
G36*
X120384707Y-102470636D02*
G01*
X120397908Y-102482226D01*
X120405383Y-102508659D01*
X120404371Y-102555846D01*
X120400320Y-102592758D01*
X120387867Y-102636135D01*
X120365425Y-102658370D01*
X120329430Y-102664632D01*
X120277748Y-102654226D01*
X120241032Y-102625150D01*
X120224944Y-102584198D01*
X120232062Y-102538196D01*
X120264965Y-102493970D01*
X120292290Y-102473464D01*
X120338459Y-102458387D01*
X120384707Y-102470636D01*
G37*
G36*
X115423430Y-101518975D02*
G01*
X115458989Y-101564684D01*
X115474459Y-101597654D01*
X115481496Y-101621773D01*
X115470758Y-101646671D01*
X115435091Y-101668682D01*
X115379078Y-101682424D01*
X115344567Y-101684846D01*
X115303275Y-101674831D01*
X115281176Y-101644157D01*
X115274621Y-101589579D01*
X115274748Y-101574013D01*
X115278777Y-101540298D01*
X115293531Y-101522167D01*
X115325762Y-101508979D01*
X115379657Y-101501068D01*
X115423430Y-101518975D01*
G37*
G36*
X115005596Y-91775023D02*
G01*
X115052154Y-91812751D01*
X115067207Y-91836709D01*
X115080537Y-91881795D01*
X115076809Y-91922292D01*
X115055766Y-91948560D01*
X115023633Y-91963294D01*
X114960659Y-91975868D01*
X114908895Y-91963121D01*
X114871321Y-91926248D01*
X114850913Y-91866442D01*
X114848652Y-91850860D01*
X114847504Y-91817721D01*
X114859145Y-91798103D01*
X114888712Y-91780293D01*
X114889611Y-91779831D01*
X114949403Y-91763651D01*
X115005596Y-91775023D01*
G37*
G36*
X116159104Y-88817164D02*
G01*
X116199500Y-88839989D01*
X116217592Y-88855675D01*
X116233532Y-88882294D01*
X116231642Y-88917654D01*
X116230187Y-88924246D01*
X116204697Y-88979881D01*
X116162601Y-89017318D01*
X116109841Y-89031026D01*
X116078634Y-89027506D01*
X116053286Y-89011133D01*
X116036346Y-88976251D01*
X116023595Y-88917296D01*
X116020204Y-88876325D01*
X116030327Y-88849237D01*
X116059463Y-88831536D01*
X116112875Y-88817325D01*
X116117189Y-88816455D01*
X116159104Y-88817164D01*
G37*
G36*
X115402565Y-84277674D02*
G01*
X115435218Y-84310646D01*
X115449553Y-84328002D01*
X115472880Y-84362229D01*
X115482089Y-84385401D01*
X115480985Y-84393684D01*
X115461234Y-84420617D01*
X115423785Y-84441067D01*
X115377849Y-84452433D01*
X115332638Y-84452117D01*
X115297363Y-84437520D01*
X115294803Y-84435100D01*
X115280374Y-84404389D01*
X115275048Y-84361372D01*
X115279206Y-84319421D01*
X115293228Y-84291909D01*
X115313801Y-84279905D01*
X115350091Y-84266865D01*
X115376765Y-84264802D01*
X115402565Y-84277674D01*
G37*
G36*
X119535123Y-91907318D02*
G01*
X119546663Y-91910727D01*
X119587786Y-91925861D01*
X119614373Y-91940135D01*
X119627245Y-91966980D01*
X119625578Y-92008501D01*
X119610838Y-92054031D01*
X119584994Y-92093303D01*
X119554688Y-92117229D01*
X119509683Y-92128367D01*
X119467602Y-92114569D01*
X119433996Y-92078172D01*
X119414418Y-92021512D01*
X119412827Y-92009918D01*
X119416378Y-91968554D01*
X119440985Y-91930598D01*
X119448404Y-91922264D01*
X119471323Y-91902277D01*
X119495815Y-91898387D01*
X119535123Y-91907318D01*
G37*
G36*
X115997722Y-86832967D02*
G01*
X116006675Y-86836777D01*
X116046282Y-86855878D01*
X116072599Y-86871997D01*
X116083461Y-86893298D01*
X116085027Y-86932540D01*
X116075992Y-86975840D01*
X116057657Y-87011080D01*
X116030908Y-87034496D01*
X115976561Y-87051442D01*
X115910429Y-87043088D01*
X115852568Y-87025752D01*
X115852568Y-86935022D01*
X115852572Y-86927828D01*
X115853725Y-86880384D01*
X115859317Y-86853330D01*
X115872817Y-86838383D01*
X115897693Y-86827259D01*
X115915986Y-86821312D01*
X115953052Y-86819030D01*
X115997722Y-86832967D01*
G37*
G36*
X115971987Y-108549988D02*
G01*
X116017316Y-108570939D01*
X116033243Y-108579385D01*
X116075687Y-108609291D01*
X116089674Y-108636029D01*
X116087170Y-108662744D01*
X116064511Y-108720706D01*
X116023412Y-108763791D01*
X116020393Y-108765745D01*
X115992834Y-108779103D01*
X115963328Y-108780281D01*
X115919017Y-108770050D01*
X115852568Y-108751445D01*
X115852568Y-108660296D01*
X115852575Y-108650856D01*
X115853787Y-108604222D01*
X115859540Y-108577674D01*
X115873357Y-108562930D01*
X115898763Y-108551709D01*
X115911503Y-108547265D01*
X115940513Y-108542712D01*
X115971987Y-108549988D01*
G37*
G36*
X120915056Y-80684907D02*
G01*
X120922412Y-80702195D01*
X120928124Y-80736522D01*
X120932871Y-80792088D01*
X120937335Y-80873092D01*
X120939508Y-80918168D01*
X120947340Y-81073925D01*
X120954375Y-81201839D01*
X120960717Y-81303325D01*
X120966468Y-81379796D01*
X120971732Y-81432667D01*
X120976612Y-81463353D01*
X120981212Y-81473267D01*
X120984340Y-81472272D01*
X121003436Y-81456166D01*
X121029176Y-81426608D01*
X121062048Y-81394232D01*
X121089527Y-81389095D01*
X121100906Y-81398212D01*
X121108500Y-81420099D01*
X121112314Y-81460117D01*
X121113361Y-81523995D01*
X121113755Y-81559554D01*
X121118568Y-81627663D01*
X121130839Y-81686586D01*
X121153043Y-81750452D01*
X121170798Y-81802360D01*
X121187096Y-81868422D01*
X121193665Y-81922339D01*
X121194017Y-81952583D01*
X121197027Y-81974983D01*
X121207614Y-81984257D01*
X121230793Y-81981010D01*
X121271579Y-81965847D01*
X121334987Y-81939371D01*
X121386408Y-81919792D01*
X121444194Y-81901584D01*
X121488538Y-81891621D01*
X121546425Y-81883856D01*
X121536184Y-81930487D01*
X121535419Y-81934152D01*
X121532918Y-81964616D01*
X121539147Y-81977118D01*
X121547644Y-81976166D01*
X121583764Y-81968515D01*
X121640096Y-81954440D01*
X121711124Y-81935437D01*
X121791334Y-81913000D01*
X121875210Y-81888624D01*
X121957236Y-81863803D01*
X122009301Y-81847829D01*
X122067270Y-81831242D01*
X122109306Y-81822101D01*
X122142726Y-81819428D01*
X122174847Y-81822242D01*
X122212985Y-81829564D01*
X122228704Y-81832783D01*
X122259919Y-81837979D01*
X122291574Y-81840690D01*
X122326816Y-81840403D01*
X122368795Y-81836606D01*
X122420658Y-81828785D01*
X122485554Y-81816428D01*
X122566631Y-81799022D01*
X122667038Y-81776054D01*
X122789924Y-81747011D01*
X122938436Y-81711379D01*
X123029333Y-81689656D01*
X123142237Y-81663145D01*
X123244595Y-81639633D01*
X123332760Y-81619933D01*
X123403083Y-81604856D01*
X123451917Y-81595214D01*
X123475613Y-81591820D01*
X123481762Y-81591916D01*
X123507455Y-81598317D01*
X123511249Y-81617709D01*
X123504253Y-81629595D01*
X123470265Y-81652660D01*
X123410461Y-81677744D01*
X123360737Y-81696907D01*
X123317180Y-81716470D01*
X123292102Y-81731135D01*
X123287553Y-81734374D01*
X123256762Y-81749976D01*
X123208484Y-81770094D01*
X123150992Y-81791207D01*
X123092062Y-81812385D01*
X123014930Y-81841982D01*
X122933348Y-81874864D01*
X122851899Y-81909029D01*
X122775165Y-81942473D01*
X122707728Y-81973193D01*
X122654170Y-81999187D01*
X122619073Y-82018452D01*
X122607020Y-82028984D01*
X122612890Y-82034566D01*
X122641017Y-82043039D01*
X122683995Y-82048283D01*
X122684343Y-82048304D01*
X122734083Y-82055095D01*
X122755562Y-82069158D01*
X122749730Y-82092750D01*
X122717533Y-82128127D01*
X122715414Y-82130057D01*
X122662992Y-82163454D01*
X122584839Y-82194394D01*
X122484639Y-82221403D01*
X122478088Y-82223080D01*
X122424553Y-82247547D01*
X122360139Y-82291680D01*
X122290168Y-82351429D01*
X122219958Y-82422750D01*
X122198497Y-82445873D01*
X122151995Y-82489262D01*
X122106992Y-82518298D01*
X122052941Y-82540414D01*
X122044999Y-82543217D01*
X121994203Y-82563416D01*
X121926543Y-82592779D01*
X121849895Y-82627809D01*
X121772138Y-82665012D01*
X121736449Y-82682488D01*
X121670369Y-82714250D01*
X121622798Y-82735265D01*
X121588126Y-82747237D01*
X121560742Y-82751867D01*
X121535035Y-82750855D01*
X121505393Y-82745904D01*
X121501383Y-82745159D01*
X121442147Y-82738490D01*
X121380386Y-82741172D01*
X121307923Y-82754120D01*
X121216580Y-82778251D01*
X121119741Y-82806344D01*
X121102168Y-83025249D01*
X121090441Y-83144131D01*
X121065412Y-83305470D01*
X121031444Y-83442635D01*
X120987969Y-83558272D01*
X120974907Y-83590477D01*
X120962322Y-83650514D01*
X120971419Y-83694575D01*
X121001995Y-83720331D01*
X121002405Y-83720493D01*
X121019949Y-83743060D01*
X121023083Y-83789278D01*
X121011950Y-83857016D01*
X120986698Y-83944143D01*
X120986236Y-83945519D01*
X120967066Y-84007151D01*
X120960816Y-84046523D01*
X120969455Y-84068833D01*
X120974649Y-84070962D01*
X120994949Y-84079281D01*
X121039265Y-84083064D01*
X121050009Y-84083331D01*
X121091993Y-84083683D01*
X121156200Y-84083762D01*
X121237611Y-84083575D01*
X121331208Y-84083130D01*
X121431972Y-84082435D01*
X121522534Y-84082037D01*
X121639270Y-84083058D01*
X121730978Y-84086417D01*
X121800425Y-84092516D01*
X121850376Y-84101762D01*
X121883598Y-84114558D01*
X121902858Y-84131308D01*
X121910920Y-84152416D01*
X121909070Y-84176420D01*
X121888692Y-84185396D01*
X121885029Y-84185449D01*
X121870638Y-84188574D01*
X121883956Y-84199988D01*
X121907211Y-84211415D01*
X121928457Y-84208622D01*
X121951670Y-84186752D01*
X121982879Y-84142289D01*
X121999549Y-84119435D01*
X122053205Y-84062630D01*
X122115883Y-84012888D01*
X122133118Y-84000904D01*
X122228148Y-83916499D01*
X122317336Y-83804648D01*
X122401451Y-83664412D01*
X122409953Y-83648797D01*
X122452695Y-83578747D01*
X122500869Y-83509794D01*
X122545586Y-83454861D01*
X122595239Y-83398712D01*
X122696731Y-83270841D01*
X122788282Y-83137886D01*
X122865066Y-83007137D01*
X122922254Y-82885887D01*
X122967461Y-82779128D01*
X123023416Y-82657949D01*
X123082624Y-82538971D01*
X123140789Y-82430803D01*
X123193615Y-82342056D01*
X123220885Y-82302573D01*
X123252374Y-82269175D01*
X123278722Y-82258681D01*
X123281516Y-82258704D01*
X123299986Y-82262827D01*
X123305915Y-82279730D01*
X123302601Y-82317541D01*
X123300972Y-82327286D01*
X123284681Y-82381385D01*
X123260309Y-82432057D01*
X123255215Y-82441032D01*
X123234456Y-82487876D01*
X123212585Y-82549721D01*
X123193571Y-82615652D01*
X123159387Y-82733359D01*
X123103170Y-82890208D01*
X123034900Y-83052312D01*
X122958608Y-83210222D01*
X122878326Y-83354488D01*
X122869659Y-83368938D01*
X122813009Y-83467200D01*
X122765824Y-83555832D01*
X122729901Y-83631111D01*
X122707031Y-83689312D01*
X122699009Y-83726712D01*
X122699039Y-83727711D01*
X122708993Y-83734750D01*
X122733132Y-83723886D01*
X122766159Y-83699067D01*
X122777343Y-83688430D01*
X122850366Y-83688430D01*
X122852140Y-83706017D01*
X122856597Y-83708335D01*
X122862019Y-83696137D01*
X122860950Y-83688292D01*
X122852140Y-83686258D01*
X122850366Y-83688430D01*
X122777343Y-83688430D01*
X122802774Y-83664244D01*
X122837680Y-83623364D01*
X122851076Y-83606148D01*
X122852140Y-83604986D01*
X122889151Y-83564579D01*
X122915629Y-83549776D01*
X122931090Y-83561599D01*
X122936115Y-83599912D01*
X122932249Y-83626979D01*
X122915523Y-83674488D01*
X122884289Y-83739741D01*
X122837158Y-83825904D01*
X122810087Y-83874482D01*
X122766072Y-83956638D01*
X122720899Y-84044089D01*
X122677671Y-84130589D01*
X122639491Y-84209893D01*
X122609461Y-84275757D01*
X122590685Y-84321937D01*
X122589485Y-84326505D01*
X122597483Y-84353182D01*
X122631518Y-84385619D01*
X122657531Y-84402189D01*
X122691519Y-84416416D01*
X122738632Y-84429600D01*
X122804306Y-84443257D01*
X122893974Y-84458907D01*
X123003215Y-84476805D01*
X123090870Y-84490260D01*
X123161236Y-84499321D01*
X123220310Y-84504318D01*
X123274092Y-84505581D01*
X123328581Y-84503441D01*
X123389774Y-84498227D01*
X123463670Y-84490270D01*
X123465701Y-84490043D01*
X123555862Y-84480836D01*
X123649430Y-84472722D01*
X123735466Y-84466570D01*
X123803034Y-84463252D01*
X123858156Y-84461930D01*
X123900862Y-84462520D01*
X123924374Y-84466473D01*
X123934340Y-84474874D01*
X123936406Y-84488802D01*
X123934875Y-84499571D01*
X123922633Y-84513878D01*
X123893047Y-84525661D01*
X123840082Y-84538004D01*
X123815444Y-84543268D01*
X123754387Y-84557088D01*
X123676361Y-84575376D01*
X123588827Y-84596373D01*
X123499242Y-84618323D01*
X123471832Y-84625073D01*
X123377468Y-84647270D01*
X123303307Y-84662390D01*
X123242762Y-84671472D01*
X123189247Y-84675558D01*
X123136173Y-84675689D01*
X123109658Y-84675291D01*
X123024714Y-84680012D01*
X122965753Y-84694407D01*
X122913886Y-84716356D01*
X122958343Y-84732317D01*
X122963927Y-84734339D01*
X123013589Y-84755298D01*
X123040906Y-84775091D01*
X123052050Y-84798047D01*
X123052477Y-84803507D01*
X123047269Y-84811846D01*
X123030278Y-84817326D01*
X122997041Y-84820526D01*
X122943096Y-84822021D01*
X122863980Y-84822392D01*
X122794043Y-84823178D01*
X122725697Y-84826185D01*
X122680420Y-84831207D01*
X122661478Y-84837992D01*
X122656432Y-84842789D01*
X122629044Y-84860221D01*
X122584442Y-84884469D01*
X122529262Y-84911828D01*
X122503246Y-84924448D01*
X122450525Y-84951727D01*
X122410619Y-84974708D01*
X122390619Y-84989424D01*
X122384271Y-85000408D01*
X122367411Y-85036264D01*
X122343452Y-85091171D01*
X122314586Y-85160071D01*
X122283005Y-85237904D01*
X122263319Y-85286682D01*
X122195274Y-85447144D01*
X122132280Y-85582533D01*
X122074749Y-85692109D01*
X122023090Y-85775132D01*
X121977715Y-85830861D01*
X121939033Y-85858557D01*
X121935996Y-85859815D01*
X121897840Y-85885875D01*
X121846537Y-85934995D01*
X121783889Y-86004973D01*
X121711697Y-86093604D01*
X121631764Y-86198685D01*
X121545891Y-86318013D01*
X121455881Y-86449384D01*
X121394632Y-86546466D01*
X121318092Y-86693422D01*
X121264382Y-86837319D01*
X121231049Y-86983992D01*
X121228832Y-86997210D01*
X121219606Y-87038563D01*
X121205609Y-87077372D01*
X121183599Y-87120208D01*
X121150330Y-87173642D01*
X121102559Y-87244244D01*
X121025886Y-87354179D01*
X120926108Y-87492446D01*
X120838407Y-87607569D01*
X120761491Y-87701223D01*
X120694071Y-87775089D01*
X120684374Y-87785087D01*
X120636228Y-87836114D01*
X120576983Y-87900481D01*
X120513248Y-87970955D01*
X120451632Y-88040307D01*
X120397497Y-88099918D01*
X120315712Y-88182990D01*
X120237232Y-88254847D01*
X120165720Y-88312398D01*
X120104840Y-88352554D01*
X120058255Y-88372222D01*
X120044470Y-88376979D01*
X120004899Y-88396518D01*
X119952893Y-88426542D01*
X119896041Y-88462813D01*
X119800098Y-88523510D01*
X119605890Y-88627144D01*
X119405411Y-88710567D01*
X119203475Y-88772171D01*
X119004901Y-88810351D01*
X118814505Y-88823499D01*
X118755465Y-88825178D01*
X118707948Y-88831910D01*
X118684314Y-88844231D01*
X118682492Y-88846824D01*
X118687115Y-88860602D01*
X118716403Y-88870305D01*
X118766324Y-88876021D01*
X118832846Y-88877838D01*
X118911938Y-88875842D01*
X118999568Y-88870120D01*
X119091705Y-88860761D01*
X119184316Y-88847851D01*
X119273370Y-88831477D01*
X119317157Y-88822652D01*
X119382884Y-88812230D01*
X119429040Y-88810489D01*
X119461407Y-88817477D01*
X119485769Y-88833242D01*
X119494679Y-88840430D01*
X119509575Y-88846953D01*
X119531546Y-88848371D01*
X119566042Y-88844284D01*
X119618511Y-88834295D01*
X119694404Y-88818006D01*
X119789387Y-88797658D01*
X119875671Y-88780725D01*
X119940642Y-88770573D01*
X119988273Y-88766926D01*
X120022539Y-88769512D01*
X120047411Y-88778054D01*
X120066865Y-88792280D01*
X120076191Y-88800740D01*
X120094962Y-88813186D01*
X120118153Y-88817945D01*
X120154031Y-88815919D01*
X120210861Y-88808013D01*
X120235330Y-88804041D01*
X120308264Y-88790288D01*
X120390584Y-88772812D01*
X120468729Y-88754429D01*
X120489128Y-88749502D01*
X120566152Y-88732708D01*
X120659271Y-88714352D01*
X120758543Y-88696341D01*
X120854026Y-88680579D01*
X120888030Y-88675228D01*
X120983443Y-88659518D01*
X121077406Y-88643168D01*
X121160625Y-88627823D01*
X121223811Y-88615128D01*
X121228391Y-88614139D01*
X121304327Y-88598192D01*
X121355947Y-88589291D01*
X121387607Y-88587849D01*
X121403660Y-88594275D01*
X121408462Y-88608984D01*
X121406366Y-88632385D01*
X121399625Y-88678317D01*
X121493673Y-88668245D01*
X121519407Y-88665003D01*
X121586048Y-88654358D01*
X121663426Y-88639916D01*
X121739543Y-88623845D01*
X121891366Y-88589516D01*
X121986367Y-88620489D01*
X122081369Y-88651463D01*
X122216064Y-88616172D01*
X122240778Y-88610038D01*
X122310485Y-88595816D01*
X122374438Y-88586696D01*
X122421331Y-88584426D01*
X122460821Y-88582867D01*
X122518948Y-88572659D01*
X122595754Y-88552566D01*
X122695485Y-88521614D01*
X122799162Y-88488665D01*
X122927206Y-88450672D01*
X123038284Y-88420994D01*
X123130260Y-88400104D01*
X123200996Y-88388472D01*
X123248356Y-88386570D01*
X123270204Y-88394869D01*
X123272827Y-88402425D01*
X123263382Y-88427815D01*
X123233787Y-88455456D01*
X123190089Y-88480598D01*
X123138336Y-88498490D01*
X123133005Y-88499812D01*
X123079525Y-88517020D01*
X123014546Y-88542759D01*
X122950934Y-88571983D01*
X122932331Y-88581219D01*
X122841990Y-88624825D01*
X122746161Y-88669367D01*
X122651244Y-88712009D01*
X122563639Y-88749914D01*
X122489747Y-88780247D01*
X122435969Y-88800172D01*
X122415695Y-88807374D01*
X122374028Y-88828044D01*
X122360536Y-88846592D01*
X122375509Y-88861764D01*
X122419239Y-88872305D01*
X122455955Y-88878833D01*
X122491867Y-88893479D01*
X122500484Y-88914490D01*
X122483075Y-88943279D01*
X122445478Y-88976325D01*
X122384899Y-89004847D01*
X122303610Y-89020726D01*
X122233463Y-89035229D01*
X122134610Y-89077140D01*
X122046426Y-89139168D01*
X121977573Y-89216120D01*
X121970246Y-89226000D01*
X121937385Y-89257078D01*
X121889438Y-89285548D01*
X121822823Y-89312957D01*
X121733954Y-89340850D01*
X121619247Y-89370775D01*
X121550314Y-89387408D01*
X121464083Y-89407098D01*
X121399045Y-89419802D01*
X121350702Y-89426021D01*
X121314557Y-89426258D01*
X121286112Y-89421016D01*
X121260870Y-89410795D01*
X121233956Y-89399206D01*
X121209674Y-89396348D01*
X121181891Y-89404644D01*
X121143767Y-89426163D01*
X121088462Y-89462975D01*
X121083742Y-89466127D01*
X121027493Y-89494634D01*
X120977021Y-89505239D01*
X120974651Y-89505271D01*
X120934045Y-89509931D01*
X120877568Y-89520953D01*
X120816680Y-89536131D01*
X120751350Y-89552968D01*
X120678169Y-89569489D01*
X120616920Y-89581058D01*
X120581802Y-89587333D01*
X120483329Y-89610013D01*
X120367783Y-89642248D01*
X120242064Y-89682037D01*
X120113069Y-89727375D01*
X120033376Y-89754532D01*
X119935265Y-89779217D01*
X119838915Y-89791925D01*
X119802284Y-89795538D01*
X119721602Y-89806605D01*
X119633180Y-89821700D01*
X119550475Y-89838644D01*
X119508108Y-89847755D01*
X119382393Y-89867814D01*
X119276106Y-89873472D01*
X119265188Y-89873313D01*
X119188335Y-89876800D01*
X119129310Y-89891536D01*
X119078326Y-89921285D01*
X119025599Y-89969809D01*
X119007273Y-89987957D01*
X118976164Y-90010744D01*
X118939331Y-90023047D01*
X118884818Y-90029978D01*
X118822316Y-90035502D01*
X118710058Y-90045584D01*
X118621305Y-90054098D01*
X118551974Y-90061762D01*
X118497982Y-90069294D01*
X118455245Y-90077411D01*
X118419679Y-90086831D01*
X118387202Y-90098271D01*
X118353728Y-90112450D01*
X118315176Y-90130084D01*
X118191459Y-90185840D01*
X118056319Y-90243897D01*
X117926832Y-90296739D01*
X117809886Y-90341559D01*
X117712369Y-90375552D01*
X117578997Y-90418674D01*
X117223338Y-90407833D01*
X117167461Y-90406046D01*
X117063199Y-90402276D01*
X116966248Y-90398239D01*
X116882188Y-90394192D01*
X116816599Y-90390393D01*
X116775059Y-90387100D01*
X116682439Y-90377209D01*
X116682439Y-90424277D01*
X116680837Y-90446707D01*
X116674972Y-90496052D01*
X116665569Y-90564072D01*
X116653435Y-90644971D01*
X116639380Y-90732953D01*
X116628703Y-90799268D01*
X116614737Y-90890490D01*
X116602757Y-90973838D01*
X116593775Y-91042200D01*
X116588802Y-91088465D01*
X116587360Y-91106715D01*
X116584943Y-91149664D01*
X116587593Y-91171062D01*
X116597252Y-91177030D01*
X116615864Y-91173688D01*
X116650207Y-91169603D01*
X116686400Y-91184361D01*
X116712647Y-91225634D01*
X116718352Y-91238369D01*
X116729078Y-91253307D01*
X116745587Y-91261017D01*
X116772426Y-91261322D01*
X116814138Y-91254047D01*
X116875269Y-91239015D01*
X116960363Y-91216052D01*
X117082686Y-91182568D01*
X117091637Y-91218233D01*
X117099756Y-91241406D01*
X117110096Y-91253833D01*
X117124545Y-91246356D01*
X117155900Y-91225236D01*
X117196766Y-91195267D01*
X117242797Y-91161863D01*
X117298281Y-91127298D01*
X117355459Y-91099949D01*
X117419907Y-91077987D01*
X117497202Y-91059584D01*
X117592920Y-91042913D01*
X117712637Y-91026144D01*
X117784751Y-91015036D01*
X117888270Y-90992197D01*
X117970569Y-90964767D01*
X118020716Y-90945712D01*
X118086199Y-90925352D01*
X118140989Y-90912899D01*
X118190217Y-90902532D01*
X118255951Y-90884479D01*
X118320266Y-90863327D01*
X118396696Y-90839365D01*
X118490521Y-90816317D01*
X118588178Y-90797327D01*
X118660356Y-90787094D01*
X123602976Y-90787094D01*
X123610385Y-90794504D01*
X123617795Y-90787094D01*
X123610385Y-90779685D01*
X123602976Y-90787094D01*
X118660356Y-90787094D01*
X118679111Y-90784435D01*
X118752765Y-90779685D01*
X118757872Y-90779501D01*
X118797454Y-90774065D01*
X118858932Y-90761984D01*
X118936860Y-90744468D01*
X119003626Y-90728147D01*
X119025795Y-90722728D01*
X119120291Y-90697974D01*
X119293268Y-90651786D01*
X119525706Y-90592015D01*
X119740915Y-90539456D01*
X119937092Y-90494503D01*
X120112433Y-90457548D01*
X120265133Y-90428984D01*
X120393390Y-90409203D01*
X120495400Y-90398598D01*
X120533487Y-90396243D01*
X120585315Y-90394721D01*
X120619876Y-90397764D01*
X120645103Y-90406432D01*
X120668925Y-90421784D01*
X120669909Y-90422502D01*
X120714382Y-90444501D01*
X120760806Y-90453515D01*
X120774084Y-90452845D01*
X120816521Y-90449519D01*
X120883003Y-90443681D01*
X120970259Y-90435640D01*
X121075019Y-90425702D01*
X121194011Y-90414177D01*
X121323965Y-90401370D01*
X121461611Y-90387591D01*
X121467716Y-90386977D01*
X122358168Y-90386977D01*
X122358812Y-90397105D01*
X122363993Y-90409206D01*
X122367828Y-90406476D01*
X122378347Y-90386977D01*
X122380676Y-90375611D01*
X122372522Y-90364749D01*
X122365924Y-90367253D01*
X122358168Y-90386977D01*
X121467716Y-90386977D01*
X121539309Y-90379777D01*
X121679165Y-90365833D01*
X121783729Y-90355522D01*
X121812637Y-90352671D01*
X121935877Y-90340665D01*
X122045034Y-90330184D01*
X122136256Y-90321601D01*
X122205695Y-90315286D01*
X122249499Y-90311610D01*
X122372522Y-90302369D01*
X122385346Y-90301406D01*
X122394065Y-90158952D01*
X122400569Y-90057593D01*
X122412974Y-89891026D01*
X122425908Y-89752600D01*
X122439552Y-89641341D01*
X122454089Y-89556275D01*
X122469699Y-89496429D01*
X122486566Y-89460828D01*
X122504870Y-89448499D01*
X122524793Y-89458468D01*
X122529347Y-89466592D01*
X122537768Y-89505292D01*
X122544737Y-89573193D01*
X122550243Y-89670022D01*
X122554270Y-89795507D01*
X122556806Y-89949374D01*
X122557837Y-90131352D01*
X122558227Y-90409216D01*
X122617503Y-90408952D01*
X122628935Y-90408617D01*
X122678371Y-90404544D01*
X122742408Y-90396846D01*
X122810152Y-90386775D01*
X122854612Y-90379711D01*
X122934029Y-90369442D01*
X122995101Y-90366612D01*
X123045033Y-90371669D01*
X123091031Y-90385060D01*
X123140300Y-90407230D01*
X123145415Y-90409785D01*
X123175788Y-90424180D01*
X123204075Y-90434811D01*
X123235563Y-90442417D01*
X123275538Y-90447735D01*
X123329285Y-90451504D01*
X123402091Y-90454462D01*
X123499242Y-90457346D01*
X123504147Y-90457483D01*
X123601319Y-90459934D01*
X123675868Y-90460804D01*
X123734495Y-90459583D01*
X123783902Y-90455765D01*
X123830790Y-90448840D01*
X123881861Y-90438302D01*
X123943816Y-90423641D01*
X123961019Y-90419479D01*
X124092492Y-90388422D01*
X124215875Y-90360554D01*
X124327731Y-90336567D01*
X124424623Y-90317154D01*
X124503112Y-90303005D01*
X124559762Y-90294815D01*
X124591134Y-90293275D01*
X124619640Y-90301795D01*
X124632906Y-90319867D01*
X124623503Y-90331670D01*
X124587639Y-90351193D01*
X124524314Y-90377011D01*
X124432848Y-90409430D01*
X124345402Y-90440159D01*
X124245786Y-90477108D01*
X124149811Y-90514416D01*
X124069779Y-90547408D01*
X123975587Y-90585067D01*
X123861447Y-90620697D01*
X123739313Y-90646665D01*
X123671874Y-90658986D01*
X123593189Y-90676183D01*
X123543089Y-90691902D01*
X123520988Y-90706637D01*
X123526305Y-90720879D01*
X123558455Y-90735118D01*
X123610385Y-90748215D01*
X123616856Y-90749847D01*
X123658553Y-90759353D01*
X123687044Y-90769192D01*
X123696112Y-90780260D01*
X123691144Y-90795899D01*
X123685940Y-90803675D01*
X123663757Y-90820876D01*
X123625900Y-90835112D01*
X123568878Y-90847203D01*
X123489201Y-90857970D01*
X123383378Y-90868234D01*
X123345851Y-90871744D01*
X123220715Y-90889118D01*
X123121260Y-90913479D01*
X123044837Y-90945620D01*
X122988796Y-90986335D01*
X122975524Y-90998373D01*
X122948905Y-91016383D01*
X122914374Y-91030175D01*
X122864754Y-91042270D01*
X122792865Y-91055193D01*
X122748003Y-91062963D01*
X122689731Y-91074138D01*
X122646698Y-91083728D01*
X122625931Y-91090257D01*
X122622992Y-91093538D01*
X122612126Y-91120078D01*
X122599753Y-91165871D01*
X122588018Y-91223389D01*
X122579615Y-91273981D01*
X122574354Y-91322516D01*
X122575197Y-91365753D01*
X122582524Y-91415037D01*
X122596719Y-91481714D01*
X122627059Y-91616966D01*
X122563171Y-91930803D01*
X122555819Y-91967375D01*
X122538659Y-92056838D01*
X122524861Y-92134811D01*
X122515131Y-92196922D01*
X122510174Y-92238795D01*
X122510697Y-92256056D01*
X122516006Y-92258448D01*
X122544141Y-92258096D01*
X122584627Y-92249558D01*
X122674087Y-92224428D01*
X122814041Y-92187383D01*
X122938009Y-92157510D01*
X123043970Y-92135178D01*
X123129903Y-92120756D01*
X123193785Y-92114612D01*
X123233597Y-92117116D01*
X123247317Y-92128636D01*
X123247131Y-92131951D01*
X123232641Y-92163131D01*
X123203592Y-92190545D01*
X123172105Y-92202322D01*
X123147044Y-92206713D01*
X123099437Y-92220819D01*
X123035327Y-92242878D01*
X122959148Y-92271075D01*
X122875331Y-92303593D01*
X122788308Y-92338614D01*
X122702514Y-92374321D01*
X122622378Y-92408896D01*
X122552335Y-92440524D01*
X122496817Y-92467387D01*
X122460255Y-92487668D01*
X122447083Y-92499549D01*
X122452512Y-92507089D01*
X122478056Y-92525406D01*
X122517474Y-92547236D01*
X122546772Y-92562877D01*
X122582935Y-92589445D01*
X122590203Y-92611176D01*
X122568582Y-92629207D01*
X122518080Y-92644676D01*
X122476119Y-92655785D01*
X122411879Y-92677905D01*
X122351486Y-92703755D01*
X122303236Y-92729668D01*
X122275423Y-92751976D01*
X122274722Y-92752921D01*
X122259530Y-92780300D01*
X122236302Y-92829776D01*
X122207229Y-92896057D01*
X122174505Y-92973847D01*
X122140320Y-93057851D01*
X122106868Y-93142776D01*
X122076339Y-93223326D01*
X122050927Y-93294207D01*
X122031701Y-93350902D01*
X122014801Y-93406262D01*
X122004504Y-93453214D01*
X121999371Y-93501265D01*
X121997966Y-93559925D01*
X121998850Y-93638703D01*
X121999496Y-93680327D01*
X121999604Y-93735595D01*
X121997663Y-93782243D01*
X121992632Y-93826449D01*
X121983472Y-93874393D01*
X121969143Y-93932254D01*
X121948605Y-94006212D01*
X121920818Y-94102447D01*
X121894980Y-94189271D01*
X121783692Y-94519839D01*
X121659523Y-94824404D01*
X121522569Y-95102783D01*
X121372927Y-95354791D01*
X121210694Y-95580247D01*
X121035966Y-95778965D01*
X120928122Y-95889399D01*
X121054084Y-95928873D01*
X121096784Y-95942873D01*
X121284080Y-96019248D01*
X121460777Y-96115442D01*
X121623177Y-96228630D01*
X121767584Y-96355990D01*
X121890299Y-96494696D01*
X121987627Y-96641926D01*
X122061535Y-96785319D01*
X122137075Y-96964475D01*
X122188350Y-97132902D01*
X122214939Y-97289154D01*
X122216425Y-97431784D01*
X122214990Y-97447692D01*
X122210307Y-97484739D01*
X122202917Y-97521873D01*
X122191560Y-97561984D01*
X122174977Y-97607962D01*
X122151907Y-97662697D01*
X122121092Y-97729081D01*
X122081271Y-97810002D01*
X122031184Y-97908352D01*
X121969573Y-98027021D01*
X121895177Y-98168899D01*
X121866468Y-98222772D01*
X121800602Y-98339478D01*
X121735382Y-98443247D01*
X121666106Y-98540436D01*
X121588072Y-98637404D01*
X121496577Y-98740511D01*
X121386917Y-98856114D01*
X121192767Y-99056172D01*
X121195880Y-99130268D01*
X121197301Y-99156500D01*
X121200691Y-99193638D01*
X121204339Y-99211128D01*
X121205035Y-99211524D01*
X121223686Y-99208229D01*
X121261416Y-99196068D01*
X121311028Y-99177321D01*
X121368549Y-99156516D01*
X121430533Y-99138070D01*
X121479414Y-99127561D01*
X121546456Y-99118372D01*
X121536199Y-99165073D01*
X121535440Y-99168663D01*
X121531944Y-99199227D01*
X121536095Y-99211773D01*
X121553014Y-99209221D01*
X121596497Y-99199104D01*
X121660245Y-99182435D01*
X121739729Y-99160445D01*
X121830422Y-99134362D01*
X121927792Y-99105418D01*
X121962436Y-99094971D01*
X122032282Y-99074430D01*
X122083009Y-99061257D01*
X122121217Y-99054538D01*
X122153505Y-99053356D01*
X122186471Y-99056797D01*
X122226715Y-99063944D01*
X122246176Y-99067570D01*
X122273251Y-99071941D01*
X122299779Y-99074460D01*
X122328694Y-99074613D01*
X122362931Y-99071888D01*
X122405427Y-99065771D01*
X122459116Y-99055750D01*
X122526933Y-99041312D01*
X122611813Y-99021944D01*
X122716692Y-98997132D01*
X122844505Y-98966365D01*
X122998187Y-98929128D01*
X123081598Y-98908961D01*
X123191327Y-98882626D01*
X123289652Y-98859250D01*
X123373096Y-98839651D01*
X123438180Y-98824642D01*
X123481429Y-98815039D01*
X123499363Y-98811657D01*
X123508717Y-98818576D01*
X123511387Y-98843663D01*
X123504188Y-98861457D01*
X123478301Y-98881861D01*
X123428645Y-98902107D01*
X123401188Y-98911961D01*
X123343002Y-98935520D01*
X123295273Y-98957995D01*
X123283973Y-98963641D01*
X123240727Y-98983200D01*
X123179096Y-99009488D01*
X123105576Y-99039764D01*
X123026660Y-99071290D01*
X123002874Y-99080688D01*
X122916262Y-99115566D01*
X122831219Y-99150702D01*
X122756445Y-99182468D01*
X122700639Y-99207236D01*
X122688084Y-99213065D01*
X122638811Y-99237142D01*
X122612899Y-99253157D01*
X122606933Y-99263750D01*
X122617503Y-99271561D01*
X122620305Y-99272634D01*
X122657254Y-99280880D01*
X122702713Y-99284827D01*
X122737148Y-99288932D01*
X122756734Y-99303809D01*
X122748730Y-99329421D01*
X122713125Y-99365691D01*
X122706774Y-99370676D01*
X122660119Y-99397737D01*
X122600198Y-99422971D01*
X122539718Y-99441608D01*
X122491392Y-99448879D01*
X122465917Y-99455261D01*
X122419324Y-99480922D01*
X122361987Y-99522926D01*
X122298656Y-99577712D01*
X122234081Y-99641721D01*
X122230436Y-99645578D01*
X122179088Y-99697207D01*
X122136939Y-99731972D01*
X122095421Y-99755955D01*
X122045964Y-99775238D01*
X122039852Y-99777358D01*
X121988480Y-99797621D01*
X121920291Y-99827336D01*
X121843448Y-99862849D01*
X121766115Y-99900506D01*
X121742055Y-99912549D01*
X121673894Y-99946150D01*
X121625023Y-99968510D01*
X121589925Y-99981361D01*
X121563081Y-99986430D01*
X121538975Y-99985449D01*
X121512089Y-99980147D01*
X121511041Y-99979909D01*
X121427854Y-99971831D01*
X121329632Y-99982447D01*
X121212721Y-100012147D01*
X121119752Y-100040862D01*
X121102174Y-100259836D01*
X121090061Y-100381982D01*
X121065022Y-100542093D01*
X121031089Y-100678361D01*
X120987653Y-100793619D01*
X120969434Y-100835222D01*
X120960005Y-100866734D01*
X120961659Y-100890691D01*
X120973216Y-100917205D01*
X120974570Y-100919774D01*
X120993968Y-100948574D01*
X121010008Y-100960431D01*
X121019384Y-100967360D01*
X121024239Y-100997207D01*
X121020149Y-101045659D01*
X121007680Y-101107300D01*
X120987398Y-101176713D01*
X120982930Y-101190063D01*
X120966355Y-101240379D01*
X120954733Y-101276930D01*
X120950350Y-101292567D01*
X120951774Y-101295950D01*
X120969114Y-101303428D01*
X121007517Y-101309190D01*
X121068692Y-101313328D01*
X121154349Y-101315934D01*
X121266198Y-101317098D01*
X121405948Y-101316912D01*
X121484173Y-101316678D01*
X121607465Y-101317465D01*
X121705357Y-101320082D01*
X121780579Y-101324823D01*
X121835860Y-101331981D01*
X121873930Y-101341847D01*
X121897518Y-101354715D01*
X121909356Y-101370877D01*
X121910332Y-101387578D01*
X121892905Y-101413122D01*
X121879176Y-101426001D01*
X121885363Y-101435911D01*
X121916431Y-101447617D01*
X121925281Y-101450322D01*
X121982742Y-101464277D01*
X122062645Y-101479749D01*
X122159166Y-101495757D01*
X122266483Y-101511321D01*
X122378773Y-101525460D01*
X122380950Y-101525714D01*
X122453647Y-101534884D01*
X122504240Y-101543793D01*
X122539977Y-101554619D01*
X122568104Y-101569542D01*
X122595868Y-101590741D01*
X122614444Y-101605816D01*
X122646092Y-101628085D01*
X122680059Y-101645553D01*
X122721761Y-101659929D01*
X122776616Y-101672920D01*
X122850039Y-101686232D01*
X122947447Y-101701575D01*
X122955728Y-101702834D01*
X123045951Y-101716109D01*
X123121227Y-101725681D01*
X123187902Y-101731628D01*
X123252319Y-101734028D01*
X123320826Y-101732958D01*
X123399766Y-101728495D01*
X123495486Y-101720716D01*
X123614329Y-101709698D01*
X123650542Y-101706299D01*
X123753180Y-101697403D01*
X123829896Y-101692193D01*
X123883359Y-101690568D01*
X123916238Y-101692427D01*
X123931203Y-101697667D01*
X123940276Y-101709797D01*
X123939117Y-101734089D01*
X123911814Y-101754120D01*
X123860742Y-101767535D01*
X123841527Y-101770933D01*
X123789410Y-101781869D01*
X123719286Y-101797858D01*
X123637916Y-101817341D01*
X123552066Y-101838757D01*
X123547663Y-101839877D01*
X123444457Y-101865081D01*
X123359692Y-101882960D01*
X123283900Y-101895032D01*
X123207610Y-101902815D01*
X123121354Y-101907828D01*
X123056463Y-101911040D01*
X122994591Y-101915581D01*
X122955331Y-101921059D01*
X122934697Y-101928082D01*
X122928705Y-101937259D01*
X122931289Y-101944062D01*
X122953717Y-101962318D01*
X122991687Y-101979247D01*
X123013906Y-101987464D01*
X123045341Y-102006640D01*
X123054668Y-102029955D01*
X123054619Y-102033087D01*
X123052548Y-102042641D01*
X123044513Y-102049475D01*
X123026569Y-102053955D01*
X122994772Y-102056444D01*
X122945176Y-102057308D01*
X122873837Y-102056910D01*
X122776809Y-102055614D01*
X122741395Y-102055105D01*
X122652637Y-102054097D01*
X122586796Y-102054249D01*
X122538829Y-102056045D01*
X122503694Y-102059968D01*
X122476348Y-102066502D01*
X122451749Y-102076128D01*
X122424855Y-102089331D01*
X122414169Y-102094710D01*
X122391217Y-102105161D01*
X122367233Y-102113280D01*
X122338131Y-102119500D01*
X122299826Y-102124255D01*
X122248233Y-102127978D01*
X122179267Y-102131103D01*
X122088841Y-102134063D01*
X121972871Y-102137292D01*
X121594983Y-102147479D01*
X121506068Y-102103681D01*
X121445220Y-102076556D01*
X121372700Y-102053024D01*
X121293325Y-102037892D01*
X121199607Y-102029804D01*
X121084058Y-102027409D01*
X120908023Y-102027409D01*
X120877687Y-102108488D01*
X120867604Y-102138318D01*
X120847054Y-102212461D01*
X120824818Y-102307265D01*
X120802182Y-102417079D01*
X120780429Y-102536253D01*
X120780048Y-102538495D01*
X120775764Y-102573535D01*
X120780807Y-102586793D01*
X120797541Y-102585011D01*
X120805781Y-102582566D01*
X120841456Y-102572175D01*
X120893922Y-102557022D01*
X120955032Y-102539463D01*
X121085677Y-102502016D01*
X121143717Y-102531626D01*
X121201757Y-102561236D01*
X121657705Y-102421452D01*
X121731875Y-102398985D01*
X121862238Y-102360628D01*
X121996519Y-102322368D01*
X122131127Y-102285132D01*
X122262471Y-102249848D01*
X122386957Y-102217446D01*
X122500995Y-102188853D01*
X122600992Y-102164997D01*
X122683357Y-102146808D01*
X122744498Y-102135214D01*
X122780823Y-102131143D01*
X122808797Y-102137471D01*
X122817562Y-102160781D01*
X122814783Y-102178008D01*
X122802743Y-102190420D01*
X122799200Y-102190850D01*
X122787923Y-102205239D01*
X122791865Y-102210330D01*
X122819037Y-102216158D01*
X122867863Y-102217378D01*
X122933431Y-102214448D01*
X123010828Y-102207828D01*
X123095143Y-102197977D01*
X123181464Y-102185352D01*
X123264878Y-102170414D01*
X123340474Y-102153621D01*
X123351076Y-102150975D01*
X123399566Y-102140169D01*
X123432918Y-102137756D01*
X123462615Y-102144190D01*
X123500139Y-102159923D01*
X123516044Y-102166687D01*
X123552804Y-102178166D01*
X123596809Y-102185149D01*
X123655508Y-102188562D01*
X123736348Y-102189333D01*
X123828219Y-102188112D01*
X123928825Y-102182802D01*
X124018214Y-102171725D01*
X124105907Y-102153195D01*
X124201427Y-102125528D01*
X124314294Y-102087037D01*
X124328418Y-102082017D01*
X124502049Y-102023214D01*
X124652365Y-101978060D01*
X124778497Y-101946795D01*
X124879577Y-101929663D01*
X124909692Y-101926557D01*
X124945511Y-101925322D01*
X124962218Y-101930709D01*
X124966336Y-101943780D01*
X124962240Y-101956443D01*
X124937484Y-101983732D01*
X124897293Y-102012230D01*
X124849787Y-102036583D01*
X124803083Y-102051436D01*
X124800146Y-102052054D01*
X124759963Y-102065713D01*
X124706506Y-102089840D01*
X124650506Y-102119638D01*
X124623555Y-102134690D01*
X124534792Y-102179740D01*
X124427943Y-102229034D01*
X124310476Y-102279331D01*
X124189858Y-102327392D01*
X124073556Y-102369976D01*
X124029265Y-102385809D01*
X123977541Y-102405707D01*
X123942183Y-102421097D01*
X123929069Y-102429553D01*
X123942238Y-102436782D01*
X123977097Y-102446765D01*
X124026058Y-102457303D01*
X124055523Y-102463286D01*
X124096995Y-102474814D01*
X124117298Y-102487243D01*
X124115171Y-102501638D01*
X124089356Y-102519066D01*
X124038593Y-102540592D01*
X123961622Y-102567281D01*
X123857184Y-102600201D01*
X123772964Y-102626265D01*
X123701585Y-102649386D01*
X123648798Y-102668546D01*
X123609426Y-102686082D01*
X123578288Y-102704331D01*
X123550206Y-102725629D01*
X123519999Y-102752313D01*
X123496009Y-102772646D01*
X123433353Y-102815981D01*
X123365813Y-102852431D01*
X123302246Y-102877557D01*
X123251506Y-102886919D01*
X123235662Y-102889963D01*
X123194868Y-102901047D01*
X123135251Y-102918800D01*
X123061898Y-102941697D01*
X122979900Y-102968217D01*
X122732631Y-103049515D01*
X122652838Y-103025724D01*
X122650383Y-103025004D01*
X122564260Y-103010525D01*
X122459767Y-103009782D01*
X122344336Y-103022388D01*
X122225401Y-103047957D01*
X122190435Y-103058341D01*
X122145956Y-103075183D01*
X122098317Y-103098262D01*
X122042330Y-103130396D01*
X121972808Y-103174404D01*
X121884561Y-103233105D01*
X121835317Y-103266078D01*
X121755384Y-103317954D01*
X121691381Y-103356461D01*
X121638124Y-103384439D01*
X121590430Y-103404729D01*
X121543116Y-103420171D01*
X121467049Y-103442983D01*
X121345218Y-103484883D01*
X121244994Y-103526864D01*
X121170315Y-103567371D01*
X121125512Y-103590578D01*
X121051192Y-103617773D01*
X120961716Y-103641708D01*
X120921043Y-103651334D01*
X120865991Y-103665918D01*
X120826757Y-103678309D01*
X120809936Y-103686558D01*
X120813003Y-103703970D01*
X120828625Y-103738901D01*
X120853436Y-103783535D01*
X120875846Y-103825762D01*
X120903444Y-103892108D01*
X120920782Y-103951853D01*
X120933601Y-103995239D01*
X120959858Y-104061985D01*
X120997108Y-104146142D01*
X121043241Y-104243553D01*
X121096149Y-104350061D01*
X121153722Y-104461509D01*
X121213851Y-104573741D01*
X121274426Y-104682598D01*
X121333338Y-104783925D01*
X121388479Y-104873564D01*
X121416653Y-104918127D01*
X121467751Y-105000673D01*
X121515743Y-105080209D01*
X121556268Y-105149463D01*
X121584966Y-105201163D01*
X121606475Y-105242619D01*
X121626098Y-105285005D01*
X121634780Y-105315604D01*
X121634550Y-105342697D01*
X121627436Y-105374564D01*
X121624723Y-105385066D01*
X121619263Y-105416882D01*
X121622065Y-105446311D01*
X121635055Y-105482851D01*
X121660158Y-105535997D01*
X121681946Y-105577612D01*
X121721789Y-105647584D01*
X121768667Y-105725368D01*
X121817317Y-105802482D01*
X121862478Y-105870445D01*
X121898886Y-105920775D01*
X121924699Y-105953755D01*
X121977377Y-105874417D01*
X121980477Y-105869828D01*
X122041239Y-105798775D01*
X122115942Y-105737702D01*
X122128917Y-105728767D01*
X122225081Y-105644578D01*
X122315526Y-105532351D01*
X122400754Y-105391476D01*
X122407414Y-105379264D01*
X122450556Y-105308442D01*
X122500217Y-105236992D01*
X122546937Y-105178686D01*
X122626744Y-105086784D01*
X122710724Y-104981173D01*
X122781650Y-104878620D01*
X122844516Y-104771156D01*
X122904313Y-104650810D01*
X122966034Y-104509615D01*
X123013766Y-104403387D01*
X123076219Y-104278531D01*
X123144588Y-104153147D01*
X123212649Y-104039107D01*
X123213356Y-104037991D01*
X123247101Y-103997635D01*
X123279092Y-103983535D01*
X123282853Y-103983580D01*
X123300400Y-103988022D01*
X123305882Y-104005440D01*
X123302403Y-104043871D01*
X123300602Y-104054413D01*
X123283471Y-104108983D01*
X123257815Y-104159355D01*
X123251936Y-104168852D01*
X123226318Y-104224131D01*
X123210228Y-104280553D01*
X123203801Y-104312755D01*
X123180672Y-104398612D01*
X123147284Y-104500335D01*
X123106387Y-104610995D01*
X123060733Y-104723666D01*
X123013073Y-104831419D01*
X122966159Y-104927327D01*
X122922741Y-105004460D01*
X122882036Y-105071140D01*
X122825716Y-105168353D01*
X122777969Y-105256910D01*
X122740342Y-105333594D01*
X122714383Y-105395185D01*
X122701638Y-105438465D01*
X122703655Y-105460216D01*
X122704840Y-105461183D01*
X122724824Y-105458184D01*
X122756848Y-105435557D01*
X122779729Y-105413284D01*
X122850366Y-105413284D01*
X122852140Y-105430871D01*
X122856597Y-105433189D01*
X122862019Y-105420991D01*
X122860950Y-105413146D01*
X122852140Y-105411112D01*
X122850366Y-105413284D01*
X122779729Y-105413284D01*
X122796132Y-105397317D01*
X122837896Y-105347477D01*
X122850856Y-105330909D01*
X122852140Y-105329513D01*
X122889043Y-105289394D01*
X122915588Y-105274622D01*
X122931082Y-105286459D01*
X122936115Y-105324766D01*
X122932249Y-105351833D01*
X122915523Y-105399342D01*
X122884289Y-105464595D01*
X122837158Y-105550758D01*
X122817398Y-105585872D01*
X122754285Y-105702812D01*
X122695365Y-105818939D01*
X122643548Y-105928192D01*
X122601740Y-106024508D01*
X122572848Y-106101826D01*
X122570717Y-106108863D01*
X122560944Y-106151648D01*
X122551018Y-106208793D01*
X122541820Y-106273041D01*
X122534229Y-106337132D01*
X122529127Y-106393808D01*
X122527393Y-106435811D01*
X122529908Y-106455881D01*
X122535834Y-106455518D01*
X122565594Y-106449200D01*
X122615981Y-106436835D01*
X122682088Y-106419647D01*
X122759003Y-106398857D01*
X122796806Y-106388538D01*
X122874786Y-106368089D01*
X122929889Y-106355387D01*
X122966031Y-106349739D01*
X122987124Y-106350458D01*
X122997083Y-106356850D01*
X122999115Y-106360176D01*
X123005354Y-106377529D01*
X122998963Y-106393070D01*
X122976124Y-106409751D01*
X122933018Y-106430524D01*
X122865828Y-106458340D01*
X122834948Y-106471172D01*
X122771308Y-106500142D01*
X122717007Y-106528024D01*
X122681274Y-106550223D01*
X122676841Y-106553504D01*
X122636158Y-106579762D01*
X122580914Y-106611401D01*
X122521732Y-106642290D01*
X122458340Y-106674315D01*
X122414227Y-106699046D01*
X122388314Y-106718142D01*
X122376097Y-106734951D01*
X122373069Y-106752824D01*
X122376960Y-106764593D01*
X122395942Y-106797558D01*
X122427130Y-106843236D01*
X122466508Y-106895496D01*
X122476722Y-106908717D01*
X122501943Y-106941363D01*
X122533931Y-106987351D01*
X122554190Y-107026159D01*
X122567012Y-107066407D01*
X122576693Y-107116718D01*
X122582412Y-107148853D01*
X122596340Y-107207799D01*
X122615579Y-107262791D01*
X122642465Y-107317283D01*
X122679335Y-107374730D01*
X122728524Y-107438585D01*
X122792370Y-107512302D01*
X122873209Y-107599335D01*
X122973378Y-107703139D01*
X123077144Y-107809681D01*
X123163026Y-107898442D01*
X123231602Y-107970165D01*
X123284676Y-108026853D01*
X123324053Y-108070506D01*
X123351538Y-108103125D01*
X123368936Y-108126711D01*
X123378051Y-108143266D01*
X123380689Y-108154791D01*
X123378988Y-108165185D01*
X123361618Y-108178305D01*
X123330232Y-108174067D01*
X123290736Y-108154040D01*
X123249037Y-108119795D01*
X123208532Y-108083284D01*
X123153353Y-108039195D01*
X123097141Y-107998683D01*
X123038170Y-107958269D01*
X122923569Y-107876401D01*
X122809745Y-107791222D01*
X122704901Y-107708935D01*
X122617238Y-107635743D01*
X122593320Y-107615093D01*
X122547836Y-107578409D01*
X122520650Y-107562759D01*
X122509732Y-107568327D01*
X122513054Y-107595299D01*
X122528589Y-107643862D01*
X122531809Y-107653043D01*
X122546230Y-107698774D01*
X122548165Y-107722816D01*
X122536487Y-107730165D01*
X122510065Y-107725820D01*
X122495978Y-107721613D01*
X122436320Y-107689242D01*
X122402369Y-107658681D01*
X122461902Y-107658681D01*
X122462333Y-107662223D01*
X122476722Y-107673500D01*
X122480264Y-107673070D01*
X122491541Y-107658681D01*
X122491110Y-107655139D01*
X122476722Y-107643862D01*
X122473179Y-107644293D01*
X122461902Y-107658681D01*
X122402369Y-107658681D01*
X122372025Y-107631366D01*
X122301348Y-107546487D01*
X122287766Y-107528866D01*
X122236392Y-107468940D01*
X122187040Y-107420801D01*
X122144489Y-107388756D01*
X122113518Y-107377118D01*
X122110558Y-107377761D01*
X122092578Y-107394639D01*
X122073003Y-107427258D01*
X122055756Y-107458240D01*
X122024556Y-107502794D01*
X121990153Y-107543468D01*
X121958749Y-107573115D01*
X121936544Y-107584585D01*
X121933401Y-107584956D01*
X121906366Y-107600961D01*
X121865728Y-107638653D01*
X121813678Y-107695348D01*
X121752405Y-107768364D01*
X121684100Y-107855015D01*
X121610953Y-107952617D01*
X121535154Y-108058487D01*
X121458893Y-108169941D01*
X121400909Y-108261581D01*
X121321171Y-108413029D01*
X121265256Y-108560433D01*
X121231062Y-108708764D01*
X121229105Y-108720494D01*
X121219902Y-108762236D01*
X121205953Y-108801364D01*
X121184019Y-108844472D01*
X121150860Y-108898158D01*
X121103237Y-108969016D01*
X121037053Y-109064538D01*
X120933502Y-109208912D01*
X120842035Y-109329522D01*
X120763265Y-109425569D01*
X120697808Y-109496254D01*
X120696962Y-109497089D01*
X120654316Y-109541070D01*
X120599759Y-109599996D01*
X120540221Y-109666264D01*
X120482633Y-109732273D01*
X120424828Y-109797540D01*
X120342269Y-109883826D01*
X120262621Y-109959505D01*
X120189593Y-110021295D01*
X120126894Y-110065913D01*
X120078235Y-110090078D01*
X120057536Y-110098410D01*
X120010495Y-110122071D01*
X119952210Y-110154952D01*
X119890782Y-110192624D01*
X119821959Y-110235241D01*
X119618960Y-110345005D01*
X119415070Y-110432321D01*
X119213615Y-110496072D01*
X119017920Y-110535141D01*
X118831310Y-110548413D01*
X118813126Y-110548463D01*
X118758864Y-110550251D01*
X118722019Y-110556445D01*
X118692915Y-110569534D01*
X118661878Y-110592009D01*
X118638355Y-110609745D01*
X118557133Y-110654958D01*
X118469834Y-110676833D01*
X118367841Y-110677889D01*
X118345208Y-110675960D01*
X118229870Y-110659145D01*
X118114508Y-110629761D01*
X117996373Y-110586389D01*
X117872712Y-110527608D01*
X117740775Y-110451998D01*
X117597810Y-110358138D01*
X117441067Y-110244609D01*
X117267795Y-110109991D01*
X117223065Y-110073737D01*
X117114759Y-109981960D01*
X117004019Y-109883143D01*
X116894516Y-109780913D01*
X116789922Y-109678900D01*
X116693910Y-109580730D01*
X116610152Y-109490032D01*
X116596511Y-109474025D01*
X116637982Y-109474025D01*
X116645391Y-109481435D01*
X116652801Y-109474025D01*
X116645391Y-109466616D01*
X116637982Y-109474025D01*
X116596511Y-109474025D01*
X116554347Y-109424547D01*
X116612591Y-109424547D01*
X116614338Y-109434688D01*
X116618912Y-109441271D01*
X116631447Y-109451797D01*
X116633518Y-109451652D01*
X116636782Y-109443074D01*
X116620873Y-109428153D01*
X116612591Y-109424547D01*
X116554347Y-109424547D01*
X116542320Y-109410434D01*
X116494085Y-109345564D01*
X116477606Y-109320424D01*
X116446342Y-109271454D01*
X116423487Y-109233896D01*
X116413108Y-109214341D01*
X116411261Y-109211574D01*
X116395058Y-109206938D01*
X116360144Y-109207815D01*
X116303096Y-109214427D01*
X116220487Y-109227002D01*
X116192266Y-109231453D01*
X116096518Y-109244153D01*
X116027298Y-109248899D01*
X115985276Y-109245674D01*
X115971121Y-109234455D01*
X115971146Y-109234098D01*
X115977932Y-109216650D01*
X115993104Y-109185526D01*
X115997033Y-109178903D01*
X116032918Y-109143177D01*
X116090076Y-109107453D01*
X116161775Y-109075388D01*
X116241280Y-109050645D01*
X116311380Y-109033488D01*
X116266655Y-108971209D01*
X116266544Y-108971044D01*
X117736386Y-108971044D01*
X117746153Y-109011699D01*
X117775291Y-109060790D01*
X117819674Y-109113153D01*
X117875176Y-109163624D01*
X117937668Y-109207041D01*
X117942206Y-109209849D01*
X117974988Y-109238193D01*
X117992856Y-109267543D01*
X117992933Y-109267845D01*
X118016167Y-109308953D01*
X118061334Y-109351133D01*
X118121483Y-109389090D01*
X118189663Y-109417526D01*
X118261081Y-109447930D01*
X118328311Y-109497284D01*
X118370809Y-109532365D01*
X118440760Y-109565654D01*
X118527210Y-109581747D01*
X118634796Y-109581924D01*
X118664064Y-109579436D01*
X118796996Y-109553134D01*
X118939771Y-109502945D01*
X119089323Y-109430842D01*
X119242589Y-109338801D01*
X119396504Y-109228796D01*
X119548005Y-109102802D01*
X119694027Y-108962792D01*
X119831506Y-108810743D01*
X119838642Y-108802259D01*
X119889700Y-108743106D01*
X119929066Y-108701972D01*
X119962460Y-108673981D01*
X119995600Y-108654258D01*
X120034205Y-108637928D01*
X120080272Y-108618937D01*
X120173057Y-108568344D01*
X120245278Y-108510264D01*
X120292405Y-108448029D01*
X120305359Y-108425342D01*
X120336795Y-108375761D01*
X120376989Y-108316312D01*
X120420372Y-108255380D01*
X120432660Y-108238471D01*
X120480031Y-108171793D01*
X120535775Y-108091649D01*
X120593934Y-108006654D01*
X120648550Y-107925426D01*
X120668265Y-107895769D01*
X120727241Y-107806787D01*
X120771760Y-107738805D01*
X120803413Y-107689006D01*
X120823790Y-107654576D01*
X120834483Y-107632698D01*
X120837082Y-107620557D01*
X120833178Y-107615338D01*
X120824361Y-107614224D01*
X120820525Y-107614385D01*
X120786025Y-107619904D01*
X120733181Y-107631680D01*
X120670328Y-107647531D01*
X120605804Y-107665278D01*
X120547942Y-107682740D01*
X120505080Y-107697736D01*
X120478470Y-107710818D01*
X120440290Y-107743724D01*
X120404216Y-107797105D01*
X120345240Y-107882215D01*
X120276150Y-107946927D01*
X120201984Y-107984722D01*
X120183079Y-107990811D01*
X120113378Y-108015816D01*
X120032558Y-108047625D01*
X119948431Y-108082897D01*
X119868808Y-108118293D01*
X119801500Y-108150475D01*
X119754319Y-108176102D01*
X119669407Y-108215409D01*
X119555904Y-108244871D01*
X119549864Y-108246021D01*
X119470813Y-108263512D01*
X119383386Y-108286231D01*
X119305426Y-108309571D01*
X119287181Y-108315290D01*
X119206354Y-108336500D01*
X119116633Y-108355220D01*
X119034287Y-108367947D01*
X118993934Y-108373189D01*
X118896852Y-108392054D01*
X118826910Y-108417043D01*
X118782597Y-108448823D01*
X118762403Y-108488061D01*
X118753056Y-108518573D01*
X118725747Y-108558158D01*
X118680520Y-108588529D01*
X118614529Y-108610879D01*
X118524928Y-108626402D01*
X118408869Y-108636290D01*
X118367584Y-108638761D01*
X118301254Y-108643961D01*
X118251842Y-108651002D01*
X118210827Y-108661848D01*
X118169685Y-108678458D01*
X118119895Y-108702794D01*
X118102483Y-108711829D01*
X118041032Y-108746235D01*
X117974095Y-108786709D01*
X117906864Y-108829768D01*
X117844531Y-108871933D01*
X117792289Y-108909723D01*
X117755329Y-108939655D01*
X117738846Y-108958251D01*
X117736386Y-108971044D01*
X116266544Y-108971044D01*
X116251069Y-108948022D01*
X116229193Y-108899966D01*
X116224575Y-108850638D01*
X116224355Y-108838076D01*
X116216330Y-108786498D01*
X116198652Y-108717088D01*
X116172983Y-108636744D01*
X116162744Y-108606499D01*
X116144715Y-108547132D01*
X116129035Y-108484849D01*
X116115131Y-108415839D01*
X116102426Y-108336291D01*
X116090344Y-108242395D01*
X116078310Y-108130340D01*
X116065748Y-107996315D01*
X116052082Y-107836511D01*
X116051136Y-107824977D01*
X116039727Y-107650835D01*
X116036195Y-107496967D01*
X116041056Y-107355418D01*
X116054827Y-107218233D01*
X116078023Y-107077457D01*
X116111159Y-106925134D01*
X116116651Y-106901566D01*
X116136179Y-106811395D01*
X116155151Y-106715666D01*
X116170127Y-106631502D01*
X116176219Y-106596319D01*
X116189784Y-106528859D01*
X116203633Y-106471557D01*
X116215556Y-106434008D01*
X116217925Y-106428544D01*
X116241389Y-106393287D01*
X116265473Y-106386897D01*
X116288068Y-106408811D01*
X116307063Y-106458463D01*
X116314915Y-106499695D01*
X116322128Y-106576672D01*
X116324700Y-106666196D01*
X116322677Y-106758442D01*
X116316103Y-106843585D01*
X116305021Y-106911804D01*
X116298511Y-106943529D01*
X116291937Y-107002112D01*
X116294886Y-107044033D01*
X116300228Y-107059779D01*
X116307000Y-107063465D01*
X116316698Y-107049157D01*
X116331495Y-107013489D01*
X116353563Y-106953094D01*
X116381772Y-106878626D01*
X116412241Y-106810480D01*
X116437625Y-106768845D01*
X116457288Y-106754941D01*
X116475880Y-106757916D01*
X116490604Y-106771056D01*
X116497108Y-106799101D01*
X116496314Y-106846791D01*
X116489144Y-106918871D01*
X116482759Y-106989323D01*
X116480630Y-107070625D01*
X116485508Y-107132602D01*
X116491406Y-107164289D01*
X116500799Y-107192719D01*
X116515809Y-107204007D01*
X116542166Y-107205527D01*
X116579516Y-107202149D01*
X116612591Y-107195660D01*
X116625895Y-107193050D01*
X116635233Y-107190705D01*
X116645391Y-107190585D01*
X116655060Y-107190470D01*
X116674568Y-107201686D01*
X116699477Y-107228667D01*
X116735504Y-107275726D01*
X116798069Y-107370573D01*
X116874873Y-107521273D01*
X116942441Y-107696711D01*
X116949093Y-107716514D01*
X116966358Y-107767066D01*
X116979052Y-107803000D01*
X116984805Y-107817555D01*
X116985821Y-107817497D01*
X117003433Y-107808095D01*
X117037985Y-107786649D01*
X117083358Y-107756925D01*
X117113071Y-107737249D01*
X117149146Y-107715641D01*
X117181816Y-107701803D01*
X117219330Y-107693391D01*
X117269938Y-107688061D01*
X117341891Y-107683469D01*
X117359834Y-107682368D01*
X117466257Y-107673118D01*
X117545920Y-107660509D01*
X117601219Y-107644048D01*
X117634549Y-107623241D01*
X117644840Y-107616342D01*
X117680798Y-107602964D01*
X117727668Y-107592869D01*
X117743968Y-107589895D01*
X117799355Y-107575845D01*
X117866609Y-107555030D01*
X117934656Y-107530771D01*
X117968213Y-107518099D01*
X118028562Y-107497800D01*
X118079647Y-107486350D01*
X118133710Y-107481474D01*
X118202993Y-107480896D01*
X118337957Y-107482251D01*
X118721915Y-107334797D01*
X118802008Y-107304168D01*
X118922651Y-107258440D01*
X119043718Y-107212972D01*
X119158197Y-107170383D01*
X119259075Y-107133290D01*
X119339339Y-107104312D01*
X119572805Y-107021280D01*
X119648195Y-107059483D01*
X119723585Y-107097686D01*
X119850570Y-107043134D01*
X119858155Y-107039912D01*
X119924509Y-107013513D01*
X120007883Y-106982571D01*
X120098377Y-106950676D01*
X120186094Y-106921420D01*
X120188434Y-106920665D01*
X120282620Y-106888966D01*
X120385038Y-106852394D01*
X120483481Y-106815415D01*
X120565745Y-106782495D01*
X120624870Y-106757918D01*
X120728680Y-106716329D01*
X120765305Y-106702847D01*
X120935531Y-106702847D01*
X120942941Y-106710256D01*
X120950350Y-106702847D01*
X120942941Y-106695437D01*
X120935531Y-106702847D01*
X120765305Y-106702847D01*
X120811071Y-106686000D01*
X120824361Y-106681831D01*
X120875563Y-106665771D01*
X120925674Y-106654484D01*
X120942941Y-106652942D01*
X120964923Y-106650980D01*
X120973268Y-106651005D01*
X121004320Y-106653757D01*
X121014907Y-106666165D01*
X121012788Y-106695437D01*
X121009912Y-106716368D01*
X121011669Y-106730285D01*
X121023131Y-106736637D01*
X121049184Y-106736129D01*
X121094717Y-106729468D01*
X121164618Y-106717358D01*
X121256913Y-106698243D01*
X121324096Y-106676780D01*
X121368912Y-106651602D01*
X121395007Y-106621188D01*
X121408878Y-106603467D01*
X121432494Y-106591703D01*
X121437717Y-106591635D01*
X121448683Y-106589179D01*
X121451275Y-106579628D01*
X121444131Y-106558202D01*
X121425893Y-106520118D01*
X121395198Y-106460594D01*
X121364059Y-106403013D01*
X121317222Y-106328019D01*
X121272854Y-106274479D01*
X121227126Y-106238089D01*
X121176208Y-106214546D01*
X121160244Y-106208989D01*
X121116496Y-106191273D01*
X121077235Y-106169797D01*
X121039562Y-106141518D01*
X121000580Y-106103389D01*
X120957392Y-106052365D01*
X120907098Y-105985401D01*
X120846801Y-105899451D01*
X120773603Y-105791470D01*
X120658272Y-105611270D01*
X120547182Y-105417235D01*
X120454760Y-105231603D01*
X120382605Y-105057609D01*
X120332316Y-104898487D01*
X120331285Y-104894537D01*
X120316484Y-104846659D01*
X120302163Y-104813951D01*
X120291288Y-104803297D01*
X120290588Y-104803590D01*
X120274296Y-104819874D01*
X120246512Y-104855822D01*
X120210724Y-104906116D01*
X120170426Y-104965436D01*
X120129107Y-105028466D01*
X120090260Y-105089887D01*
X120057374Y-105144380D01*
X120033941Y-105186628D01*
X120023453Y-105211311D01*
X120018949Y-105229996D01*
X119989256Y-105302495D01*
X119937295Y-105385051D01*
X119861500Y-105480268D01*
X119843524Y-105501713D01*
X119794898Y-105564704D01*
X119751065Y-105627879D01*
X119719753Y-105680326D01*
X119669975Y-105766606D01*
X119568568Y-105898568D01*
X119443315Y-106014992D01*
X119431977Y-106024313D01*
X119378561Y-106073250D01*
X119315345Y-106137173D01*
X119248868Y-106209286D01*
X119185671Y-106282789D01*
X119017265Y-106476340D01*
X118829257Y-106667097D01*
X118643141Y-106828755D01*
X118458645Y-106961548D01*
X118275496Y-107065709D01*
X118184664Y-107107732D01*
X118044735Y-107159552D01*
X117907781Y-107192428D01*
X117764236Y-107209041D01*
X117687345Y-107211668D01*
X117529649Y-107202098D01*
X117374767Y-107170994D01*
X117218691Y-107117108D01*
X117057410Y-107039193D01*
X116886915Y-106936001D01*
X116855181Y-106914644D01*
X116795387Y-106870103D01*
X116756592Y-106832853D01*
X116734653Y-106799171D01*
X116732297Y-106793975D01*
X116707918Y-106743049D01*
X116682073Y-106692501D01*
X116675691Y-106680143D01*
X116659349Y-106643643D01*
X116652801Y-106620696D01*
X116649965Y-106611944D01*
X116633956Y-106581355D01*
X116606984Y-106536247D01*
X116572668Y-106482850D01*
X116556501Y-106458103D01*
X116517026Y-106394959D01*
X116482281Y-106335905D01*
X116458318Y-106291093D01*
X116454636Y-106283660D01*
X116422128Y-106233933D01*
X116389619Y-106211525D01*
X116383071Y-106209720D01*
X116365191Y-106199264D01*
X116358090Y-106177050D01*
X116358178Y-106134248D01*
X116358256Y-106132119D01*
X116353175Y-106073995D01*
X116335610Y-105991754D01*
X116306070Y-105887794D01*
X116289257Y-105829682D01*
X116263182Y-105726438D01*
X116239823Y-105619578D01*
X116222764Y-105524725D01*
X116218209Y-105494284D01*
X116204763Y-105399673D01*
X116191051Y-105297124D01*
X116177704Y-105191963D01*
X116171881Y-105143666D01*
X116936460Y-105143666D01*
X116938561Y-105233418D01*
X116942908Y-105305812D01*
X116949273Y-105354734D01*
X116951500Y-105364761D01*
X116978154Y-105448117D01*
X117018516Y-105539097D01*
X117066621Y-105625546D01*
X117116499Y-105695313D01*
X117130088Y-105712761D01*
X117163422Y-105762349D01*
X117200765Y-105824428D01*
X117236299Y-105889567D01*
X117259642Y-105932817D01*
X117336342Y-106047956D01*
X117420582Y-106134935D01*
X117513667Y-106194433D01*
X117616901Y-106227133D01*
X117731589Y-106233717D01*
X117859034Y-106214864D01*
X117899758Y-106204221D01*
X118019236Y-106157930D01*
X118133470Y-106088925D01*
X118248035Y-105994039D01*
X118293082Y-105951467D01*
X118336642Y-105906957D01*
X118365804Y-105869404D01*
X118384984Y-105831545D01*
X118398596Y-105786113D01*
X118411058Y-105725845D01*
X118413874Y-105712037D01*
X118452804Y-105598775D01*
X118518322Y-105496645D01*
X118611403Y-105404084D01*
X118669566Y-105353557D01*
X118781099Y-105239254D01*
X118884095Y-105107706D01*
X118981615Y-104954784D01*
X119076719Y-104776359D01*
X119099467Y-104729365D01*
X119130444Y-104659337D01*
X119151966Y-104598139D01*
X119167563Y-104535023D01*
X119180759Y-104459236D01*
X119187566Y-104417088D01*
X119200514Y-104345315D01*
X119203297Y-104331785D01*
X119246150Y-104331785D01*
X119253559Y-104339195D01*
X119260969Y-104331785D01*
X119253559Y-104324375D01*
X119246150Y-104331785D01*
X119203297Y-104331785D01*
X119213360Y-104282856D01*
X119216347Y-104270890D01*
X119263297Y-104270890D01*
X119266835Y-104290724D01*
X119271894Y-104290494D01*
X119274618Y-104271273D01*
X119272245Y-104256707D01*
X119265665Y-104262320D01*
X119263297Y-104270890D01*
X119216347Y-104270890D01*
X119224123Y-104239734D01*
X119243803Y-104174345D01*
X119196814Y-104183900D01*
X119186356Y-104186354D01*
X119127318Y-104207096D01*
X119049009Y-104242835D01*
X118955319Y-104291688D01*
X118850137Y-104351773D01*
X118827965Y-104364438D01*
X118749772Y-104404353D01*
X118663248Y-104443259D01*
X118583392Y-104474268D01*
X118545305Y-104487366D01*
X118502548Y-104501106D01*
X118464341Y-104511000D01*
X118424985Y-104517717D01*
X118378784Y-104521929D01*
X118320039Y-104524308D01*
X118243051Y-104525524D01*
X118142124Y-104526249D01*
X118104629Y-104526521D01*
X118000907Y-104528063D01*
X117915316Y-104531214D01*
X117839093Y-104536733D01*
X117763475Y-104545382D01*
X117679697Y-104557922D01*
X117578997Y-104575111D01*
X117509232Y-104587238D01*
X117414979Y-104603112D01*
X117327657Y-104617279D01*
X117254676Y-104628544D01*
X117203448Y-104635710D01*
X117161005Y-104642059D01*
X117080238Y-104663492D01*
X117019553Y-104696550D01*
X116972961Y-104744047D01*
X116969648Y-104748609D01*
X116958777Y-104767150D01*
X116950920Y-104790340D01*
X116945449Y-104823179D01*
X116941736Y-104870663D01*
X116939152Y-104937790D01*
X116937069Y-105029557D01*
X116936836Y-105042669D01*
X116936460Y-105143666D01*
X116171881Y-105143666D01*
X116165353Y-105089517D01*
X116154628Y-104995112D01*
X116146161Y-104914075D01*
X116140581Y-104851731D01*
X116138521Y-104813407D01*
X116138276Y-104799207D01*
X116136815Y-104753432D01*
X116134264Y-104688044D01*
X116130885Y-104609544D01*
X116126938Y-104524434D01*
X116126835Y-104522270D01*
X116122672Y-104399601D01*
X116123072Y-104346604D01*
X116178589Y-104346604D01*
X116185998Y-104354014D01*
X116193408Y-104346604D01*
X116185998Y-104339195D01*
X116178589Y-104346604D01*
X116123072Y-104346604D01*
X116123388Y-104304794D01*
X116129193Y-104236466D01*
X116140293Y-104193233D01*
X116156896Y-104173711D01*
X116179210Y-104176517D01*
X116185998Y-104182013D01*
X116196533Y-104190542D01*
X116209563Y-104217458D01*
X116210941Y-104232041D01*
X116215015Y-104236533D01*
X116220857Y-104216752D01*
X116228089Y-104176066D01*
X116236329Y-104117841D01*
X116245197Y-104045442D01*
X116254315Y-103962237D01*
X116263301Y-103871590D01*
X116271777Y-103776868D01*
X116279361Y-103681437D01*
X116285674Y-103588663D01*
X116290336Y-103501913D01*
X116291303Y-103480480D01*
X116295114Y-103407170D01*
X116300098Y-103352830D01*
X116308263Y-103308884D01*
X116321618Y-103266758D01*
X116342174Y-103217876D01*
X116371938Y-103153664D01*
X116415842Y-103051815D01*
X116450042Y-102948445D01*
X116475920Y-102835464D01*
X116481780Y-102806542D01*
X116500602Y-102724315D01*
X116505408Y-102705229D01*
X116758434Y-102705229D01*
X116765431Y-102726840D01*
X116781804Y-102722103D01*
X116806320Y-102691516D01*
X116826495Y-102655604D01*
X116877416Y-102655604D01*
X116880954Y-102675438D01*
X116886013Y-102675208D01*
X116888737Y-102655988D01*
X116886364Y-102641421D01*
X116879784Y-102647034D01*
X116877416Y-102655604D01*
X116826495Y-102655604D01*
X116837748Y-102635573D01*
X116859367Y-102595876D01*
X116886364Y-102556734D01*
X116888852Y-102553127D01*
X116912658Y-102532358D01*
X116928568Y-102535227D01*
X116934364Y-102563390D01*
X116934230Y-102567221D01*
X116931596Y-102598352D01*
X116926004Y-102652656D01*
X116917991Y-102725233D01*
X116908093Y-102811182D01*
X116896849Y-102905602D01*
X116859334Y-103215684D01*
X116896338Y-103351389D01*
X116902188Y-103372577D01*
X116923722Y-103447267D01*
X116945696Y-103519439D01*
X116964160Y-103576009D01*
X116965088Y-103578700D01*
X116977851Y-103620726D01*
X116986194Y-103663041D01*
X116990816Y-103712971D01*
X116992414Y-103777843D01*
X116991686Y-103864982D01*
X116991753Y-103922204D01*
X116993354Y-103995344D01*
X116996217Y-104079175D01*
X117000068Y-104168659D01*
X117004633Y-104258757D01*
X117009638Y-104344428D01*
X117014807Y-104420633D01*
X117019866Y-104482333D01*
X117024541Y-104524488D01*
X117028558Y-104542059D01*
X117029755Y-104542458D01*
X117049369Y-104537410D01*
X117085975Y-104523263D01*
X117131685Y-104503528D01*
X117178613Y-104481716D01*
X117218871Y-104461338D01*
X117244570Y-104445905D01*
X117260679Y-104433332D01*
X117283736Y-104409151D01*
X117281331Y-104393898D01*
X117279986Y-104393531D01*
X118658324Y-104393531D01*
X118660496Y-104395305D01*
X118678083Y-104393531D01*
X118680401Y-104389074D01*
X118668203Y-104383652D01*
X118660358Y-104384721D01*
X118658324Y-104393531D01*
X117279986Y-104393531D01*
X117252164Y-104385942D01*
X117194934Y-104383652D01*
X117146087Y-104382890D01*
X117114717Y-104379140D01*
X117100634Y-104370503D01*
X117097375Y-104355089D01*
X117101308Y-104337885D01*
X117128878Y-104303373D01*
X117179147Y-104269372D01*
X117247798Y-104239209D01*
X117284594Y-104224943D01*
X117308245Y-104208712D01*
X117316768Y-104185028D01*
X117312462Y-104146883D01*
X117297623Y-104087273D01*
X117275935Y-104005772D01*
X117375599Y-103905082D01*
X117402851Y-103878272D01*
X117464324Y-103825227D01*
X117529212Y-103782207D01*
X117610119Y-103740355D01*
X117683104Y-103702909D01*
X117746611Y-103661723D01*
X117787948Y-103622012D01*
X117811813Y-103596603D01*
X117860047Y-103556421D01*
X117912427Y-103521902D01*
X117960303Y-103490871D01*
X118020048Y-103444762D01*
X118073111Y-103396936D01*
X118085234Y-103385194D01*
X118179031Y-103315411D01*
X118290331Y-103266313D01*
X118420917Y-103237297D01*
X118572571Y-103227759D01*
X118597335Y-103227516D01*
X118659483Y-103222719D01*
X118668203Y-103220511D01*
X118713216Y-103209113D01*
X118774312Y-103183214D01*
X118823630Y-103162098D01*
X118892899Y-103137497D01*
X118953472Y-103120973D01*
X118985550Y-103113205D01*
X119024647Y-103098329D01*
X119038682Y-103083422D01*
X119032833Y-103055346D01*
X119006379Y-102999920D01*
X118958866Y-102924881D01*
X118890584Y-102830646D01*
X118801822Y-102717632D01*
X118692870Y-102586253D01*
X118668387Y-102557143D01*
X118613825Y-102489872D01*
X118578423Y-102441635D01*
X118561062Y-102410819D01*
X118560620Y-102395810D01*
X118585984Y-102385862D01*
X118629667Y-102393553D01*
X118684609Y-102419873D01*
X118746123Y-102463122D01*
X118786108Y-102494724D01*
X118843323Y-102537548D01*
X118893853Y-102572740D01*
X118932285Y-102596582D01*
X118953207Y-102605356D01*
X118954539Y-102605259D01*
X118963664Y-102590756D01*
X118960952Y-102555794D01*
X118946794Y-102506388D01*
X118942101Y-102492573D01*
X118936631Y-102459997D01*
X118946497Y-102439688D01*
X118954434Y-102434930D01*
X118976686Y-102435737D01*
X119014115Y-102449197D01*
X119071728Y-102476792D01*
X119087229Y-102484596D01*
X119136038Y-102508436D01*
X119172397Y-102525085D01*
X119189369Y-102531326D01*
X119191947Y-102530325D01*
X119208152Y-102513228D01*
X119229921Y-102481674D01*
X119243803Y-102459212D01*
X119253559Y-102443427D01*
X119260566Y-102432089D01*
X119229664Y-102340581D01*
X119215946Y-102294569D01*
X119207117Y-102252316D01*
X119206768Y-102228205D01*
X119210146Y-102222027D01*
X119232252Y-102212613D01*
X119263814Y-102221429D01*
X119272245Y-102227412D01*
X119297146Y-102245084D01*
X119324564Y-102280188D01*
X119344053Y-102312761D01*
X119400797Y-102380568D01*
X119471551Y-102428968D01*
X119515848Y-102449641D01*
X119542460Y-102454133D01*
X119554517Y-102439842D01*
X119557352Y-102405297D01*
X119564724Y-102369110D01*
X119584374Y-102355180D01*
X119611732Y-102363026D01*
X119642221Y-102391307D01*
X119671267Y-102438683D01*
X119684107Y-102461870D01*
X119716415Y-102507314D01*
X119756124Y-102553679D01*
X119797178Y-102594634D01*
X119833520Y-102623849D01*
X119859093Y-102634994D01*
X119861257Y-102634876D01*
X119889745Y-102623109D01*
X119921768Y-102597946D01*
X119949511Y-102575330D01*
X119993857Y-102561762D01*
X120040390Y-102576292D01*
X120091649Y-102619236D01*
X120109551Y-102639553D01*
X120146888Y-102690358D01*
X120173712Y-102737790D01*
X120179394Y-102749765D01*
X120202897Y-102784793D01*
X120224978Y-102798004D01*
X120229906Y-102797424D01*
X120260731Y-102788136D01*
X120307744Y-102769875D01*
X120362908Y-102745689D01*
X120382172Y-102736511D01*
X120429820Y-102711044D01*
X120462591Y-102689333D01*
X120474283Y-102675298D01*
X120471079Y-102649796D01*
X120459968Y-102587324D01*
X120452521Y-102554235D01*
X120653968Y-102554235D01*
X120654037Y-102567543D01*
X120656329Y-102607736D01*
X120663140Y-102625222D01*
X120676196Y-102625534D01*
X120688702Y-102615215D01*
X120695184Y-102590390D01*
X120693902Y-102546778D01*
X120685160Y-102479393D01*
X120684867Y-102477507D01*
X120676974Y-102445525D01*
X120668726Y-102440114D01*
X120661335Y-102458366D01*
X120656011Y-102497376D01*
X120653968Y-102554235D01*
X120452521Y-102554235D01*
X120444386Y-102518087D01*
X120426059Y-102448054D01*
X120406711Y-102383193D01*
X120388070Y-102329473D01*
X120371859Y-102292864D01*
X120359806Y-102279335D01*
X120344127Y-102272163D01*
X120313793Y-102247900D01*
X120278109Y-102212414D01*
X120216665Y-102145494D01*
X119958552Y-102167254D01*
X119887434Y-102172911D01*
X119810892Y-102178154D01*
X119748757Y-102181462D01*
X119706063Y-102182574D01*
X119687846Y-102181232D01*
X119675369Y-102178663D01*
X119637092Y-102174461D01*
X119578369Y-102169549D01*
X119504292Y-102164346D01*
X119419949Y-102159269D01*
X119354564Y-102155597D01*
X119273635Y-102150934D01*
X119205157Y-102146856D01*
X119154845Y-102143704D01*
X119128413Y-102141821D01*
X119107095Y-102142807D01*
X119090709Y-102157484D01*
X119078778Y-102194125D01*
X119071894Y-102218114D01*
X119056432Y-102243028D01*
X119031992Y-102249696D01*
X118989853Y-102239689D01*
X118945529Y-102213568D01*
X118910039Y-102178982D01*
X118893385Y-102143586D01*
X118889058Y-102124271D01*
X118871899Y-102106140D01*
X118834109Y-102096066D01*
X118820483Y-102093882D01*
X118748914Y-102086503D01*
X118692787Y-102091489D01*
X118641299Y-102111055D01*
X118583651Y-102147416D01*
X118497783Y-102208147D01*
X118371821Y-102200843D01*
X118353877Y-102199590D01*
X118238156Y-102183260D01*
X118127305Y-102155120D01*
X118058876Y-102135416D01*
X117975575Y-102120929D01*
X117882789Y-102116849D01*
X117728929Y-102121193D01*
X117556002Y-102133602D01*
X117382761Y-102152778D01*
X117223338Y-102177423D01*
X117157574Y-102188257D01*
X117077327Y-102198804D01*
X117005845Y-102205500D01*
X116953249Y-102207228D01*
X116904320Y-102206668D01*
X116874661Y-102210076D01*
X116860197Y-102219843D01*
X116853547Y-102238268D01*
X116848191Y-102262008D01*
X116837386Y-102309360D01*
X116823055Y-102371875D01*
X116806848Y-102442345D01*
X116792814Y-102504750D01*
X116778064Y-102573801D01*
X116766785Y-102630499D01*
X116760672Y-102666603D01*
X116758434Y-102705229D01*
X116505408Y-102705229D01*
X116524893Y-102627840D01*
X116552151Y-102526843D01*
X116579875Y-102431055D01*
X116598955Y-102367625D01*
X116620418Y-102295812D01*
X116637478Y-102238205D01*
X116648738Y-102199523D01*
X116652801Y-102184487D01*
X116647422Y-102182087D01*
X116620180Y-102176706D01*
X116577649Y-102170828D01*
X116549264Y-102165968D01*
X116485132Y-102148344D01*
X116450441Y-102134686D01*
X117163079Y-102134686D01*
X117168692Y-102141266D01*
X117177262Y-102143634D01*
X117197095Y-102140096D01*
X117196866Y-102135038D01*
X117177645Y-102132313D01*
X117163079Y-102134686D01*
X116450441Y-102134686D01*
X116425753Y-102124966D01*
X116423585Y-102123930D01*
X116326494Y-102088287D01*
X116206158Y-102061218D01*
X116067708Y-102043198D01*
X115916280Y-102034701D01*
X115757006Y-102036201D01*
X115595021Y-102048174D01*
X115535689Y-102054571D01*
X115461275Y-102062518D01*
X115409653Y-102067559D01*
X115376690Y-102069738D01*
X115358249Y-102069094D01*
X115350197Y-102065670D01*
X115348398Y-102059507D01*
X115348717Y-102050647D01*
X115350258Y-102042965D01*
X115372204Y-102016343D01*
X115415967Y-101986663D01*
X115476184Y-101956409D01*
X115547491Y-101928064D01*
X115624525Y-101904114D01*
X115701924Y-101887042D01*
X115735055Y-101879368D01*
X115762778Y-101864971D01*
X115763127Y-101850442D01*
X115737140Y-101839168D01*
X115685852Y-101834534D01*
X115642118Y-101832882D01*
X115594269Y-101823683D01*
X115573752Y-101806061D01*
X115579780Y-101779611D01*
X115608409Y-101750594D01*
X115665181Y-101721976D01*
X115749585Y-101697040D01*
X115771218Y-101692127D01*
X115799729Y-101684550D01*
X115814515Y-101673620D01*
X115817862Y-101652854D01*
X115812056Y-101615770D01*
X115799386Y-101555885D01*
X115798799Y-101552936D01*
X115797877Y-101529506D01*
X115807578Y-101506633D01*
X115832009Y-101477873D01*
X115875273Y-101436786D01*
X115907500Y-101408017D01*
X115966570Y-101361487D01*
X116021665Y-101330178D01*
X116082956Y-101308956D01*
X116160613Y-101292684D01*
X116177259Y-101289528D01*
X116258499Y-101267872D01*
X116343101Y-101236687D01*
X116413590Y-101204414D01*
X118838624Y-101204414D01*
X118905310Y-101214237D01*
X118936976Y-101216363D01*
X118993991Y-101217440D01*
X119071401Y-101217451D01*
X119164559Y-101216425D01*
X119268816Y-101214388D01*
X119379522Y-101211371D01*
X119412211Y-101210379D01*
X119556700Y-101206819D01*
X119674271Y-101205500D01*
X119767118Y-101206438D01*
X119837434Y-101209652D01*
X119887411Y-101215155D01*
X119945951Y-101222925D01*
X120002225Y-101222761D01*
X120037591Y-101208946D01*
X120055950Y-101179635D01*
X120061202Y-101132984D01*
X120061265Y-101127133D01*
X120067798Y-101078345D01*
X120083384Y-101049385D01*
X120097760Y-101028613D01*
X120116666Y-100987387D01*
X120134954Y-100935827D01*
X120147984Y-100887680D01*
X120161397Y-100822369D01*
X120171166Y-100756734D01*
X120176779Y-100696638D01*
X120177726Y-100647941D01*
X120173493Y-100616503D01*
X120163569Y-100608187D01*
X120161978Y-100608840D01*
X120137458Y-100619361D01*
X120092554Y-100638940D01*
X120033087Y-100665031D01*
X119964878Y-100695087D01*
X119916971Y-100715291D01*
X119792416Y-100761695D01*
X119646096Y-100809224D01*
X119483272Y-100856119D01*
X119179495Y-100938631D01*
X119152107Y-100997693D01*
X119152029Y-100997860D01*
X119109036Y-101069701D01*
X119057963Y-101120817D01*
X119003256Y-101146757D01*
X118995472Y-101148567D01*
X118947840Y-101162553D01*
X118897900Y-101180554D01*
X118838624Y-101204414D01*
X116413590Y-101204414D01*
X116425736Y-101198853D01*
X116501077Y-101157254D01*
X116563797Y-101114771D01*
X116608568Y-101074288D01*
X116630064Y-101038686D01*
X116631606Y-101032880D01*
X116660441Y-100971983D01*
X116712172Y-100918919D01*
X116790166Y-100870142D01*
X116837988Y-100845351D01*
X116901387Y-100812478D01*
X116954160Y-100785107D01*
X116975616Y-100774261D01*
X117013231Y-100759068D01*
X117042303Y-100756791D01*
X117074507Y-100765534D01*
X117080441Y-100767601D01*
X117130729Y-100775837D01*
X117163951Y-100760412D01*
X117177645Y-100729643D01*
X117181631Y-100720687D01*
X117190767Y-100695371D01*
X117215990Y-100668331D01*
X117262926Y-100640533D01*
X117289636Y-100625184D01*
X117333052Y-100592617D01*
X117361255Y-100561463D01*
X117399507Y-100513713D01*
X117457684Y-100460779D01*
X117525941Y-100411378D01*
X117595338Y-100372719D01*
X117644675Y-100354413D01*
X117712907Y-100336161D01*
X117780577Y-100323868D01*
X117803617Y-100320807D01*
X117859652Y-100311647D01*
X117910773Y-100299526D01*
X117963181Y-100282221D01*
X118023072Y-100257509D01*
X118096647Y-100223164D01*
X118190105Y-100176965D01*
X118207625Y-100168234D01*
X118274191Y-100136029D01*
X118331126Y-100109949D01*
X118372860Y-100092478D01*
X118393822Y-100086102D01*
X118405798Y-100088233D01*
X118417834Y-100106094D01*
X118411568Y-100137965D01*
X118388580Y-100178833D01*
X118350452Y-100223685D01*
X118284625Y-100289511D01*
X118344293Y-100268954D01*
X118374784Y-100260244D01*
X118434177Y-100247986D01*
X118495329Y-100239520D01*
X118535337Y-100233461D01*
X118599872Y-100216344D01*
X118679472Y-100187551D01*
X118748914Y-100158213D01*
X118779347Y-100145355D01*
X118788584Y-100141275D01*
X118869683Y-100106127D01*
X118950511Y-100072137D01*
X119022163Y-100042999D01*
X119075730Y-100022409D01*
X119117136Y-100006034D01*
X119182645Y-99977943D01*
X119262413Y-99942243D01*
X119349957Y-99901840D01*
X119438799Y-99859640D01*
X119464419Y-99847330D01*
X119567149Y-99798943D01*
X119666939Y-99753361D01*
X119759836Y-99712275D01*
X119841886Y-99677376D01*
X119909136Y-99650355D01*
X119957634Y-99632902D01*
X119983425Y-99626709D01*
X119993517Y-99623733D01*
X120015655Y-99605793D01*
X120016918Y-99604242D01*
X120021877Y-99592656D01*
X120008923Y-99589661D01*
X120150117Y-99589661D01*
X120157527Y-99597071D01*
X120163569Y-99591028D01*
X120164936Y-99589661D01*
X120157527Y-99582252D01*
X120150117Y-99589661D01*
X120008923Y-99589661D01*
X120007664Y-99589370D01*
X119969308Y-99593013D01*
X119926207Y-99600299D01*
X119864676Y-99613423D01*
X119801867Y-99628977D01*
X119785858Y-99633038D01*
X119724833Y-99646524D01*
X119645958Y-99662021D01*
X119557679Y-99677919D01*
X119468437Y-99692607D01*
X119443641Y-99696524D01*
X119348139Y-99712414D01*
X119252107Y-99729472D01*
X119165498Y-99745888D01*
X119098266Y-99759855D01*
X118957791Y-99791303D01*
X118853750Y-99738578D01*
X118836916Y-99730187D01*
X118774982Y-99703328D01*
X118722662Y-99689657D01*
X118668203Y-99685832D01*
X118625310Y-99684337D01*
X118544311Y-99677111D01*
X118452898Y-99665254D01*
X118361076Y-99650289D01*
X118278849Y-99633737D01*
X118216220Y-99617117D01*
X118210538Y-99615245D01*
X118095755Y-99569005D01*
X117994720Y-99512458D01*
X117915360Y-99450007D01*
X117852483Y-99388988D01*
X117797510Y-99426343D01*
X117774325Y-99440532D01*
X117716680Y-99460212D01*
X117668796Y-99452940D01*
X117632425Y-99420002D01*
X117609317Y-99362683D01*
X117601226Y-99282270D01*
X117602259Y-99256270D01*
X117610708Y-99228270D01*
X117630864Y-99216067D01*
X117636817Y-99214231D01*
X117655860Y-99198677D01*
X117656339Y-99170409D01*
X117637642Y-99126497D01*
X117599159Y-99064013D01*
X117573476Y-99026738D01*
X117539903Y-98985155D01*
X117513516Y-98965921D01*
X117490232Y-98966607D01*
X117465969Y-98984784D01*
X117458713Y-98992354D01*
X117445987Y-99012621D01*
X117445176Y-99038599D01*
X117455009Y-99081490D01*
X117456117Y-99085785D01*
X117463903Y-99143247D01*
X117459700Y-99195503D01*
X117445038Y-99234722D01*
X117421450Y-99253071D01*
X117387533Y-99249877D01*
X117334282Y-99233126D01*
X117267537Y-99205207D01*
X117193047Y-99168524D01*
X117116562Y-99125484D01*
X116999232Y-99054966D01*
X116906617Y-99098055D01*
X116814001Y-99141144D01*
X116777859Y-99107189D01*
X116773770Y-99103075D01*
X116748786Y-99055868D01*
X116742366Y-98991389D01*
X116755191Y-98915391D01*
X116757033Y-98906835D01*
X116755393Y-98884998D01*
X116742705Y-98857401D01*
X116736511Y-98848401D01*
X117682885Y-98848401D01*
X117686431Y-98883830D01*
X117693803Y-98908117D01*
X117724520Y-98960136D01*
X117774092Y-99020526D01*
X117838119Y-99085270D01*
X117912200Y-99150353D01*
X117991936Y-99211761D01*
X118072924Y-99265478D01*
X118150765Y-99307489D01*
X118179480Y-99320323D01*
X118233214Y-99339610D01*
X118262998Y-99341699D01*
X118268647Y-99326789D01*
X118249977Y-99295082D01*
X118206803Y-99246776D01*
X118183738Y-99221860D01*
X118158079Y-99184742D01*
X118155212Y-99159074D01*
X118156006Y-99157121D01*
X118165383Y-99145342D01*
X118184776Y-99139652D01*
X118220652Y-99139227D01*
X118279477Y-99143242D01*
X118431834Y-99154904D01*
X118560826Y-99162425D01*
X118666874Y-99165208D01*
X118753214Y-99162890D01*
X118823084Y-99155109D01*
X118879722Y-99141500D01*
X118926364Y-99121700D01*
X118966247Y-99095347D01*
X119002609Y-99062076D01*
X119040500Y-99025315D01*
X119091121Y-98988112D01*
X119145858Y-98965960D01*
X119216512Y-98952834D01*
X119260668Y-98945431D01*
X119362960Y-98919382D01*
X119481478Y-98879673D01*
X119610703Y-98828245D01*
X119745114Y-98767038D01*
X119758587Y-98760541D01*
X119861957Y-98713195D01*
X119951091Y-98678434D01*
X120035662Y-98653331D01*
X120125342Y-98634960D01*
X120157527Y-98630472D01*
X120229806Y-98620394D01*
X120252581Y-98617577D01*
X120315728Y-98607285D01*
X120368025Y-98592590D01*
X120421335Y-98569520D01*
X120487524Y-98534104D01*
X120503805Y-98524706D01*
X120577109Y-98477431D01*
X120651401Y-98423106D01*
X120668726Y-98408612D01*
X120712844Y-98371703D01*
X120812002Y-98280000D01*
X120829731Y-98135734D01*
X120830437Y-98130048D01*
X120844658Y-98036841D01*
X120860867Y-97970833D01*
X120879803Y-97929733D01*
X120902207Y-97911247D01*
X120916698Y-97914802D01*
X120932716Y-97937556D01*
X120935341Y-97942618D01*
X120942895Y-97942547D01*
X120954046Y-97925160D01*
X120970049Y-97887694D01*
X120992153Y-97827388D01*
X121021612Y-97741483D01*
X121039304Y-97688629D01*
X121062585Y-97617950D01*
X121080940Y-97560834D01*
X121092824Y-97522111D01*
X121096693Y-97506612D01*
X121095302Y-97499477D01*
X121090382Y-97469678D01*
X121083614Y-97426067D01*
X121080163Y-97406157D01*
X121065942Y-97345311D01*
X121049169Y-97292695D01*
X121046780Y-97286491D01*
X121026907Y-97228923D01*
X121010348Y-97172434D01*
X121006752Y-97160608D01*
X120972997Y-97100161D01*
X120915346Y-97037856D01*
X120837951Y-96977591D01*
X120744966Y-96923266D01*
X120739316Y-96920439D01*
X120681711Y-96894454D01*
X120624813Y-96875611D01*
X120558515Y-96861122D01*
X120472710Y-96848201D01*
X120414673Y-96840645D01*
X120360689Y-96834587D01*
X120324750Y-96833027D01*
X120300462Y-96836276D01*
X120281430Y-96844643D01*
X120261261Y-96858438D01*
X120257814Y-96860977D01*
X120222832Y-96890254D01*
X120198269Y-96916403D01*
X120191076Y-96923855D01*
X120151021Y-96944329D01*
X120083877Y-96962839D01*
X119991514Y-96979034D01*
X119875800Y-96992560D01*
X119738604Y-97003067D01*
X119664246Y-97007976D01*
X119546768Y-97018582D01*
X119448017Y-97032705D01*
X119360937Y-97052061D01*
X119278471Y-97078369D01*
X119193563Y-97113346D01*
X119099156Y-97158709D01*
X119077205Y-97169836D01*
X119007777Y-97206637D01*
X118949207Y-97241563D01*
X118895211Y-97279259D01*
X118839507Y-97324371D01*
X118775811Y-97381543D01*
X118697842Y-97455420D01*
X118673845Y-97478140D01*
X118603797Y-97541331D01*
X118533465Y-97600855D01*
X118469873Y-97650891D01*
X118420043Y-97685621D01*
X118397734Y-97699720D01*
X118338252Y-97738738D01*
X118265478Y-97787789D01*
X118186609Y-97841998D01*
X118108841Y-97896489D01*
X118009831Y-97964993D01*
X117902835Y-98033930D01*
X117804521Y-98090676D01*
X117707694Y-98139591D01*
X117707622Y-98139641D01*
X117711767Y-98153539D01*
X117726400Y-98186572D01*
X117748447Y-98231788D01*
X117775893Y-98296280D01*
X117790848Y-98363628D01*
X117792128Y-98439068D01*
X117780765Y-98532190D01*
X117769423Y-98600973D01*
X117900716Y-98708840D01*
X117944741Y-98744754D01*
X118003520Y-98791998D01*
X118054735Y-98832405D01*
X118090771Y-98859921D01*
X118108681Y-98874385D01*
X118138080Y-98906052D01*
X118149534Y-98931492D01*
X118149464Y-98934612D01*
X118143402Y-98950583D01*
X118122389Y-98958000D01*
X118079143Y-98959793D01*
X118018708Y-98952921D01*
X117962032Y-98931249D01*
X117950944Y-98924519D01*
X117925624Y-98911160D01*
X117914188Y-98913418D01*
X117907847Y-98931304D01*
X117907713Y-98931810D01*
X117889872Y-98956585D01*
X117857917Y-98957481D01*
X117814277Y-98935176D01*
X117761382Y-98890351D01*
X117761188Y-98890160D01*
X117724910Y-98856140D01*
X117697482Y-98833585D01*
X117684829Y-98827369D01*
X117684309Y-98828180D01*
X117682885Y-98848401D01*
X116736511Y-98848401D01*
X116716024Y-98818636D01*
X116672408Y-98763295D01*
X116619979Y-98697005D01*
X116574043Y-98632339D01*
X116542700Y-98576031D01*
X116522783Y-98520966D01*
X116511127Y-98460030D01*
X116504565Y-98386108D01*
X116501798Y-98345053D01*
X116495943Y-98290124D01*
X116486773Y-98250668D01*
X116471801Y-98217619D01*
X116448539Y-98181912D01*
X116439297Y-98168291D01*
X116413967Y-98123103D01*
X116401726Y-98087414D01*
X116403745Y-98066243D01*
X116421192Y-98064607D01*
X116432861Y-98065320D01*
X116450365Y-98049323D01*
X116466798Y-98033642D01*
X116504144Y-98026242D01*
X116520221Y-98025924D01*
X116539967Y-98020326D01*
X116547722Y-98001345D01*
X116549067Y-97960860D01*
X116551858Y-97911514D01*
X116561877Y-97835844D01*
X116577066Y-97755043D01*
X116595191Y-97680687D01*
X116614018Y-97624353D01*
X116625471Y-97600903D01*
X116654874Y-97551320D01*
X116669844Y-97529801D01*
X118520012Y-97529801D01*
X118527422Y-97537211D01*
X118534831Y-97529801D01*
X118527422Y-97522392D01*
X118520012Y-97529801D01*
X116669844Y-97529801D01*
X116688859Y-97502467D01*
X116702837Y-97482016D01*
X116733797Y-97426981D01*
X116766228Y-97359361D01*
X116795041Y-97289362D01*
X116834792Y-97187701D01*
X116885242Y-97074614D01*
X116932849Y-96987597D01*
X116978545Y-96924796D01*
X116993479Y-96907245D01*
X117029357Y-96863285D01*
X117073046Y-96808296D01*
X117118207Y-96750203D01*
X117213468Y-96626181D01*
X117099850Y-96607515D01*
X117090400Y-96605917D01*
X117004333Y-96588163D01*
X116910918Y-96564270D01*
X116819308Y-96536945D01*
X116738658Y-96508894D01*
X116678120Y-96482824D01*
X116617832Y-96444368D01*
X116560642Y-96392203D01*
X116517740Y-96335920D01*
X116495824Y-96282870D01*
X116483096Y-96245656D01*
X116456692Y-96194214D01*
X116423107Y-96142628D01*
X116395016Y-96102207D01*
X116335811Y-96004753D01*
X116277903Y-95895209D01*
X116266320Y-95870073D01*
X118534831Y-95870073D01*
X118534930Y-95874794D01*
X118537135Y-95880902D01*
X118545166Y-95883441D01*
X118562803Y-95881656D01*
X118593829Y-95874794D01*
X118642023Y-95862099D01*
X118711168Y-95842820D01*
X118805043Y-95816202D01*
X119008569Y-95758385D01*
X119070306Y-95803107D01*
X119079195Y-95809422D01*
X119131412Y-95839044D01*
X119174526Y-95846512D01*
X119215876Y-95833350D01*
X119216197Y-95833183D01*
X119241620Y-95825833D01*
X119289577Y-95816594D01*
X119353313Y-95806629D01*
X119426074Y-95797105D01*
X119492879Y-95788672D01*
X119580904Y-95776366D01*
X119662537Y-95763774D01*
X119726238Y-95752606D01*
X119742347Y-95749438D01*
X119794659Y-95738569D01*
X119832395Y-95729823D01*
X119848276Y-95724855D01*
X119848381Y-95723804D01*
X119838421Y-95706632D01*
X119814217Y-95673041D01*
X119779776Y-95628164D01*
X119739102Y-95577137D01*
X119696200Y-95525093D01*
X119655076Y-95477168D01*
X119646634Y-95465973D01*
X119621871Y-95425808D01*
X119588485Y-95365614D01*
X119548920Y-95290003D01*
X119505620Y-95203585D01*
X119461027Y-95110973D01*
X119434556Y-95055109D01*
X119394719Y-94972050D01*
X119360047Y-94900988D01*
X119332380Y-94845638D01*
X119313559Y-94809717D01*
X119305426Y-94796940D01*
X119302092Y-94800251D01*
X119287480Y-94823910D01*
X119264971Y-94865344D01*
X119237858Y-94918620D01*
X119177486Y-95035637D01*
X119096789Y-95174459D01*
X119012615Y-95297301D01*
X118919677Y-95411708D01*
X118812690Y-95525222D01*
X118770598Y-95567651D01*
X118718071Y-95621899D01*
X118676228Y-95666673D01*
X118648563Y-95698215D01*
X118638565Y-95712764D01*
X118634393Y-95723129D01*
X118615563Y-95751670D01*
X118586698Y-95788553D01*
X118566713Y-95813983D01*
X118543767Y-95848502D01*
X118534831Y-95870073D01*
X116266320Y-95870073D01*
X116226986Y-95784712D01*
X116188753Y-95684394D01*
X116179629Y-95654004D01*
X116162034Y-95586842D01*
X116142182Y-95503164D01*
X116121884Y-95410730D01*
X116102954Y-95317302D01*
X116053441Y-95060929D01*
X116027905Y-95136054D01*
X116018325Y-95162012D01*
X115995646Y-95213335D01*
X115974051Y-95251646D01*
X115966131Y-95264791D01*
X115955361Y-95293654D01*
X115947385Y-95335275D01*
X115941263Y-95395280D01*
X115936058Y-95479297D01*
X115931848Y-95550659D01*
X115925546Y-95638027D01*
X115918657Y-95717963D01*
X115912068Y-95779378D01*
X115906881Y-95840055D01*
X115905565Y-95949023D01*
X115911872Y-96073814D01*
X115918569Y-96169708D01*
X115924941Y-96310319D01*
X115925438Y-96426699D01*
X115920134Y-96517868D01*
X115909101Y-96582849D01*
X115892414Y-96620663D01*
X115870145Y-96630334D01*
X115863619Y-96627251D01*
X115851784Y-96611239D01*
X115839769Y-96580077D01*
X115827182Y-96531718D01*
X115813632Y-96464112D01*
X115798727Y-96375208D01*
X115782074Y-96262959D01*
X115763282Y-96125315D01*
X115741958Y-95960226D01*
X115739835Y-95943488D01*
X115726165Y-95837463D01*
X115713478Y-95741902D01*
X115702302Y-95660596D01*
X115693169Y-95597333D01*
X115686608Y-95555905D01*
X115683152Y-95540102D01*
X115668120Y-95538583D01*
X115650875Y-95559052D01*
X115637619Y-95596226D01*
X115632657Y-95613888D01*
X115613819Y-95651510D01*
X115590545Y-95674597D01*
X115568895Y-95676106D01*
X115561120Y-95669805D01*
X115543902Y-95639769D01*
X115531425Y-95588366D01*
X115523180Y-95512898D01*
X115518655Y-95410665D01*
X115517136Y-95355295D01*
X115514042Y-95293820D01*
X115508340Y-95247545D01*
X115498279Y-95207907D01*
X115482108Y-95166340D01*
X115458078Y-95114282D01*
X115448967Y-95095126D01*
X115435029Y-95065049D01*
X115423748Y-95037410D01*
X115414634Y-95008650D01*
X115407197Y-94975211D01*
X115400948Y-94933535D01*
X115395397Y-94880064D01*
X115390055Y-94811238D01*
X115385778Y-94744513D01*
X116772390Y-94744513D01*
X116779562Y-94860181D01*
X116795617Y-94999810D01*
X116819956Y-95181721D01*
X116891857Y-95257109D01*
X116925083Y-95295697D01*
X116959378Y-95345539D01*
X116978311Y-95386538D01*
X116982843Y-95401592D01*
X117016962Y-95475444D01*
X117065678Y-95543795D01*
X117120748Y-95594607D01*
X117167186Y-95620394D01*
X117224568Y-95635758D01*
X117289533Y-95635007D01*
X117366003Y-95617579D01*
X117457898Y-95582914D01*
X117569139Y-95530451D01*
X117609019Y-95509676D01*
X117690186Y-95460057D01*
X117747255Y-95410276D01*
X117783708Y-95355733D01*
X117803027Y-95291830D01*
X117808694Y-95213966D01*
X117809538Y-95173847D01*
X117814639Y-95141103D01*
X117827719Y-95110897D01*
X117852499Y-95074842D01*
X117892699Y-95024546D01*
X117915302Y-94997201D01*
X117969851Y-94932822D01*
X118030216Y-94863150D01*
X118086975Y-94799117D01*
X118113222Y-94769571D01*
X118159379Y-94713604D01*
X118192848Y-94664043D01*
X118219710Y-94611190D01*
X118246045Y-94545347D01*
X118255448Y-94520761D01*
X118282798Y-94455156D01*
X118309962Y-94397028D01*
X118332241Y-94356662D01*
X118353921Y-94316357D01*
X118379005Y-94257278D01*
X118400117Y-94195496D01*
X118415444Y-94138719D01*
X118432060Y-94067112D01*
X118443421Y-94006552D01*
X118449737Y-93960219D01*
X118449972Y-93934028D01*
X118445905Y-93928453D01*
X118493540Y-93928453D01*
X118495314Y-93946040D01*
X118499771Y-93948359D01*
X118505193Y-93936161D01*
X118504123Y-93928315D01*
X118495314Y-93926281D01*
X118493540Y-93928453D01*
X118445905Y-93928453D01*
X118442273Y-93923474D01*
X118425149Y-93921635D01*
X118404706Y-93927448D01*
X118363352Y-93946206D01*
X118308950Y-93974827D01*
X118247900Y-94010114D01*
X118203309Y-94036411D01*
X118048045Y-94116906D01*
X117899543Y-94174354D01*
X117751020Y-94210540D01*
X117595692Y-94227249D01*
X117426776Y-94226269D01*
X117336198Y-94220517D01*
X117202865Y-94208009D01*
X117083168Y-94191823D01*
X116982431Y-94172725D01*
X116905976Y-94151479D01*
X116887138Y-94145039D01*
X116849154Y-94133415D01*
X116827580Y-94128809D01*
X116824940Y-94130858D01*
X116820486Y-94155092D01*
X116819844Y-94203774D01*
X116823126Y-94273296D01*
X116824838Y-94300299D01*
X116827265Y-94365812D01*
X116824884Y-94415175D01*
X116816792Y-94458354D01*
X116802085Y-94505313D01*
X116784923Y-94567731D01*
X116774158Y-94648474D01*
X116772390Y-94744513D01*
X115385778Y-94744513D01*
X115384431Y-94723502D01*
X115378036Y-94613294D01*
X115370381Y-94477059D01*
X115360393Y-94299230D01*
X115412635Y-94213173D01*
X115421287Y-94198358D01*
X115458380Y-94115113D01*
X115482358Y-94018758D01*
X115494116Y-93904415D01*
X115494331Y-93836597D01*
X116771822Y-93836597D01*
X116777152Y-93866587D01*
X116793094Y-93886157D01*
X116807027Y-93890646D01*
X116830832Y-93889654D01*
X116832468Y-93871494D01*
X116810794Y-93839195D01*
X116772291Y-93795379D01*
X116771822Y-93836597D01*
X115494331Y-93836597D01*
X115494551Y-93767206D01*
X115493857Y-93747515D01*
X115490096Y-93679320D01*
X115484274Y-93633235D01*
X115475318Y-93603161D01*
X115462156Y-93582998D01*
X115448858Y-93567115D01*
X115431169Y-93539103D01*
X115417678Y-93504786D01*
X115407830Y-93460276D01*
X115401074Y-93401688D01*
X115396856Y-93325134D01*
X115394624Y-93226729D01*
X115393825Y-93102584D01*
X115393562Y-93007753D01*
X115392932Y-92922029D01*
X115391661Y-92859296D01*
X115389444Y-92815982D01*
X115385976Y-92788514D01*
X115383249Y-92780268D01*
X116452743Y-92780268D01*
X116455784Y-92784703D01*
X116468436Y-92795087D01*
X116469915Y-92794702D01*
X116474971Y-92780268D01*
X116474368Y-92776206D01*
X116459278Y-92765449D01*
X116453917Y-92766612D01*
X116452743Y-92780268D01*
X115383249Y-92780268D01*
X115380951Y-92773318D01*
X115374064Y-92766821D01*
X115365009Y-92765449D01*
X115351730Y-92766040D01*
X115302112Y-92771866D01*
X115232028Y-92782995D01*
X115147369Y-92798289D01*
X115054022Y-92816610D01*
X114957880Y-92836820D01*
X114864831Y-92857781D01*
X114780764Y-92878354D01*
X114743949Y-92887714D01*
X114664531Y-92906533D01*
X114609196Y-92917018D01*
X114574929Y-92919669D01*
X114558716Y-92914982D01*
X114553382Y-92908168D01*
X114552986Y-92893425D01*
X114569485Y-92876562D01*
X114605698Y-92855805D01*
X114664445Y-92829380D01*
X114748542Y-92795515D01*
X114787961Y-92779873D01*
X114883375Y-92740232D01*
X116605481Y-92740232D01*
X116613753Y-92815822D01*
X116614681Y-92825018D01*
X116618609Y-92874494D01*
X116623084Y-92943540D01*
X116627622Y-93024292D01*
X116631740Y-93108885D01*
X116641454Y-93326359D01*
X116676722Y-93310289D01*
X116679468Y-93309084D01*
X116718831Y-93301860D01*
X116770415Y-93311725D01*
X116791180Y-93319045D01*
X116828085Y-93344610D01*
X116842911Y-93384016D01*
X116838465Y-93442666D01*
X116835935Y-93454425D01*
X116818644Y-93490575D01*
X116784391Y-93511615D01*
X116772679Y-93516416D01*
X116749278Y-93533859D01*
X116748123Y-93558119D01*
X116752192Y-93577464D01*
X116756332Y-93619233D01*
X116764355Y-93647933D01*
X116772291Y-93658396D01*
X116793472Y-93686322D01*
X116835759Y-93718726D01*
X116882598Y-93737099D01*
X116903165Y-93739911D01*
X116952775Y-93733092D01*
X116987661Y-93702081D01*
X117010586Y-93644885D01*
X117028220Y-93601760D01*
X117068791Y-93539269D01*
X119993041Y-93539269D01*
X120007065Y-93568626D01*
X120011159Y-93574358D01*
X120034827Y-93607501D01*
X120068217Y-93654270D01*
X120105476Y-93706464D01*
X120114146Y-93718833D01*
X120150569Y-93775534D01*
X120180403Y-93829099D01*
X120197882Y-93869369D01*
X120208503Y-93897153D01*
X120234879Y-93950599D01*
X120266265Y-94002741D01*
X120303100Y-94058663D01*
X120324750Y-94095293D01*
X120347550Y-94133869D01*
X120378128Y-94201395D01*
X120397961Y-94270468D01*
X120410175Y-94350315D01*
X120417898Y-94450160D01*
X120417938Y-94450851D01*
X120423725Y-94533360D01*
X120431123Y-94613795D01*
X120439185Y-94682976D01*
X120446964Y-94731723D01*
X120450168Y-94746247D01*
X120467922Y-94808326D01*
X120490006Y-94865956D01*
X120512946Y-94910951D01*
X120533269Y-94935126D01*
X120536143Y-94934283D01*
X120544576Y-94914067D01*
X120553900Y-94873135D01*
X120562571Y-94817680D01*
X120572287Y-94755871D01*
X120604271Y-94624673D01*
X120648721Y-94504670D01*
X120702630Y-94404729D01*
X120720757Y-94373447D01*
X120749977Y-94312699D01*
X120780279Y-94240272D01*
X120807411Y-94165857D01*
X120827994Y-94105511D01*
X120848290Y-94048568D01*
X120863986Y-94007327D01*
X120872786Y-93988028D01*
X120877256Y-93983460D01*
X120903472Y-93965056D01*
X120941560Y-93943570D01*
X120964212Y-93930024D01*
X120993439Y-93904660D01*
X121021154Y-93869022D01*
X121048835Y-93820038D01*
X121077959Y-93754635D01*
X121110003Y-93669739D01*
X121146442Y-93562276D01*
X121188755Y-93429175D01*
X121205017Y-93376978D01*
X121234008Y-93284160D01*
X121259990Y-93201271D01*
X121281517Y-93132907D01*
X121297144Y-93083661D01*
X121305428Y-93058127D01*
X121319287Y-93017374D01*
X121232447Y-93017374D01*
X121175053Y-93019402D01*
X121080805Y-93030468D01*
X120989281Y-93049624D01*
X120905862Y-93075116D01*
X120835930Y-93105188D01*
X120784866Y-93138087D01*
X120758050Y-93172058D01*
X120756817Y-93175094D01*
X120725035Y-93217382D01*
X120665867Y-93262701D01*
X120581153Y-93310127D01*
X120472735Y-93358738D01*
X120342451Y-93407612D01*
X120192143Y-93455825D01*
X120182754Y-93458632D01*
X120113824Y-93479919D01*
X120055825Y-93498967D01*
X120014606Y-93513790D01*
X119996018Y-93522401D01*
X119993041Y-93539269D01*
X117068791Y-93539269D01*
X117069025Y-93538908D01*
X117126761Y-93469922D01*
X117196925Y-93400085D01*
X117275012Y-93334681D01*
X117289982Y-93322831D01*
X117323784Y-93290928D01*
X117354350Y-93251841D01*
X117386511Y-93198826D01*
X117425097Y-93125138D01*
X117449052Y-93078361D01*
X117480171Y-93022339D01*
X117505810Y-92984784D01*
X117529844Y-92960326D01*
X117556152Y-92943593D01*
X117585265Y-92930635D01*
X117675953Y-92905076D01*
X117790309Y-92889358D01*
X117925097Y-92884002D01*
X117968747Y-92883581D01*
X118029329Y-92880320D01*
X118068170Y-92873261D01*
X118090311Y-92861724D01*
X118092253Y-92860170D01*
X118121587Y-92847410D01*
X118169825Y-92834907D01*
X118227573Y-92825165D01*
X118291855Y-92814640D01*
X118368705Y-92797682D01*
X118425149Y-92781542D01*
X118433820Y-92779063D01*
X118481410Y-92764478D01*
X118495314Y-92761840D01*
X118527422Y-92755747D01*
X118530962Y-92755075D01*
X118585994Y-92752490D01*
X118658427Y-92755470D01*
X118681383Y-92756680D01*
X118743327Y-92757700D01*
X118794257Y-92755445D01*
X118824921Y-92750205D01*
X118829817Y-92748276D01*
X118849257Y-92735806D01*
X118855658Y-92714110D01*
X118852583Y-92673280D01*
X118850037Y-92636290D01*
X118856370Y-92593875D01*
X118874911Y-92575842D01*
X118904656Y-92583914D01*
X118926693Y-92596688D01*
X118942748Y-92598372D01*
X118953754Y-92580856D01*
X118966192Y-92539457D01*
X118973353Y-92496083D01*
X118978360Y-92426865D01*
X118980998Y-92335776D01*
X118981084Y-92226670D01*
X118980897Y-92206813D01*
X118981065Y-92103051D01*
X118983520Y-92027479D01*
X118988324Y-91978926D01*
X118995540Y-91956221D01*
X118998433Y-91952723D01*
X119006224Y-91941861D01*
X119003626Y-91937778D01*
X118986228Y-91941181D01*
X118949616Y-91952780D01*
X118889381Y-91973285D01*
X118878909Y-91976796D01*
X118765803Y-92007492D01*
X118636740Y-92031963D01*
X118503842Y-92048280D01*
X118379230Y-92054511D01*
X118260677Y-92055067D01*
X118222226Y-92118504D01*
X118204068Y-92145715D01*
X118160849Y-92190019D01*
X118107104Y-92216994D01*
X118037109Y-92228903D01*
X117945138Y-92228009D01*
X117899046Y-92225606D01*
X117847711Y-92225863D01*
X117802304Y-92231952D01*
X117751680Y-92245608D01*
X117684694Y-92268567D01*
X117665298Y-92275800D01*
X117588189Y-92308999D01*
X117511318Y-92347781D01*
X117448785Y-92385177D01*
X117356209Y-92439842D01*
X117240382Y-92483989D01*
X117128028Y-92498787D01*
X117057530Y-92504373D01*
X116978538Y-92524074D01*
X116911446Y-92555260D01*
X116862118Y-92595076D01*
X116836419Y-92640670D01*
X116834243Y-92647644D01*
X116805187Y-92684830D01*
X116750749Y-92713109D01*
X116673854Y-92730860D01*
X116605481Y-92740232D01*
X114883375Y-92740232D01*
X114884191Y-92739893D01*
X114980193Y-92697769D01*
X115072083Y-92655417D01*
X115155977Y-92614748D01*
X115227991Y-92577677D01*
X115284238Y-92546117D01*
X115320835Y-92521981D01*
X115333898Y-92507183D01*
X115328554Y-92493361D01*
X115303285Y-92483885D01*
X115263247Y-92477047D01*
X115228652Y-92454586D01*
X115215345Y-92421894D01*
X115214042Y-92407813D01*
X115206171Y-92398740D01*
X115185984Y-92394922D01*
X115147734Y-92395341D01*
X115085674Y-92398984D01*
X115011450Y-92401830D01*
X114955476Y-92398605D01*
X114920887Y-92388591D01*
X114885770Y-92369797D01*
X114919515Y-92338359D01*
X114952262Y-92316580D01*
X115013457Y-92289249D01*
X115096332Y-92260604D01*
X115196821Y-92232199D01*
X115232956Y-92219808D01*
X115256477Y-92199674D01*
X115250609Y-92175757D01*
X115215345Y-92148097D01*
X115210957Y-92145420D01*
X115182518Y-92122906D01*
X115170887Y-92104120D01*
X115171826Y-92099342D01*
X115188693Y-92075034D01*
X115219930Y-92045650D01*
X115256653Y-92018799D01*
X115289980Y-92002092D01*
X115294943Y-92000180D01*
X115311723Y-91980618D01*
X115309181Y-91952544D01*
X115291488Y-91923344D01*
X115286974Y-91919733D01*
X119034136Y-91919733D01*
X119046435Y-91941432D01*
X119050930Y-91949487D01*
X119066947Y-91989897D01*
X119085709Y-92049648D01*
X119105295Y-92121422D01*
X119123787Y-92197900D01*
X119139266Y-92271764D01*
X119149813Y-92335694D01*
X119150495Y-92340823D01*
X119160428Y-92401970D01*
X119170653Y-92433957D01*
X119182364Y-92437213D01*
X119196754Y-92412172D01*
X119215020Y-92359264D01*
X119215609Y-92357352D01*
X119231017Y-92304513D01*
X119241977Y-92261624D01*
X119246150Y-92237809D01*
X119247556Y-92228629D01*
X119262434Y-92217726D01*
X119286754Y-92225405D01*
X119305426Y-92243655D01*
X119311996Y-92250076D01*
X119326471Y-92278952D01*
X119335292Y-92320467D01*
X119338236Y-92351248D01*
X119355621Y-92379786D01*
X119393149Y-92391536D01*
X119430320Y-92401020D01*
X119459384Y-92429216D01*
X119468437Y-92478290D01*
X119468810Y-92492445D01*
X119475840Y-92520388D01*
X119494370Y-92528100D01*
X119514068Y-92525430D01*
X119558547Y-92517316D01*
X119622099Y-92504760D01*
X119699595Y-92488778D01*
X119785906Y-92470385D01*
X119866472Y-92453102D01*
X119941103Y-92437808D01*
X119995675Y-92428063D01*
X120035023Y-92423317D01*
X120063984Y-92423020D01*
X120087393Y-92426624D01*
X120110086Y-92433580D01*
X120137556Y-92442563D01*
X120169707Y-92450028D01*
X120203756Y-92453004D01*
X120243469Y-92450856D01*
X120292612Y-92442948D01*
X120354951Y-92428646D01*
X120434251Y-92407314D01*
X120534279Y-92378316D01*
X120658800Y-92341018D01*
X120775909Y-92306268D01*
X120942224Y-92259294D01*
X121088912Y-92220924D01*
X121214801Y-92191379D01*
X121318715Y-92170882D01*
X121319287Y-92170802D01*
X121399482Y-92159653D01*
X121455926Y-92157915D01*
X121486875Y-92165889D01*
X121491153Y-92183798D01*
X121479153Y-92214304D01*
X121470477Y-92245241D01*
X121475655Y-92255548D01*
X121494892Y-92248795D01*
X121497286Y-92247480D01*
X121546913Y-92205647D01*
X121593807Y-92139650D01*
X121634234Y-92054688D01*
X121652575Y-92011175D01*
X121669632Y-91977934D01*
X121680484Y-91965216D01*
X121691896Y-91974844D01*
X121706126Y-92002263D01*
X121718575Y-92027034D01*
X121731693Y-92038913D01*
X121732930Y-92038658D01*
X121747026Y-92022116D01*
X121766534Y-91984370D01*
X121788876Y-91931869D01*
X121811472Y-91871064D01*
X121831743Y-91808404D01*
X121847108Y-91750338D01*
X121856283Y-91711149D01*
X121876899Y-91630286D01*
X121900416Y-91544867D01*
X121924850Y-91461563D01*
X121948214Y-91387044D01*
X121968526Y-91327979D01*
X121983798Y-91291038D01*
X121989637Y-91280288D01*
X122017257Y-91236393D01*
X122049368Y-91192020D01*
X122062618Y-91173963D01*
X122079186Y-91144968D01*
X122080543Y-91130368D01*
X122075419Y-91127556D01*
X122035684Y-91113498D01*
X121977469Y-91099641D01*
X121909952Y-91087664D01*
X121842312Y-91079246D01*
X121783729Y-91076067D01*
X121753415Y-91076416D01*
X121605578Y-91088462D01*
X121469744Y-91116712D01*
X121350910Y-91159840D01*
X121254077Y-91216521D01*
X121223820Y-91233449D01*
X121176915Y-91249428D01*
X121109465Y-91265248D01*
X121016970Y-91282155D01*
X121005770Y-91284046D01*
X120908056Y-91301433D01*
X120807932Y-91320643D01*
X120710669Y-91340533D01*
X120621535Y-91359959D01*
X120545800Y-91377777D01*
X120488733Y-91392843D01*
X120455603Y-91404013D01*
X120427276Y-91425300D01*
X120400394Y-91459454D01*
X120378990Y-91485949D01*
X120338413Y-91515303D01*
X120277801Y-91544900D01*
X120194075Y-91576212D01*
X120084158Y-91610713D01*
X119928040Y-91656759D01*
X119862462Y-91625013D01*
X119844332Y-91616553D01*
X119769464Y-91590711D01*
X119695597Y-91583548D01*
X119609566Y-91593419D01*
X119564419Y-91604149D01*
X119484697Y-91636984D01*
X119423317Y-91682164D01*
X119385672Y-91736247D01*
X119384087Y-91739902D01*
X119360920Y-91775263D01*
X119323389Y-91806086D01*
X119267719Y-91834324D01*
X119190137Y-91861927D01*
X119086872Y-91890850D01*
X119062350Y-91897374D01*
X119037760Y-91907150D01*
X119034136Y-91919733D01*
X115286974Y-91919733D01*
X115262815Y-91900407D01*
X115227331Y-91891120D01*
X115225736Y-91891097D01*
X115209966Y-91885118D01*
X115202445Y-91863716D01*
X115200526Y-91819857D01*
X115200529Y-91817769D01*
X115205725Y-91755761D01*
X115223027Y-91718367D01*
X115255732Y-91701972D01*
X115307136Y-91702962D01*
X115333302Y-91705139D01*
X115372021Y-91700136D01*
X115405379Y-91681510D01*
X115435726Y-91646196D01*
X115465412Y-91591133D01*
X115496787Y-91513254D01*
X115532199Y-91409498D01*
X115556244Y-91334646D01*
X115592405Y-91216256D01*
X115618685Y-91117954D01*
X115635476Y-91034801D01*
X115643173Y-90961860D01*
X115642169Y-90894192D01*
X115632858Y-90826860D01*
X115615634Y-90754927D01*
X115590890Y-90673454D01*
X115588000Y-90664482D01*
X115564851Y-90589440D01*
X115549920Y-90530439D01*
X115541463Y-90476763D01*
X115537734Y-90417695D01*
X115536987Y-90342520D01*
X115538008Y-90291530D01*
X115543121Y-90194624D01*
X115551540Y-90092973D01*
X115562149Y-90001680D01*
X115567604Y-89954839D01*
X115575012Y-89863324D01*
X115581675Y-89746836D01*
X115587500Y-89608138D01*
X115592389Y-89449994D01*
X115596249Y-89275170D01*
X115598984Y-89086431D01*
X115600500Y-88886540D01*
X115602347Y-88873471D01*
X115619368Y-88854991D01*
X115647474Y-88856614D01*
X115678368Y-88879130D01*
X115695484Y-88907904D01*
X115716882Y-88961561D01*
X115739160Y-89032204D01*
X115760314Y-89113427D01*
X115778342Y-89198824D01*
X115779291Y-89203866D01*
X115789878Y-89250596D01*
X115799986Y-89280654D01*
X115807543Y-89287738D01*
X115812645Y-89279408D01*
X115826949Y-89248270D01*
X115843876Y-89205305D01*
X115857855Y-89170733D01*
X115880128Y-89133261D01*
X115901429Y-89123201D01*
X115922878Y-89141055D01*
X115945594Y-89187331D01*
X115970696Y-89262531D01*
X116004210Y-89375422D01*
X116066136Y-89366934D01*
X116078886Y-89365073D01*
X116122266Y-89357159D01*
X116151250Y-89349548D01*
X116159470Y-89347967D01*
X116191713Y-89358670D01*
X116229417Y-89388976D01*
X116266877Y-89433550D01*
X116298385Y-89487061D01*
X116311102Y-89513580D01*
X116327913Y-89547454D01*
X116336605Y-89563298D01*
X116342919Y-89560470D01*
X116366730Y-89541495D01*
X116403675Y-89508572D01*
X116449055Y-89465776D01*
X116459278Y-89456009D01*
X116479020Y-89437148D01*
X116523853Y-89395479D01*
X116559073Y-89364175D01*
X116578918Y-89348441D01*
X116597713Y-89332211D01*
X116629028Y-89299310D01*
X116664891Y-89257756D01*
X116698686Y-89219824D01*
X116741043Y-89178697D01*
X116775821Y-89151481D01*
X116785374Y-89145754D01*
X116810968Y-89133804D01*
X116838955Y-89129132D01*
X116878263Y-89131043D01*
X116937822Y-89138840D01*
X116982486Y-89144788D01*
X117022913Y-89147762D01*
X117061748Y-89146265D01*
X117106550Y-89139515D01*
X117164879Y-89126730D01*
X117244296Y-89107128D01*
X117316568Y-89089188D01*
X117373749Y-89076140D01*
X117413102Y-89069498D01*
X117440299Y-89068660D01*
X117461012Y-89073023D01*
X117480913Y-89081984D01*
X117523502Y-89096607D01*
X117597770Y-89102589D01*
X117682731Y-89091849D01*
X117714266Y-89089319D01*
X117769702Y-89102976D01*
X117777801Y-89106490D01*
X117833649Y-89114272D01*
X117908523Y-89102051D01*
X118003192Y-89069637D01*
X118118426Y-89016839D01*
X118257738Y-88946999D01*
X118126073Y-88905947D01*
X118123088Y-88905014D01*
X118016848Y-88867560D01*
X117911109Y-88821353D01*
X117802381Y-88764273D01*
X117687175Y-88694201D01*
X117562002Y-88609020D01*
X117423372Y-88506610D01*
X117267795Y-88384853D01*
X117223475Y-88348882D01*
X117114541Y-88256536D01*
X117003396Y-88157379D01*
X116893681Y-88055005D01*
X116789036Y-87953009D01*
X116693103Y-87854987D01*
X116609520Y-87764534D01*
X116596424Y-87749171D01*
X116637982Y-87749171D01*
X116645391Y-87756581D01*
X116652801Y-87749171D01*
X116645391Y-87741762D01*
X116637982Y-87749171D01*
X116596424Y-87749171D01*
X116554247Y-87699693D01*
X116612591Y-87699693D01*
X116614338Y-87709834D01*
X116618912Y-87716417D01*
X116631447Y-87726942D01*
X116633518Y-87726798D01*
X116636782Y-87718220D01*
X116620873Y-87703299D01*
X116612591Y-87699693D01*
X116554247Y-87699693D01*
X116541929Y-87685243D01*
X116493970Y-87620710D01*
X116477543Y-87595611D01*
X116446311Y-87546618D01*
X116423476Y-87509037D01*
X116413101Y-87489464D01*
X116411046Y-87486504D01*
X116394529Y-87481967D01*
X116359352Y-87482857D01*
X116302064Y-87489393D01*
X116219217Y-87501795D01*
X116132177Y-87514838D01*
X116062757Y-87522702D01*
X116016065Y-87523817D01*
X115988858Y-87517946D01*
X115977893Y-87504851D01*
X115979928Y-87484294D01*
X115993931Y-87451827D01*
X116020627Y-87420092D01*
X116062895Y-87391852D01*
X116125265Y-87364180D01*
X116212268Y-87334148D01*
X116312633Y-87302109D01*
X116267418Y-87245214D01*
X116264598Y-87241349D01*
X117737851Y-87241349D01*
X117740133Y-87272768D01*
X117741303Y-87276931D01*
X117765052Y-87322486D01*
X117807290Y-87374754D01*
X117861450Y-87426549D01*
X117920966Y-87470683D01*
X117945022Y-87487341D01*
X117974838Y-87513715D01*
X117986497Y-87532883D01*
X117997614Y-87560316D01*
X118029854Y-87595808D01*
X118076640Y-87632623D01*
X118131339Y-87665588D01*
X118187320Y-87689531D01*
X118223893Y-87703397D01*
X118272991Y-87728869D01*
X118304045Y-87754116D01*
X118341314Y-87789042D01*
X118410084Y-87826498D01*
X118493775Y-87851193D01*
X118584559Y-87860170D01*
X118648800Y-87857663D01*
X118758668Y-87840354D01*
X118873850Y-87804942D01*
X119001634Y-87749494D01*
X119162326Y-87662779D01*
X119354380Y-87534396D01*
X119542907Y-87380261D01*
X119729455Y-87199086D01*
X119915575Y-86989583D01*
X119924527Y-86979839D01*
X119974289Y-86941986D01*
X120037649Y-86911113D01*
X120089764Y-86889476D01*
X120178922Y-86840187D01*
X120247419Y-86784431D01*
X120290766Y-86725500D01*
X120295029Y-86717394D01*
X120319129Y-86677378D01*
X120355483Y-86621708D01*
X120399942Y-86556631D01*
X120448352Y-86488393D01*
X120454173Y-86480328D01*
X120513433Y-86396709D01*
X120580017Y-86300599D01*
X120646194Y-86203250D01*
X120704234Y-86115917D01*
X120748063Y-86048477D01*
X120794324Y-85975621D01*
X120825425Y-85923933D01*
X120842391Y-85891586D01*
X120846248Y-85876752D01*
X120838021Y-85877604D01*
X120835643Y-85878700D01*
X120809932Y-85886548D01*
X120765090Y-85897928D01*
X120709133Y-85910775D01*
X120681133Y-85917035D01*
X120632939Y-85929629D01*
X120603833Y-85942304D01*
X120586748Y-85958859D01*
X120574620Y-85983091D01*
X120571548Y-85990577D01*
X120559290Y-86016441D01*
X120550224Y-86017816D01*
X120537697Y-85997255D01*
X120528692Y-85982427D01*
X120511310Y-85972224D01*
X120482077Y-85981651D01*
X120474015Y-85986186D01*
X120442285Y-86015692D01*
X120415031Y-86055968D01*
X120405360Y-86073906D01*
X120349775Y-86152120D01*
X120283054Y-86214409D01*
X120212156Y-86253981D01*
X120168076Y-86270276D01*
X120027570Y-86324048D01*
X119914171Y-86370720D01*
X119826703Y-86410791D01*
X119763990Y-86444763D01*
X119708404Y-86473978D01*
X119631779Y-86501651D01*
X119534278Y-86525255D01*
X119502307Y-86532059D01*
X119425404Y-86550327D01*
X119353229Y-86569747D01*
X119298002Y-86587120D01*
X119269908Y-86595917D01*
X119204215Y-86611945D01*
X119126979Y-86626865D01*
X119049620Y-86638322D01*
X118958584Y-86651599D01*
X118878388Y-86669997D01*
X118821489Y-86693061D01*
X118784528Y-86722209D01*
X118764145Y-86758861D01*
X118760685Y-86769020D01*
X118739213Y-86813382D01*
X118708220Y-86847120D01*
X118663698Y-86871936D01*
X118601637Y-86889534D01*
X118518030Y-86901620D01*
X118408869Y-86909897D01*
X118379815Y-86911585D01*
X118309346Y-86916745D01*
X118257276Y-86923494D01*
X118215189Y-86933680D01*
X118174666Y-86949152D01*
X118127289Y-86971761D01*
X118105573Y-86982933D01*
X118021476Y-87030427D01*
X117930546Y-87086906D01*
X117844011Y-87145195D01*
X117773100Y-87198117D01*
X117753654Y-87215351D01*
X117737851Y-87241349D01*
X116264598Y-87241349D01*
X116247857Y-87218406D01*
X116228442Y-87175827D01*
X116224662Y-87127905D01*
X116224629Y-87118611D01*
X116217280Y-87066472D01*
X116199534Y-86995420D01*
X116172933Y-86911890D01*
X116163090Y-86882817D01*
X116144965Y-86823240D01*
X116129208Y-86760773D01*
X116115244Y-86691600D01*
X116102496Y-86611908D01*
X116090389Y-86517882D01*
X116078348Y-86405708D01*
X116065796Y-86271571D01*
X116052158Y-86111657D01*
X116044945Y-86011004D01*
X116038022Y-85777596D01*
X116046907Y-85566244D01*
X116071748Y-85374704D01*
X116096108Y-85271211D01*
X116291025Y-85271211D01*
X116294556Y-85317942D01*
X116300415Y-85335336D01*
X116307153Y-85338883D01*
X116316781Y-85324458D01*
X116331514Y-85288699D01*
X116353563Y-85228240D01*
X116381772Y-85153772D01*
X116412241Y-85085626D01*
X116437625Y-85043991D01*
X116457288Y-85030087D01*
X116475880Y-85033062D01*
X116490604Y-85046202D01*
X116497108Y-85074246D01*
X116496314Y-85121937D01*
X116489144Y-85194017D01*
X116482804Y-85263690D01*
X116480626Y-85345423D01*
X116485543Y-85407748D01*
X116490348Y-85432471D01*
X116502492Y-85465318D01*
X116523673Y-85480356D01*
X116560289Y-85480513D01*
X116612591Y-85469959D01*
X116618738Y-85468719D01*
X116635012Y-85465382D01*
X116645391Y-85465616D01*
X116655932Y-85465853D01*
X116675491Y-85477404D01*
X116699853Y-85504402D01*
X116735185Y-85551215D01*
X116790375Y-85631583D01*
X116842599Y-85723456D01*
X116888992Y-85826022D01*
X116934245Y-85948646D01*
X116948220Y-85989432D01*
X116966460Y-86041820D01*
X116979573Y-86078412D01*
X116985382Y-86093065D01*
X116986526Y-86092999D01*
X117004308Y-86083190D01*
X117038713Y-86060991D01*
X117083723Y-86030244D01*
X117097908Y-86020400D01*
X117145171Y-85989878D01*
X117182181Y-85972759D01*
X117219527Y-85965193D01*
X117267795Y-85963332D01*
X117308865Y-85962374D01*
X117389077Y-85956771D01*
X117466924Y-85947112D01*
X117536957Y-85934466D01*
X117593728Y-85919900D01*
X117631786Y-85904481D01*
X117645683Y-85889279D01*
X117651843Y-85884093D01*
X117680085Y-85875510D01*
X117723484Y-85868033D01*
X117740342Y-85865264D01*
X117797487Y-85851441D01*
X117866043Y-85830553D01*
X117934656Y-85805937D01*
X117973599Y-85790998D01*
X118031710Y-85771325D01*
X118081105Y-85760367D01*
X118133697Y-85755876D01*
X118201401Y-85755604D01*
X118334773Y-85757437D01*
X118757118Y-85595496D01*
X118766480Y-85591908D01*
X118884235Y-85547049D01*
X119003276Y-85502153D01*
X119117819Y-85459368D01*
X119222080Y-85420845D01*
X119310275Y-85388735D01*
X119376620Y-85365188D01*
X119573776Y-85296821D01*
X119631660Y-85326351D01*
X119681540Y-85346887D01*
X119745417Y-85354060D01*
X119806308Y-85335480D01*
X119817864Y-85329912D01*
X119866821Y-85309034D01*
X119934358Y-85282539D01*
X120013367Y-85253001D01*
X120096744Y-85222995D01*
X120177382Y-85195094D01*
X120248173Y-85171873D01*
X120302013Y-85155906D01*
X120305773Y-85154896D01*
X120354117Y-85140582D01*
X120387904Y-85128182D01*
X120400024Y-85120280D01*
X120397476Y-85107999D01*
X120391584Y-85078022D01*
X120382448Y-85057286D01*
X120361607Y-85044679D01*
X120345297Y-85038176D01*
X120313687Y-85014593D01*
X120277428Y-84979708D01*
X120275828Y-84977993D01*
X120935531Y-84977993D01*
X120942941Y-84985402D01*
X120950350Y-84977993D01*
X120942941Y-84970583D01*
X120935531Y-84977993D01*
X120275828Y-84977993D01*
X120238856Y-84938371D01*
X120858869Y-84938371D01*
X120921912Y-84924206D01*
X120942941Y-84920400D01*
X120967617Y-84915933D01*
X121000176Y-84918071D01*
X121013704Y-84935386D01*
X121012841Y-84970225D01*
X121011989Y-84976100D01*
X121010473Y-85004109D01*
X121022525Y-85012826D01*
X121055958Y-85009341D01*
X121060273Y-85008675D01*
X121111675Y-85000834D01*
X121165228Y-84992781D01*
X121229827Y-84980167D01*
X121301615Y-84958145D01*
X121356935Y-84931679D01*
X121389207Y-84903395D01*
X121413668Y-84879483D01*
X121451627Y-84863435D01*
X121465247Y-84861032D01*
X121470521Y-84855597D01*
X121452960Y-84846300D01*
X121409744Y-84830956D01*
X121390368Y-84825105D01*
X121324667Y-84811846D01*
X121237917Y-84802500D01*
X121125893Y-84796555D01*
X121096811Y-84795544D01*
X121024329Y-84793369D01*
X120974649Y-84793139D01*
X120942620Y-84795493D01*
X120923088Y-84801071D01*
X120910901Y-84810512D01*
X120900905Y-84824454D01*
X120884736Y-84854764D01*
X120868565Y-84898905D01*
X120858869Y-84938371D01*
X120238856Y-84938371D01*
X120216803Y-84914737D01*
X120038974Y-84929018D01*
X119975355Y-84933138D01*
X119831824Y-84937267D01*
X119671205Y-84936338D01*
X119501484Y-84930671D01*
X119330647Y-84920581D01*
X119166679Y-84906388D01*
X119017565Y-84888407D01*
X118968737Y-84881516D01*
X118868149Y-84867930D01*
X118791440Y-84858949D01*
X118734792Y-84854492D01*
X118694384Y-84854478D01*
X118666395Y-84858829D01*
X118647006Y-84867462D01*
X118632396Y-84880298D01*
X118617584Y-84893030D01*
X118578369Y-84917741D01*
X118530666Y-84941324D01*
X118530300Y-84941481D01*
X118449767Y-84963839D01*
X118354192Y-84967514D01*
X118241032Y-84952367D01*
X118107750Y-84918259D01*
X117969642Y-84876465D01*
X117685404Y-84893694D01*
X117609308Y-84898976D01*
X117501637Y-84908326D01*
X117396675Y-84919336D01*
X117303389Y-84931042D01*
X117230747Y-84942483D01*
X117205831Y-84946782D01*
X117133455Y-84956794D01*
X117052410Y-84965282D01*
X116968141Y-84971978D01*
X116886092Y-84976613D01*
X116811707Y-84978920D01*
X116750431Y-84978629D01*
X116707708Y-84975473D01*
X116688984Y-84969183D01*
X116688333Y-84968453D01*
X116668409Y-84960545D01*
X116627993Y-84950544D01*
X116574948Y-84940433D01*
X116568481Y-84939327D01*
X116516006Y-84928603D01*
X116476707Y-84917581D01*
X116458671Y-84908482D01*
X116455469Y-84905069D01*
X116446925Y-84900030D01*
X117163079Y-84900030D01*
X117168692Y-84906611D01*
X117177262Y-84908978D01*
X117197095Y-84905441D01*
X117196866Y-84900382D01*
X117177645Y-84897657D01*
X117163079Y-84900030D01*
X116446925Y-84900030D01*
X116430452Y-84890315D01*
X116391985Y-84874592D01*
X116334189Y-84854660D01*
X116325452Y-85005241D01*
X116322824Y-85043607D01*
X116316118Y-85113876D01*
X116308065Y-85174443D01*
X116299877Y-85215352D01*
X116299352Y-85217243D01*
X116291025Y-85271211D01*
X116096108Y-85271211D01*
X116112696Y-85200734D01*
X116118632Y-85178119D01*
X116129502Y-85128356D01*
X116141238Y-85067281D01*
X116152729Y-85001624D01*
X116162869Y-84938115D01*
X116170549Y-84883485D01*
X116174661Y-84844464D01*
X116174098Y-84827781D01*
X116167797Y-84825970D01*
X116137626Y-84820784D01*
X116088588Y-84813743D01*
X116027286Y-84805832D01*
X115988428Y-84801457D01*
X115931776Y-84797184D01*
X115874003Y-84796185D01*
X115808044Y-84798607D01*
X115726832Y-84804601D01*
X115623301Y-84814313D01*
X115548239Y-84821412D01*
X115472505Y-84827763D01*
X115411642Y-84831966D01*
X115370516Y-84833692D01*
X115353995Y-84832609D01*
X115352564Y-84821825D01*
X115361865Y-84795876D01*
X115365542Y-84790093D01*
X115400134Y-84760423D01*
X115459862Y-84729310D01*
X115541154Y-84698378D01*
X115640438Y-84669251D01*
X115681649Y-84657835D01*
X115735321Y-84638890D01*
X115760993Y-84622955D01*
X115758396Y-84610720D01*
X115727264Y-84602873D01*
X115667328Y-84600105D01*
X115617202Y-84599295D01*
X115587164Y-84595404D01*
X115573951Y-84586400D01*
X115571004Y-84570249D01*
X115581350Y-84543961D01*
X115616822Y-84513527D01*
X115672926Y-84486124D01*
X115744862Y-84464668D01*
X115769523Y-84459097D01*
X115803979Y-84448419D01*
X115818652Y-84432581D01*
X115817908Y-84403676D01*
X115806114Y-84353802D01*
X115798752Y-84322261D01*
X115797399Y-84292519D01*
X115809755Y-84267758D01*
X115839457Y-84235023D01*
X115889292Y-84188923D01*
X115950935Y-84142028D01*
X116013156Y-84103072D01*
X116068847Y-84076465D01*
X116110901Y-84066616D01*
X116160605Y-84061451D01*
X116236829Y-84042684D01*
X116321976Y-84012778D01*
X116407279Y-83974459D01*
X116418422Y-83968585D01*
X118838624Y-83968585D01*
X118905310Y-83982393D01*
X118913531Y-83983748D01*
X118959948Y-83987074D01*
X119033047Y-83988396D01*
X119130598Y-83987723D01*
X119250368Y-83985064D01*
X119390123Y-83980429D01*
X119441848Y-83978555D01*
X119572328Y-83974650D01*
X119681010Y-83972693D01*
X119765949Y-83972692D01*
X119825203Y-83974654D01*
X119856828Y-83978588D01*
X119911304Y-83989134D01*
X119967384Y-83991910D01*
X120014763Y-83987042D01*
X120043419Y-83974737D01*
X120044416Y-83973661D01*
X120056305Y-83945954D01*
X120061202Y-83906095D01*
X120061359Y-83900740D01*
X120071395Y-83852022D01*
X120092281Y-83804951D01*
X120102813Y-83785774D01*
X120125641Y-83733025D01*
X120143952Y-83677239D01*
X120144203Y-83676289D01*
X120155860Y-83621199D01*
X120166729Y-83551658D01*
X120174488Y-83482482D01*
X120174703Y-83479934D01*
X120178780Y-83422034D01*
X120178617Y-83388405D01*
X120173713Y-83374087D01*
X120163569Y-83374124D01*
X120160676Y-83375378D01*
X120134014Y-83387056D01*
X120087320Y-83407584D01*
X120026250Y-83434473D01*
X119956460Y-83465236D01*
X119839409Y-83512544D01*
X119670458Y-83570119D01*
X119474838Y-83626787D01*
X119179464Y-83706198D01*
X119147765Y-83771559D01*
X119147208Y-83772703D01*
X119113719Y-83830019D01*
X119073470Y-83872041D01*
X119018878Y-83904775D01*
X118942357Y-83934227D01*
X118838624Y-83968585D01*
X116418422Y-83968585D01*
X116485196Y-83933386D01*
X116545682Y-83896159D01*
X116588361Y-83861338D01*
X116618320Y-83824728D01*
X116640649Y-83782136D01*
X116655903Y-83751219D01*
X116691342Y-83700051D01*
X116729905Y-83664805D01*
X116765655Y-83651680D01*
X116785039Y-83645354D01*
X116822019Y-83626529D01*
X116867049Y-83599576D01*
X116903579Y-83576707D01*
X116960082Y-83545167D01*
X117003147Y-83528772D01*
X117039287Y-83525439D01*
X117075019Y-83533085D01*
X117075715Y-83533313D01*
X117128182Y-83541828D01*
X117163043Y-83526832D01*
X117177645Y-83495631D01*
X117181253Y-83487922D01*
X117195974Y-83455148D01*
X117236080Y-83427351D01*
X117254413Y-83416911D01*
X117294103Y-83386902D01*
X117342776Y-83344523D01*
X117393758Y-83295361D01*
X117429073Y-83260670D01*
X117512494Y-83190577D01*
X117594715Y-83141572D01*
X117683745Y-83109480D01*
X117787592Y-83090128D01*
X117801643Y-83088222D01*
X117897689Y-83068140D01*
X118001769Y-83033897D01*
X118118643Y-82983712D01*
X118253070Y-82915802D01*
X118284670Y-82899482D01*
X118340249Y-82873818D01*
X118382619Y-82858367D01*
X118405624Y-82855561D01*
X118420538Y-82868962D01*
X118418808Y-82899190D01*
X118394523Y-82941677D01*
X118348732Y-82993869D01*
X118286143Y-83056458D01*
X118343473Y-83036230D01*
X118374577Y-83027256D01*
X118432961Y-83015141D01*
X118493751Y-83006567D01*
X118511928Y-83004275D01*
X118579741Y-82989078D01*
X118662250Y-82961023D01*
X118694384Y-82947650D01*
X118764528Y-82918459D01*
X118835508Y-82887753D01*
X118921781Y-82851858D01*
X119003040Y-82819386D01*
X119068320Y-82794799D01*
X119087962Y-82787497D01*
X119154907Y-82760262D01*
X119236449Y-82724674D01*
X119324048Y-82684523D01*
X119409160Y-82643597D01*
X119430411Y-82633125D01*
X119564316Y-82568669D01*
X119687369Y-82512063D01*
X119795808Y-82464950D01*
X119885874Y-82428972D01*
X119953805Y-82405770D01*
X119983210Y-82398287D01*
X120028014Y-82395496D01*
X120077103Y-82407230D01*
X120092525Y-82412078D01*
X120129088Y-82419186D01*
X120164996Y-82415651D01*
X120173713Y-82413021D01*
X120214139Y-82400823D01*
X120240284Y-82391871D01*
X120305321Y-82368527D01*
X120349179Y-82347772D01*
X120376930Y-82323943D01*
X120393645Y-82291377D01*
X120404397Y-82244411D01*
X120414258Y-82177381D01*
X120425420Y-82101834D01*
X120436850Y-82038572D01*
X120443570Y-82014165D01*
X120476138Y-82014165D01*
X120483548Y-82021575D01*
X120490957Y-82014165D01*
X120483548Y-82006756D01*
X120476138Y-82014165D01*
X120443570Y-82014165D01*
X120448164Y-81997482D01*
X120460911Y-81974641D01*
X120476638Y-81966126D01*
X120483548Y-81966770D01*
X120496894Y-81968014D01*
X120500883Y-81968938D01*
X120530585Y-81968124D01*
X120552179Y-81948657D01*
X120568037Y-81906881D01*
X120580533Y-81839138D01*
X120582049Y-81828636D01*
X120596100Y-81751867D01*
X120614018Y-81695852D01*
X120639145Y-81652619D01*
X120674822Y-81614199D01*
X120677054Y-81612120D01*
X120725159Y-81550397D01*
X120761990Y-81465858D01*
X120788122Y-81356755D01*
X120804130Y-81221342D01*
X120805976Y-81196811D01*
X120817298Y-81055731D01*
X120828035Y-80941429D01*
X120838650Y-80851450D01*
X120846248Y-80804211D01*
X120849605Y-80783339D01*
X120861364Y-80734638D01*
X120874390Y-80702892D01*
X120889145Y-80685646D01*
X120906093Y-80680443D01*
X120915056Y-80684907D01*
G37*
%TD*%
%LPC*%
D12*
%TO.C,J1*%
X118150000Y-104500000D03*
X123930000Y-104500000D03*
D13*
X116720000Y-104000000D03*
D14*
X116720000Y-108180000D03*
D13*
X125360000Y-104000000D03*
D14*
X125360000Y-108180000D03*
%TD*%
D15*
%TO.C,J2*%
X124635000Y-81725000D03*
D16*
X126635000Y-81725000D03*
X124635000Y-83725000D03*
X126635000Y-83725000D03*
X124635000Y-85725000D03*
X126635000Y-85725000D03*
X124635000Y-87725000D03*
X126635000Y-87725000D03*
X124635000Y-89725000D03*
X126635000Y-89725000D03*
X124635000Y-91725000D03*
X126635000Y-91725000D03*
X124635000Y-93725000D03*
X126635000Y-93725000D03*
X124635000Y-95725000D03*
X126635000Y-95725000D03*
X124635000Y-97725000D03*
X126635000Y-97725000D03*
%TD*%
%LPD*%
M02*
