M48
; DRILL file {KiCad 9.0.0} date 2025-06-10T15:00:42-0400
; FORMAT={-:-/ absolute / metric / decimal}
; #@! TF.CreationDate,2025-06-10T15:00:42-04:00
; #@! TF.GenerationSoftware,Kicad,Pcbnew,9.0.0
; #@! TF.FileFunction,Plated,1,6,PTH
FMAT,2
METRIC
; #@! TA.AperFunction,Plated,PTH,ViaDrill
T1C0.300
; #@! TA.AperFunction,Plated,PTH,ComponentDrill
T2C0.600
; #@! TA.AperFunction,Plated,PTH,ComponentDrill
T3C0.800
%
G90
G05
T1
X114.99Y-94.97
X115.09Y-83.7
X115.09Y-84.66
X115.09Y-96.97
X115.09Y-97.93
X115.1Y-99.875
X115.1Y-100.83
X115.15Y-81.6
X115.15Y-82.675
X115.22Y-92.83
X115.675Y-107.6
X116.11Y-81.6
X116.15Y-83.7
X116.15Y-88.65
X116.16Y-84.7
X116.275Y-86.925
X116.275Y-104.5
X116.525Y-87.825
X116.525Y-98.85
X116.525Y-107.6
X116.75Y-101.2
X117.55Y-87.3
X117.59Y-88.25
X117.7Y-101.28
X117.85Y-97.35
X117.975Y-90.4
X118.16Y-82.12
X118.26Y-91.79
X118.33Y-84.95
X118.425Y-87.2
X118.65Y-101.202
X118.875Y-103.425
X119.15Y-86.725
X119.24Y-105.69
X119.25Y-91.825
X119.675Y-103.425
X119.7Y-100.33
X119.81Y-88.25
X119.85Y-90.31
X119.87Y-96.07
X120.17Y-86.82
X120.225Y-91.475
X120.36Y-83.88
X120.56Y-85.05
X121.025Y-97.1
X121.19Y-94.63
X121.3Y-88.3
X121.6Y-100.39
X122.05Y-83.74
X122.05Y-84.7
X122.06Y-81.75
X122.09Y-99.405
X122.57Y-100.39
X122.57Y-101.35
X122.93Y-91.93
X122.99Y-86.6
X123.075Y-97.275
X123.09Y-98.415
X123.09Y-99.375
X123.15Y-83.675
X123.325Y-104.5
X124.475Y-103.425
X124.54Y-101.41
X124.55Y-100.39
X124.56Y-99.37
X125.292Y-103.45
X125.56Y-101.41
X125.58Y-99.37
X126.66Y-100.83
T3
X124.635Y-81.725
X124.635Y-83.725
X124.635Y-85.725
X124.635Y-87.725
X124.635Y-89.725
X124.635Y-91.725
X124.635Y-93.725
X124.635Y-95.725
X124.635Y-97.725
X126.635Y-81.725
X126.635Y-83.725
X126.635Y-85.725
X126.635Y-87.725
X126.635Y-89.725
X126.635Y-91.725
X126.635Y-93.725
X126.635Y-95.725
X126.635Y-97.725
T2
G00X117.755Y-103.45
M15
G01X117.755Y-104.55
M16
G05
G00X117.755Y-107.78
M15
G01X117.755Y-108.58
M16
G05
G00X126.395Y-103.45
M15
G01X126.395Y-104.55
M16
G05
G00X126.395Y-107.78
M15
G01X126.395Y-108.58
M16
G05
M30
