%TF.GenerationSoftware,KiCad,Pcbnew,8.0.1*%
%TF.CreationDate,2024-03-27T16:27:56-04:00*%
%TF.ProjectId,aditBoard,61646974-426f-4617-9264-2e6b69636164,rev?*%
%TF.SameCoordinates,Original*%
%TF.FileFunction,Soldermask,Top*%
%TF.FilePolarity,Negative*%
%FSLAX46Y46*%
G04 Gerber Fmt 4.6, Leading zero omitted, Abs format (unit mm)*
G04 Created by KiCad (PCBNEW 8.0.1) date 2024-03-27 16:27:56*
%MOMM*%
%LPD*%
G01*
G04 APERTURE LIST*
G04 Aperture macros list*
%AMRoundRect*
0 Rectangle with rounded corners*
0 $1 Rounding radius*
0 $2 $3 $4 $5 $6 $7 $8 $9 X,Y pos of 4 corners*
0 Add a 4 corners polygon primitive as box body*
4,1,4,$2,$3,$4,$5,$6,$7,$8,$9,$2,$3,0*
0 Add four circle primitives for the rounded corners*
1,1,$1+$1,$2,$3*
1,1,$1+$1,$4,$5*
1,1,$1+$1,$6,$7*
1,1,$1+$1,$8,$9*
0 Add four rect primitives between the rounded corners*
20,1,$1+$1,$2,$3,$4,$5,0*
20,1,$1+$1,$4,$5,$6,$7,0*
20,1,$1+$1,$6,$7,$8,$9,0*
20,1,$1+$1,$8,$9,$2,$3,0*%
G04 Aperture macros list end*
%ADD10C,0.650000*%
%ADD11RoundRect,0.150000X-0.150000X-0.425000X0.150000X-0.425000X0.150000X0.425000X-0.150000X0.425000X0*%
%ADD12RoundRect,0.075000X-0.075000X-0.500000X0.075000X-0.500000X0.075000X0.500000X-0.075000X0.500000X0*%
%ADD13O,1.000000X2.100000*%
%ADD14O,1.000000X1.800000*%
%ADD15R,1.400000X1.200000*%
%ADD16R,0.620000X1.100000*%
%ADD17RoundRect,0.140000X0.170000X-0.140000X0.170000X0.140000X-0.170000X0.140000X-0.170000X-0.140000X0*%
%ADD18RoundRect,0.135000X0.185000X-0.135000X0.185000X0.135000X-0.185000X0.135000X-0.185000X-0.135000X0*%
%ADD19RoundRect,0.140000X-0.140000X-0.170000X0.140000X-0.170000X0.140000X0.170000X-0.140000X0.170000X0*%
%ADD20R,0.580000X0.280000*%
%ADD21R,0.200000X1.600000*%
%ADD22C,1.350000*%
%ADD23O,1.350000X1.350000*%
%ADD24RoundRect,0.140000X-0.170000X0.140000X-0.170000X-0.140000X0.170000X-0.140000X0.170000X0.140000X0*%
%ADD25RoundRect,0.050000X0.387500X0.050000X-0.387500X0.050000X-0.387500X-0.050000X0.387500X-0.050000X0*%
%ADD26RoundRect,0.050000X0.050000X0.387500X-0.050000X0.387500X-0.050000X-0.387500X0.050000X-0.387500X0*%
%ADD27R,3.200000X3.200000*%
%ADD28RoundRect,0.135000X-0.185000X0.135000X-0.185000X-0.135000X0.185000X-0.135000X0.185000X0.135000X0*%
%ADD29RoundRect,0.135000X-0.135000X-0.185000X0.135000X-0.185000X0.135000X0.185000X-0.135000X0.185000X0*%
%ADD30RoundRect,0.135000X0.135000X0.185000X-0.135000X0.185000X-0.135000X-0.185000X0.135000X-0.185000X0*%
G04 APERTURE END LIST*
D10*
%TO.C,J1*%
X118150000Y-104500000D03*
X123930000Y-104500000D03*
D11*
X117840000Y-103425000D03*
X118640000Y-103425000D03*
D12*
X119790000Y-103425000D03*
X120790000Y-103425000D03*
X121290000Y-103425000D03*
X122290000Y-103425000D03*
D11*
X124240000Y-103425000D03*
X123440000Y-103425000D03*
D12*
X122790000Y-103425000D03*
X121790000Y-103425000D03*
X120290000Y-103425000D03*
X119290000Y-103425000D03*
D13*
X116720000Y-104000000D03*
D14*
X116720000Y-108180000D03*
D13*
X125360000Y-104000000D03*
D14*
X125360000Y-108180000D03*
%TD*%
D15*
%TO.C,Y1*%
X118160000Y-83880000D03*
X120360000Y-83880000D03*
X120360000Y-82120000D03*
X118160000Y-82120000D03*
%TD*%
D16*
%TO.C,U4*%
X116750200Y-101202050D03*
X117700200Y-101202050D03*
X118650200Y-101202050D03*
X118650200Y-98602050D03*
X116750200Y-98602050D03*
%TD*%
D17*
%TO.C,C13*%
X116030000Y-94960000D03*
X116030000Y-94000000D03*
%TD*%
%TO.C,C11*%
X114990000Y-94970000D03*
X114990000Y-94010000D03*
%TD*%
D18*
%TO.C,R1*%
X122090000Y-98310000D03*
X122090000Y-97290000D03*
%TD*%
D19*
%TO.C,C2*%
X115150000Y-82670000D03*
X116110000Y-82670000D03*
%TD*%
D20*
%TO.C,U2*%
X121990000Y-96060000D03*
X121990000Y-95560000D03*
X121990000Y-95060000D03*
X121990000Y-94560000D03*
X119150000Y-94560000D03*
X119150000Y-95060000D03*
X119150000Y-95560000D03*
X119150000Y-96060000D03*
D21*
X120570000Y-95310000D03*
%TD*%
D19*
%TO.C,C7*%
X115150000Y-81600000D03*
X116110000Y-81600000D03*
%TD*%
D22*
%TO.C,J2*%
X124635000Y-81725000D03*
D23*
X126635000Y-81725000D03*
X124635000Y-83725000D03*
X126635000Y-83725000D03*
X124635000Y-85725000D03*
X126635000Y-85725000D03*
X124635000Y-87725000D03*
X126635000Y-87725000D03*
X124635000Y-89725000D03*
X126635000Y-89725000D03*
X124635000Y-91725000D03*
X126635000Y-91725000D03*
X124635000Y-93725000D03*
X126635000Y-93725000D03*
X124635000Y-95725000D03*
X126635000Y-95725000D03*
X124635000Y-97725000D03*
X126635000Y-97725000D03*
%TD*%
D24*
%TO.C,C10*%
X116150000Y-83700000D03*
X116150000Y-84660000D03*
%TD*%
D19*
%TO.C,C18*%
X116380000Y-97220000D03*
X117340000Y-97220000D03*
%TD*%
D25*
%TO.C,U3*%
X122107500Y-91917500D03*
X122107500Y-91517500D03*
X122107500Y-91117500D03*
X122107500Y-90717500D03*
X122107500Y-90317500D03*
X122107500Y-89917500D03*
X122107500Y-89517500D03*
X122107500Y-89117500D03*
X122107500Y-88717500D03*
X122107500Y-88317500D03*
X122107500Y-87917500D03*
X122107500Y-87517500D03*
X122107500Y-87117500D03*
X122107500Y-86717500D03*
D26*
X121270000Y-85880000D03*
X120870000Y-85880000D03*
X120470000Y-85880000D03*
X120070000Y-85880000D03*
X119670000Y-85880000D03*
X119270000Y-85880000D03*
X118870000Y-85880000D03*
X118470000Y-85880000D03*
X118070000Y-85880000D03*
X117670000Y-85880000D03*
X117270000Y-85880000D03*
X116870000Y-85880000D03*
X116470000Y-85880000D03*
X116070000Y-85880000D03*
D25*
X115232500Y-86717500D03*
X115232500Y-87117500D03*
X115232500Y-87517500D03*
X115232500Y-87917500D03*
X115232500Y-88317500D03*
X115232500Y-88717500D03*
X115232500Y-89117500D03*
X115232500Y-89517500D03*
X115232500Y-89917500D03*
X115232500Y-90317500D03*
X115232500Y-90717500D03*
X115232500Y-91117500D03*
X115232500Y-91517500D03*
X115232500Y-91917500D03*
D26*
X116070000Y-92755000D03*
X116470000Y-92755000D03*
X116870000Y-92755000D03*
X117270000Y-92755000D03*
X117670000Y-92755000D03*
X118070000Y-92755000D03*
X118470000Y-92755000D03*
X118870000Y-92755000D03*
X119270000Y-92755000D03*
X119670000Y-92755000D03*
X120070000Y-92755000D03*
X120470000Y-92755000D03*
X120870000Y-92755000D03*
X121270000Y-92755000D03*
D27*
X118670000Y-89317500D03*
%TD*%
D24*
%TO.C,C14*%
X115090000Y-83700000D03*
X115090000Y-84660000D03*
%TD*%
D17*
%TO.C,C6*%
X121600000Y-101350000D03*
X121600000Y-100390000D03*
%TD*%
D24*
%TO.C,C12*%
X122250000Y-83740000D03*
X122250000Y-84700000D03*
%TD*%
D17*
%TO.C,C5*%
X122570000Y-101350000D03*
X122570000Y-100390000D03*
%TD*%
%TO.C,C17*%
X115100000Y-99880000D03*
X115100000Y-98920000D03*
%TD*%
D28*
%TO.C,R4*%
X115100000Y-100830000D03*
X115100000Y-101850000D03*
%TD*%
%TO.C,R5*%
X126660000Y-100830000D03*
X126660000Y-101850000D03*
%TD*%
D17*
%TO.C,C16*%
X123570000Y-101350000D03*
X123570000Y-100390000D03*
%TD*%
D18*
%TO.C,R3*%
X120060000Y-99400000D03*
X120060000Y-98380000D03*
%TD*%
D24*
%TO.C,C4*%
X122260000Y-81750000D03*
X122260000Y-82710000D03*
%TD*%
D18*
%TO.C,R2*%
X121080000Y-99400000D03*
X121080000Y-98380000D03*
%TD*%
D29*
%TO.C,R27*%
X124560000Y-99370000D03*
X125580000Y-99370000D03*
%TD*%
%TO.C,R29*%
X124540000Y-101410000D03*
X125560000Y-101410000D03*
%TD*%
D24*
%TO.C,C15*%
X123090000Y-97320000D03*
X123090000Y-98280000D03*
%TD*%
%TO.C,C9*%
X115090000Y-96970000D03*
X115090000Y-97930000D03*
%TD*%
D30*
%TO.C,R25*%
X125570000Y-100390000D03*
X124550000Y-100390000D03*
%TD*%
D19*
%TO.C,C8*%
X114990000Y-95960000D03*
X115950000Y-95960000D03*
%TD*%
M02*
