%TF.GenerationSoftware,KiCad,Pcbnew,9.0.0*%
%TF.CreationDate,2025-06-10T15:00:40-04:00*%
%TF.ProjectId,aditBoard,61646974-426f-4617-9264-2e6b69636164,rev?*%
%TF.SameCoordinates,Original*%
%TF.FileFunction,Copper,L2,Inr*%
%TF.FilePolarity,Positive*%
%FSLAX46Y46*%
G04 Gerber Fmt 4.6, Leading zero omitted, Abs format (unit mm)*
G04 Created by KiCad (PCBNEW 9.0.0) date 2025-06-10 15:00:40*
%MOMM*%
%LPD*%
G01*
G04 APERTURE LIST*
%TA.AperFunction,ComponentPad*%
%ADD10C,1.350000*%
%TD*%
%TA.AperFunction,ComponentPad*%
%ADD11O,1.350000X1.350000*%
%TD*%
%TA.AperFunction,ComponentPad*%
%ADD12O,1.000000X2.100000*%
%TD*%
%TA.AperFunction,ComponentPad*%
%ADD13O,1.000000X1.800000*%
%TD*%
%TA.AperFunction,ViaPad*%
%ADD14C,0.500000*%
%TD*%
G04 APERTURE END LIST*
D10*
%TO.N,/GND*%
%TO.C,J2*%
X124635000Y-81725000D03*
D11*
X126635000Y-81725000D03*
%TO.N,/SDA*%
X124635000Y-83725000D03*
%TO.N,/SCL*%
X126635000Y-83725000D03*
%TO.N,/PLUG*%
X124635000Y-85725000D03*
%TO.N,/A2*%
X126635000Y-85725000D03*
%TO.N,/A1*%
X124635000Y-87725000D03*
%TO.N,/A0*%
X126635000Y-87725000D03*
%TO.N,/GND*%
X124635000Y-89725000D03*
X126635000Y-89725000D03*
%TO.N,/TXD*%
X124635000Y-91725000D03*
%TO.N,/RXD*%
X126635000Y-91725000D03*
%TO.N,/GND*%
X124635000Y-93725000D03*
X126635000Y-93725000D03*
%TO.N,/RST*%
X124635000Y-95725000D03*
%TO.N,/3V3*%
X126635000Y-95725000D03*
%TO.N,unconnected-(J2-Pin_17-Pad17)*%
X124635000Y-97725000D03*
%TO.N,unconnected-(J2-Pin_18-Pad18)*%
X126635000Y-97725000D03*
%TD*%
D12*
%TO.N,/GND*%
%TO.C,J1*%
X117755000Y-104000000D03*
D13*
X117755000Y-108180000D03*
D12*
X126395000Y-104000000D03*
D13*
X126395000Y-108180000D03*
%TD*%
D14*
%TO.N,/GND*%
X117850000Y-97350000D03*
%TO.N,/5V*%
X115675000Y-107600000D03*
%TO.N,/GND*%
X117700200Y-101280000D03*
X125292500Y-103450000D03*
X118875000Y-103425000D03*
%TO.N,/5V*%
X116750000Y-101200000D03*
X115100000Y-99875000D03*
X118650200Y-101202050D03*
X116525000Y-107600000D03*
%TO.N,Net-(U3-RUN)*%
X116275000Y-86925000D03*
X123150000Y-83675000D03*
%TO.N,/GND*%
X121025000Y-97100000D03*
%TO.N,Net-(R6-Pad2)*%
X123075000Y-97275000D03*
%TO.N,/GND*%
X126660000Y-100830000D03*
X114990000Y-94970000D03*
X116150000Y-83700000D03*
X118160000Y-82120000D03*
X117590000Y-88250000D03*
X122570000Y-101350000D03*
X119850000Y-90310000D03*
X120360000Y-83880000D03*
X115090000Y-97930000D03*
X115100000Y-100830000D03*
X122050000Y-83740000D03*
X123090000Y-98415000D03*
X115090000Y-83700000D03*
X122060000Y-81750000D03*
X125580000Y-99370000D03*
X115150000Y-81600000D03*
X117975000Y-90400000D03*
X119810000Y-88250000D03*
X115150000Y-82675000D03*
X121190000Y-94630000D03*
X125560000Y-101410000D03*
%TO.N,/3V3*%
X116150000Y-88650000D03*
X118260000Y-91790000D03*
X119150000Y-86725000D03*
X122930000Y-91930000D03*
X116525000Y-98850000D03*
X122570000Y-100390000D03*
X119870000Y-96070000D03*
X123090000Y-99375000D03*
X122050000Y-84700000D03*
X116160000Y-84700000D03*
X115090000Y-96970000D03*
X121300000Y-88300000D03*
X122090000Y-99405000D03*
X115220000Y-92830000D03*
X115090000Y-84660000D03*
%TO.N,/1V1*%
X116110000Y-81600000D03*
X119700000Y-100330000D03*
X121600000Y-100390000D03*
X119250000Y-91825000D03*
X118330000Y-84950000D03*
X118425000Y-87200000D03*
%TO.N,/5V*%
X124475000Y-103425000D03*
X119675000Y-103425000D03*
%TO.N,Net-(U1-DIN)*%
X116275000Y-104500000D03*
X120225000Y-91475000D03*
%TO.N,/A2*%
X124540000Y-101410000D03*
%TO.N,/A0*%
X124560000Y-99370000D03*
%TO.N,/A1*%
X124550000Y-100390000D03*
%TO.N,/SCL*%
X120170000Y-86820000D03*
%TO.N,/RST*%
X122990000Y-86600000D03*
%TO.N,/SDA*%
X120560000Y-85050000D03*
%TO.N,/SWCLK*%
X123325000Y-104500000D03*
X117550000Y-87300000D03*
%TO.N,/SWD*%
X119240000Y-105690000D03*
X116525000Y-87825000D03*
%TD*%
%TA.AperFunction,Conductor*%
%TO.N,/GND*%
G36*
X124368983Y-80865086D02*
G01*
X124383569Y-80900300D01*
X124368983Y-80935514D01*
X124352826Y-80946309D01*
X124251735Y-80988181D01*
X124251734Y-80988181D01*
X124588553Y-81325000D01*
X124582339Y-81325000D01*
X124480606Y-81352259D01*
X124389394Y-81404920D01*
X124314920Y-81479394D01*
X124262259Y-81570606D01*
X124235000Y-81672339D01*
X124235000Y-81678553D01*
X123898181Y-81341734D01*
X123898181Y-81341735D01*
X123839399Y-81483651D01*
X123839394Y-81483665D01*
X123807600Y-81643505D01*
X123807600Y-81806494D01*
X123839394Y-81966334D01*
X123839399Y-81966348D01*
X123898181Y-82108263D01*
X123898181Y-82108264D01*
X124235000Y-81771445D01*
X124235000Y-81777661D01*
X124262259Y-81879394D01*
X124314920Y-81970606D01*
X124389394Y-82045080D01*
X124480606Y-82097741D01*
X124582339Y-82125000D01*
X124588553Y-82125000D01*
X124251734Y-82461817D01*
X124393655Y-82520602D01*
X124393665Y-82520605D01*
X124553505Y-82552399D01*
X124553513Y-82552400D01*
X124716487Y-82552400D01*
X124716494Y-82552399D01*
X124876341Y-82520603D01*
X125018263Y-82461816D01*
X124681447Y-82125000D01*
X124687661Y-82125000D01*
X124789394Y-82097741D01*
X124880606Y-82045080D01*
X124955080Y-81970606D01*
X125007741Y-81879394D01*
X125035000Y-81777661D01*
X125035000Y-81771447D01*
X125371816Y-82108263D01*
X125430603Y-81966341D01*
X125431915Y-81959750D01*
X125462399Y-81806494D01*
X125462400Y-81806487D01*
X125462400Y-81643512D01*
X125462399Y-81643505D01*
X125430605Y-81483665D01*
X125430602Y-81483655D01*
X125371817Y-81341734D01*
X125035000Y-81678551D01*
X125035000Y-81672339D01*
X125007741Y-81570606D01*
X124955080Y-81479394D01*
X124880606Y-81404920D01*
X124789394Y-81352259D01*
X124687661Y-81325000D01*
X124681445Y-81325000D01*
X125018264Y-80988181D01*
X124917174Y-80946309D01*
X124890222Y-80919358D01*
X124890222Y-80881243D01*
X124917173Y-80854291D01*
X124936231Y-80850500D01*
X126333770Y-80850500D01*
X126368984Y-80865086D01*
X126383570Y-80900300D01*
X126368984Y-80935514D01*
X126352827Y-80946309D01*
X126243082Y-80991765D01*
X126243080Y-80991767D01*
X126107567Y-81082313D01*
X126107565Y-81082316D01*
X125992316Y-81197565D01*
X125992313Y-81197567D01*
X125901767Y-81333079D01*
X125842982Y-81475000D01*
X126319314Y-81475000D01*
X126314920Y-81479394D01*
X126262259Y-81570606D01*
X126235000Y-81672339D01*
X126235000Y-81777661D01*
X126262259Y-81879394D01*
X126314920Y-81970606D01*
X126319314Y-81975000D01*
X125842982Y-81975000D01*
X125901767Y-82116920D01*
X125992313Y-82252432D01*
X126107567Y-82367686D01*
X126243080Y-82458232D01*
X126243079Y-82458232D01*
X126385000Y-82517017D01*
X126385000Y-82040686D01*
X126389394Y-82045080D01*
X126480606Y-82097741D01*
X126582339Y-82125000D01*
X126687661Y-82125000D01*
X126789394Y-82097741D01*
X126880606Y-82045080D01*
X126885000Y-82040686D01*
X126885000Y-82517016D01*
X127026920Y-82458232D01*
X127162432Y-82367686D01*
X127162435Y-82367684D01*
X127277684Y-82252435D01*
X127277686Y-82252432D01*
X127368232Y-82116919D01*
X127368234Y-82116917D01*
X127430600Y-81966348D01*
X127430605Y-81966334D01*
X127430857Y-81965069D01*
X127431099Y-81964706D01*
X127431315Y-81963996D01*
X127431530Y-81964061D01*
X127452033Y-81933377D01*
X127489415Y-81925941D01*
X127521107Y-81947117D01*
X127529500Y-81974784D01*
X127529500Y-89475215D01*
X127514914Y-89510429D01*
X127479700Y-89525015D01*
X127444486Y-89510429D01*
X127431413Y-89485974D01*
X127431315Y-89486004D01*
X127431164Y-89485508D01*
X127430857Y-89484933D01*
X127430603Y-89483661D01*
X127430600Y-89483651D01*
X127368234Y-89333082D01*
X127368232Y-89333080D01*
X127277686Y-89197567D01*
X127162432Y-89082313D01*
X127026919Y-88991767D01*
X127026920Y-88991767D01*
X126885000Y-88932981D01*
X126885000Y-89409314D01*
X126880606Y-89404920D01*
X126789394Y-89352259D01*
X126687661Y-89325000D01*
X126582339Y-89325000D01*
X126480606Y-89352259D01*
X126389394Y-89404920D01*
X126385000Y-89409314D01*
X126385000Y-88932981D01*
X126243079Y-88991767D01*
X126107567Y-89082313D01*
X126107565Y-89082316D01*
X125992316Y-89197565D01*
X125992313Y-89197567D01*
X125901767Y-89333079D01*
X125842982Y-89475000D01*
X126319314Y-89475000D01*
X126314920Y-89479394D01*
X126262259Y-89570606D01*
X126235000Y-89672339D01*
X126235000Y-89777661D01*
X126262259Y-89879394D01*
X126314920Y-89970606D01*
X126319314Y-89975000D01*
X125842982Y-89975000D01*
X125901767Y-90116920D01*
X125992313Y-90252432D01*
X126107567Y-90367686D01*
X126243080Y-90458232D01*
X126243079Y-90458232D01*
X126385000Y-90517017D01*
X126385000Y-90040686D01*
X126389394Y-90045080D01*
X126480606Y-90097741D01*
X126582339Y-90125000D01*
X126687661Y-90125000D01*
X126789394Y-90097741D01*
X126880606Y-90045080D01*
X126885000Y-90040686D01*
X126885000Y-90517016D01*
X127026920Y-90458232D01*
X127162432Y-90367686D01*
X127162435Y-90367684D01*
X127277684Y-90252435D01*
X127277686Y-90252432D01*
X127368232Y-90116919D01*
X127368234Y-90116917D01*
X127430600Y-89966348D01*
X127430605Y-89966334D01*
X127430857Y-89965069D01*
X127431099Y-89964706D01*
X127431315Y-89963996D01*
X127431530Y-89964061D01*
X127452033Y-89933377D01*
X127489415Y-89925941D01*
X127521107Y-89947117D01*
X127529500Y-89974784D01*
X127529500Y-93475215D01*
X127514914Y-93510429D01*
X127479700Y-93525015D01*
X127444486Y-93510429D01*
X127431413Y-93485974D01*
X127431315Y-93486004D01*
X127431164Y-93485508D01*
X127430857Y-93484933D01*
X127430603Y-93483661D01*
X127430600Y-93483651D01*
X127368234Y-93333082D01*
X127368232Y-93333080D01*
X127277686Y-93197567D01*
X127162432Y-93082313D01*
X127026919Y-92991767D01*
X127026920Y-92991767D01*
X126885000Y-92932981D01*
X126885000Y-93409314D01*
X126880606Y-93404920D01*
X126789394Y-93352259D01*
X126687661Y-93325000D01*
X126582339Y-93325000D01*
X126480606Y-93352259D01*
X126389394Y-93404920D01*
X126385000Y-93409314D01*
X126385000Y-92932981D01*
X126243079Y-92991767D01*
X126107567Y-93082313D01*
X126107565Y-93082316D01*
X125992316Y-93197565D01*
X125992313Y-93197567D01*
X125901767Y-93333079D01*
X125842982Y-93475000D01*
X126319314Y-93475000D01*
X126314920Y-93479394D01*
X126262259Y-93570606D01*
X126235000Y-93672339D01*
X126235000Y-93777661D01*
X126262259Y-93879394D01*
X126314920Y-93970606D01*
X126319314Y-93975000D01*
X125842982Y-93975000D01*
X125901767Y-94116920D01*
X125992313Y-94252432D01*
X126107567Y-94367686D01*
X126243080Y-94458232D01*
X126243079Y-94458232D01*
X126385000Y-94517017D01*
X126385000Y-94040686D01*
X126389394Y-94045080D01*
X126480606Y-94097741D01*
X126582339Y-94125000D01*
X126687661Y-94125000D01*
X126789394Y-94097741D01*
X126880606Y-94045080D01*
X126885000Y-94040686D01*
X126885000Y-94517016D01*
X127026920Y-94458232D01*
X127162432Y-94367686D01*
X127162435Y-94367684D01*
X127277684Y-94252435D01*
X127277686Y-94252432D01*
X127368232Y-94116919D01*
X127368234Y-94116917D01*
X127430600Y-93966348D01*
X127430605Y-93966334D01*
X127430857Y-93965069D01*
X127431099Y-93964706D01*
X127431315Y-93963996D01*
X127431530Y-93964061D01*
X127452033Y-93933377D01*
X127489415Y-93925941D01*
X127521107Y-93947117D01*
X127529500Y-93974784D01*
X127529500Y-110546080D01*
X127528887Y-110553870D01*
X127518970Y-110616483D01*
X127515791Y-110627754D01*
X127511477Y-110638167D01*
X127509841Y-110641714D01*
X127485431Y-110689622D01*
X127476273Y-110702228D01*
X127432228Y-110746273D01*
X127419623Y-110755430D01*
X127419622Y-110755431D01*
X127371714Y-110779841D01*
X127368167Y-110781477D01*
X127357754Y-110785791D01*
X127346483Y-110788970D01*
X127283870Y-110798887D01*
X127276080Y-110799500D01*
X114613920Y-110799500D01*
X114606130Y-110798887D01*
X114543515Y-110788970D01*
X114532243Y-110785790D01*
X114521836Y-110781478D01*
X114518290Y-110779843D01*
X114470376Y-110755430D01*
X114457770Y-110746272D01*
X114413726Y-110702228D01*
X114404568Y-110689623D01*
X114380146Y-110641693D01*
X114378522Y-110638167D01*
X114374205Y-110627747D01*
X114371029Y-110616483D01*
X114366783Y-110589675D01*
X114361113Y-110553870D01*
X114360500Y-110546080D01*
X114360500Y-107553643D01*
X115322900Y-107553643D01*
X115322900Y-107646356D01*
X115346893Y-107735900D01*
X115346894Y-107735902D01*
X115346895Y-107735905D01*
X115393250Y-107816194D01*
X115458806Y-107881750D01*
X115539095Y-107928105D01*
X115628645Y-107952100D01*
X115721355Y-107952100D01*
X115810905Y-107928105D01*
X115891194Y-107881750D01*
X115956750Y-107816194D01*
X116003105Y-107735905D01*
X116027100Y-107646355D01*
X116027100Y-107553645D01*
X116027099Y-107553643D01*
X116172900Y-107553643D01*
X116172900Y-107646356D01*
X116196893Y-107735900D01*
X116196894Y-107735902D01*
X116196895Y-107735905D01*
X116243250Y-107816194D01*
X116308806Y-107881750D01*
X116389095Y-107928105D01*
X116478645Y-107952100D01*
X116571355Y-107952100D01*
X116660905Y-107928105D01*
X116741194Y-107881750D01*
X116806750Y-107816194D01*
X116853105Y-107735905D01*
X116858508Y-107715741D01*
X117102600Y-107715741D01*
X117102600Y-107930000D01*
X117455000Y-107930000D01*
X117455000Y-108430000D01*
X117102600Y-108430000D01*
X117102600Y-108644258D01*
X117127668Y-108770288D01*
X117127673Y-108770302D01*
X117176848Y-108889023D01*
X117176849Y-108889025D01*
X117248244Y-108995877D01*
X117339122Y-109086755D01*
X117445974Y-109158150D01*
X117445976Y-109158151D01*
X117504998Y-109182599D01*
X117505000Y-109182598D01*
X117505000Y-108746988D01*
X117514940Y-108764205D01*
X117570795Y-108820060D01*
X117639204Y-108859556D01*
X117715504Y-108880000D01*
X117794496Y-108880000D01*
X117870796Y-108859556D01*
X117939205Y-108820060D01*
X117995060Y-108764205D01*
X118005000Y-108746988D01*
X118005000Y-109182598D01*
X118005001Y-109182599D01*
X118064023Y-109158151D01*
X118064025Y-109158150D01*
X118170877Y-109086755D01*
X118170880Y-109086753D01*
X118261753Y-108995880D01*
X118261755Y-108995877D01*
X118333150Y-108889025D01*
X118333151Y-108889023D01*
X118382326Y-108770302D01*
X118382331Y-108770288D01*
X118407399Y-108644258D01*
X118407400Y-108644252D01*
X118407400Y-108430000D01*
X118055000Y-108430000D01*
X118055000Y-107930000D01*
X118407400Y-107930000D01*
X118407400Y-107715748D01*
X118407399Y-107715741D01*
X125742600Y-107715741D01*
X125742600Y-107930000D01*
X126095000Y-107930000D01*
X126095000Y-108430000D01*
X125742600Y-108430000D01*
X125742600Y-108644258D01*
X125767668Y-108770288D01*
X125767673Y-108770302D01*
X125816848Y-108889023D01*
X125816849Y-108889025D01*
X125888244Y-108995877D01*
X125979122Y-109086755D01*
X126085974Y-109158150D01*
X126085976Y-109158151D01*
X126144998Y-109182599D01*
X126145000Y-109182598D01*
X126145000Y-108746988D01*
X126154940Y-108764205D01*
X126210795Y-108820060D01*
X126279204Y-108859556D01*
X126355504Y-108880000D01*
X126434496Y-108880000D01*
X126510796Y-108859556D01*
X126579205Y-108820060D01*
X126635060Y-108764205D01*
X126645000Y-108746988D01*
X126645000Y-109182598D01*
X126645001Y-109182599D01*
X126704023Y-109158151D01*
X126704025Y-109158150D01*
X126810877Y-109086755D01*
X126810880Y-109086753D01*
X126901753Y-108995880D01*
X126901755Y-108995877D01*
X126973150Y-108889025D01*
X126973151Y-108889023D01*
X127022326Y-108770302D01*
X127022331Y-108770288D01*
X127047399Y-108644258D01*
X127047400Y-108644252D01*
X127047400Y-108430000D01*
X126695000Y-108430000D01*
X126695000Y-107930000D01*
X127047400Y-107930000D01*
X127047400Y-107715748D01*
X127047399Y-107715741D01*
X127022331Y-107589711D01*
X127022326Y-107589697D01*
X126973151Y-107470976D01*
X126973150Y-107470974D01*
X126901755Y-107364122D01*
X126810877Y-107273244D01*
X126704025Y-107201849D01*
X126704026Y-107201849D01*
X126645000Y-107177399D01*
X126645000Y-107613011D01*
X126635060Y-107595795D01*
X126579205Y-107539940D01*
X126510796Y-107500444D01*
X126434496Y-107480000D01*
X126355504Y-107480000D01*
X126279204Y-107500444D01*
X126210795Y-107539940D01*
X126154940Y-107595795D01*
X126145000Y-107613011D01*
X126145000Y-107177399D01*
X126085973Y-107201849D01*
X125979122Y-107273244D01*
X125979120Y-107273247D01*
X125888247Y-107364120D01*
X125888244Y-107364122D01*
X125816849Y-107470974D01*
X125816848Y-107470976D01*
X125767673Y-107589697D01*
X125767668Y-107589711D01*
X125742600Y-107715741D01*
X118407399Y-107715741D01*
X118382331Y-107589711D01*
X118382326Y-107589697D01*
X118333151Y-107470976D01*
X118333150Y-107470974D01*
X118261755Y-107364122D01*
X118170877Y-107273244D01*
X118064025Y-107201849D01*
X118064026Y-107201849D01*
X118005000Y-107177399D01*
X118005000Y-107613011D01*
X117995060Y-107595795D01*
X117939205Y-107539940D01*
X117870796Y-107500444D01*
X117794496Y-107480000D01*
X117715504Y-107480000D01*
X117639204Y-107500444D01*
X117570795Y-107539940D01*
X117514940Y-107595795D01*
X117505000Y-107613011D01*
X117505000Y-107177399D01*
X117445973Y-107201849D01*
X117339122Y-107273244D01*
X117339120Y-107273247D01*
X117248247Y-107364120D01*
X117248244Y-107364122D01*
X117176849Y-107470974D01*
X117176848Y-107470976D01*
X117127673Y-107589697D01*
X117127668Y-107589711D01*
X117102600Y-107715741D01*
X116858508Y-107715741D01*
X116877100Y-107646355D01*
X116877100Y-107553645D01*
X116853105Y-107464095D01*
X116806750Y-107383806D01*
X116741194Y-107318250D01*
X116741193Y-107318249D01*
X116692057Y-107289881D01*
X116660905Y-107271895D01*
X116660902Y-107271894D01*
X116660900Y-107271893D01*
X116571356Y-107247900D01*
X116571355Y-107247900D01*
X116478645Y-107247900D01*
X116478643Y-107247900D01*
X116389099Y-107271893D01*
X116389091Y-107271897D01*
X116308806Y-107318249D01*
X116243249Y-107383806D01*
X116196897Y-107464091D01*
X116196893Y-107464099D01*
X116172900Y-107553643D01*
X116027099Y-107553643D01*
X116003105Y-107464095D01*
X115956750Y-107383806D01*
X115891194Y-107318250D01*
X115891193Y-107318249D01*
X115842057Y-107289881D01*
X115810905Y-107271895D01*
X115810902Y-107271894D01*
X115810900Y-107271893D01*
X115721356Y-107247900D01*
X115721355Y-107247900D01*
X115628645Y-107247900D01*
X115628643Y-107247900D01*
X115539099Y-107271893D01*
X115539091Y-107271897D01*
X115458806Y-107318249D01*
X115393249Y-107383806D01*
X115346897Y-107464091D01*
X115346893Y-107464099D01*
X115322900Y-107553643D01*
X114360500Y-107553643D01*
X114360500Y-105643643D01*
X118887900Y-105643643D01*
X118887900Y-105736356D01*
X118911893Y-105825900D01*
X118911894Y-105825902D01*
X118911895Y-105825905D01*
X118958250Y-105906194D01*
X119023806Y-105971750D01*
X119104095Y-106018105D01*
X119193645Y-106042100D01*
X119286355Y-106042100D01*
X119375905Y-106018105D01*
X119456194Y-105971750D01*
X119521750Y-105906194D01*
X119568105Y-105825905D01*
X119592100Y-105736355D01*
X119592100Y-105643645D01*
X119568105Y-105554095D01*
X119521750Y-105473806D01*
X119456194Y-105408250D01*
X119456193Y-105408249D01*
X119375908Y-105361897D01*
X119375905Y-105361895D01*
X119375902Y-105361894D01*
X119375900Y-105361893D01*
X119286356Y-105337900D01*
X119286355Y-105337900D01*
X119193645Y-105337900D01*
X119193643Y-105337900D01*
X119104099Y-105361893D01*
X119104091Y-105361897D01*
X119023806Y-105408249D01*
X118958249Y-105473806D01*
X118911897Y-105554091D01*
X118911893Y-105554099D01*
X118887900Y-105643643D01*
X114360500Y-105643643D01*
X114360500Y-104453643D01*
X115922900Y-104453643D01*
X115922900Y-104546356D01*
X115946893Y-104635900D01*
X115946897Y-104635908D01*
X115985537Y-104702836D01*
X115993250Y-104716194D01*
X116058806Y-104781750D01*
X116139095Y-104828105D01*
X116228645Y-104852100D01*
X116321355Y-104852100D01*
X116410905Y-104828105D01*
X116491194Y-104781750D01*
X116556750Y-104716194D01*
X116603105Y-104635905D01*
X116627100Y-104546355D01*
X116627100Y-104453645D01*
X116603105Y-104364095D01*
X116556750Y-104283806D01*
X116491194Y-104218250D01*
X116491193Y-104218249D01*
X116410908Y-104171897D01*
X116410905Y-104171895D01*
X116410902Y-104171894D01*
X116410900Y-104171893D01*
X116321356Y-104147900D01*
X116321355Y-104147900D01*
X116228645Y-104147900D01*
X116228643Y-104147900D01*
X116139099Y-104171893D01*
X116139091Y-104171897D01*
X116058806Y-104218249D01*
X115993249Y-104283806D01*
X115946897Y-104364091D01*
X115946893Y-104364099D01*
X115922900Y-104453643D01*
X114360500Y-104453643D01*
X114360500Y-103385741D01*
X117102600Y-103385741D01*
X117102600Y-103750000D01*
X117455000Y-103750000D01*
X117455000Y-104250000D01*
X117102600Y-104250000D01*
X117102600Y-104614258D01*
X117127668Y-104740288D01*
X117127673Y-104740302D01*
X117176848Y-104859023D01*
X117176849Y-104859025D01*
X117248244Y-104965877D01*
X117339122Y-105056755D01*
X117445974Y-105128150D01*
X117445976Y-105128151D01*
X117504998Y-105152599D01*
X117505000Y-105152598D01*
X117505000Y-104716988D01*
X117514940Y-104734205D01*
X117570795Y-104790060D01*
X117639204Y-104829556D01*
X117715504Y-104850000D01*
X117794496Y-104850000D01*
X117870796Y-104829556D01*
X117939205Y-104790060D01*
X117995060Y-104734205D01*
X118005000Y-104716988D01*
X118005000Y-105152598D01*
X118005001Y-105152599D01*
X118064023Y-105128151D01*
X118064025Y-105128150D01*
X118170877Y-105056755D01*
X118170880Y-105056753D01*
X118261753Y-104965880D01*
X118261755Y-104965877D01*
X118333150Y-104859025D01*
X118333151Y-104859023D01*
X118382326Y-104740302D01*
X118382331Y-104740288D01*
X118407399Y-104614258D01*
X118407400Y-104614252D01*
X118407400Y-104430815D01*
X118659500Y-104430815D01*
X118659500Y-104569184D01*
X118695310Y-104702831D01*
X118695314Y-104702839D01*
X118745670Y-104790060D01*
X118764495Y-104822665D01*
X118862335Y-104920505D01*
X118982164Y-104989688D01*
X119115817Y-105025500D01*
X119254183Y-105025500D01*
X119387836Y-104989688D01*
X119507665Y-104920505D01*
X119605505Y-104822665D01*
X119674688Y-104702836D01*
X119710500Y-104569183D01*
X119710500Y-104453643D01*
X122972900Y-104453643D01*
X122972900Y-104546356D01*
X122996893Y-104635900D01*
X122996897Y-104635908D01*
X123035537Y-104702836D01*
X123043250Y-104716194D01*
X123108806Y-104781750D01*
X123189095Y-104828105D01*
X123278645Y-104852100D01*
X123371355Y-104852100D01*
X123460905Y-104828105D01*
X123541194Y-104781750D01*
X123606750Y-104716194D01*
X123653105Y-104635905D01*
X123677100Y-104546355D01*
X123677100Y-104453645D01*
X123670983Y-104430815D01*
X124439500Y-104430815D01*
X124439500Y-104569184D01*
X124475310Y-104702831D01*
X124475314Y-104702839D01*
X124525670Y-104790060D01*
X124544495Y-104822665D01*
X124642335Y-104920505D01*
X124762164Y-104989688D01*
X124895817Y-105025500D01*
X125034183Y-105025500D01*
X125167836Y-104989688D01*
X125287665Y-104920505D01*
X125385505Y-104822665D01*
X125454688Y-104702836D01*
X125490500Y-104569183D01*
X125490500Y-104430817D01*
X125454688Y-104297164D01*
X125385505Y-104177335D01*
X125287665Y-104079495D01*
X125287664Y-104079494D01*
X125167839Y-104010314D01*
X125167836Y-104010312D01*
X125167833Y-104010311D01*
X125167831Y-104010310D01*
X125034184Y-103974500D01*
X125034183Y-103974500D01*
X124895817Y-103974500D01*
X124895815Y-103974500D01*
X124762168Y-104010310D01*
X124762160Y-104010314D01*
X124642335Y-104079494D01*
X124544494Y-104177335D01*
X124475314Y-104297160D01*
X124475310Y-104297168D01*
X124439500Y-104430815D01*
X123670983Y-104430815D01*
X123653105Y-104364095D01*
X123606750Y-104283806D01*
X123541194Y-104218250D01*
X123541193Y-104218249D01*
X123460908Y-104171897D01*
X123460905Y-104171895D01*
X123460902Y-104171894D01*
X123460900Y-104171893D01*
X123371356Y-104147900D01*
X123371355Y-104147900D01*
X123278645Y-104147900D01*
X123278643Y-104147900D01*
X123189099Y-104171893D01*
X123189091Y-104171897D01*
X123108806Y-104218249D01*
X123043249Y-104283806D01*
X122996897Y-104364091D01*
X122996893Y-104364099D01*
X122972900Y-104453643D01*
X119710500Y-104453643D01*
X119710500Y-104430817D01*
X119674688Y-104297164D01*
X119605505Y-104177335D01*
X119507665Y-104079495D01*
X119507664Y-104079494D01*
X119387839Y-104010314D01*
X119387836Y-104010312D01*
X119387833Y-104010311D01*
X119387831Y-104010310D01*
X119254184Y-103974500D01*
X119254183Y-103974500D01*
X119115817Y-103974500D01*
X119115815Y-103974500D01*
X118982168Y-104010310D01*
X118982160Y-104010314D01*
X118862335Y-104079494D01*
X118764494Y-104177335D01*
X118695314Y-104297160D01*
X118695310Y-104297168D01*
X118659500Y-104430815D01*
X118407400Y-104430815D01*
X118407400Y-104250000D01*
X118055000Y-104250000D01*
X118055000Y-103750000D01*
X118407400Y-103750000D01*
X118407400Y-103385748D01*
X118407399Y-103385739D01*
X118407271Y-103385095D01*
X118405988Y-103378643D01*
X119322900Y-103378643D01*
X119322900Y-103471356D01*
X119346893Y-103560900D01*
X119346894Y-103560902D01*
X119346895Y-103560905D01*
X119393250Y-103641194D01*
X119458806Y-103706750D01*
X119539095Y-103753105D01*
X119628645Y-103777100D01*
X119721355Y-103777100D01*
X119810905Y-103753105D01*
X119891194Y-103706750D01*
X119956750Y-103641194D01*
X120003105Y-103560905D01*
X120027100Y-103471355D01*
X120027100Y-103378645D01*
X120027099Y-103378643D01*
X124122900Y-103378643D01*
X124122900Y-103471356D01*
X124146893Y-103560900D01*
X124146894Y-103560902D01*
X124146895Y-103560905D01*
X124193250Y-103641194D01*
X124258806Y-103706750D01*
X124339095Y-103753105D01*
X124428645Y-103777100D01*
X124521355Y-103777100D01*
X124610905Y-103753105D01*
X124691194Y-103706750D01*
X124756750Y-103641194D01*
X124803105Y-103560905D01*
X124827100Y-103471355D01*
X124827100Y-103385741D01*
X125742600Y-103385741D01*
X125742600Y-103750000D01*
X126095000Y-103750000D01*
X126095000Y-104250000D01*
X125742600Y-104250000D01*
X125742600Y-104614258D01*
X125767668Y-104740288D01*
X125767673Y-104740302D01*
X125816848Y-104859023D01*
X125816849Y-104859025D01*
X125888244Y-104965877D01*
X125979122Y-105056755D01*
X126085974Y-105128150D01*
X126085976Y-105128151D01*
X126144998Y-105152599D01*
X126145000Y-105152598D01*
X126145000Y-104716988D01*
X126154940Y-104734205D01*
X126210795Y-104790060D01*
X126279204Y-104829556D01*
X126355504Y-104850000D01*
X126434496Y-104850000D01*
X126510796Y-104829556D01*
X126579205Y-104790060D01*
X126635060Y-104734205D01*
X126645000Y-104716988D01*
X126645000Y-105152598D01*
X126645001Y-105152599D01*
X126704023Y-105128151D01*
X126704025Y-105128150D01*
X126810877Y-105056755D01*
X126810880Y-105056753D01*
X126901753Y-104965880D01*
X126901755Y-104965877D01*
X126973150Y-104859025D01*
X126973151Y-104859023D01*
X127022326Y-104740302D01*
X127022331Y-104740288D01*
X127047399Y-104614258D01*
X127047400Y-104614252D01*
X127047400Y-104250000D01*
X126695000Y-104250000D01*
X126695000Y-103750000D01*
X127047400Y-103750000D01*
X127047400Y-103385748D01*
X127047399Y-103385741D01*
X127022331Y-103259711D01*
X127022326Y-103259697D01*
X126973151Y-103140976D01*
X126973150Y-103140974D01*
X126901755Y-103034122D01*
X126810877Y-102943244D01*
X126704025Y-102871849D01*
X126704026Y-102871849D01*
X126645000Y-102847399D01*
X126645000Y-103283011D01*
X126635060Y-103265795D01*
X126579205Y-103209940D01*
X126510796Y-103170444D01*
X126434496Y-103150000D01*
X126355504Y-103150000D01*
X126279204Y-103170444D01*
X126210795Y-103209940D01*
X126154940Y-103265795D01*
X126145000Y-103283011D01*
X126145000Y-102847399D01*
X126085973Y-102871849D01*
X125979122Y-102943244D01*
X125979120Y-102943247D01*
X125888247Y-103034120D01*
X125888244Y-103034122D01*
X125816849Y-103140974D01*
X125816848Y-103140976D01*
X125767673Y-103259697D01*
X125767668Y-103259711D01*
X125742600Y-103385741D01*
X124827100Y-103385741D01*
X124827100Y-103378645D01*
X124803105Y-103289095D01*
X124756750Y-103208806D01*
X124691194Y-103143250D01*
X124691193Y-103143249D01*
X124610908Y-103096897D01*
X124610905Y-103096895D01*
X124610902Y-103096894D01*
X124610900Y-103096893D01*
X124521356Y-103072900D01*
X124521355Y-103072900D01*
X124428645Y-103072900D01*
X124428643Y-103072900D01*
X124339099Y-103096893D01*
X124339091Y-103096897D01*
X124258806Y-103143249D01*
X124193249Y-103208806D01*
X124146897Y-103289091D01*
X124146893Y-103289099D01*
X124122900Y-103378643D01*
X120027099Y-103378643D01*
X120003105Y-103289095D01*
X119956750Y-103208806D01*
X119891194Y-103143250D01*
X119891193Y-103143249D01*
X119810908Y-103096897D01*
X119810905Y-103096895D01*
X119810902Y-103096894D01*
X119810900Y-103096893D01*
X119721356Y-103072900D01*
X119721355Y-103072900D01*
X119628645Y-103072900D01*
X119628643Y-103072900D01*
X119539099Y-103096893D01*
X119539091Y-103096897D01*
X119458806Y-103143249D01*
X119393249Y-103208806D01*
X119346897Y-103289091D01*
X119346893Y-103289099D01*
X119322900Y-103378643D01*
X118405988Y-103378643D01*
X118382331Y-103259711D01*
X118382326Y-103259697D01*
X118333151Y-103140976D01*
X118333150Y-103140974D01*
X118261755Y-103034122D01*
X118170877Y-102943244D01*
X118064025Y-102871849D01*
X118064026Y-102871849D01*
X118005000Y-102847399D01*
X118005000Y-103283011D01*
X117995060Y-103265795D01*
X117939205Y-103209940D01*
X117870796Y-103170444D01*
X117794496Y-103150000D01*
X117715504Y-103150000D01*
X117639204Y-103170444D01*
X117570795Y-103209940D01*
X117514940Y-103265795D01*
X117505000Y-103283011D01*
X117505000Y-102847399D01*
X117445973Y-102871849D01*
X117339122Y-102943244D01*
X117339120Y-102943247D01*
X117248247Y-103034120D01*
X117248244Y-103034122D01*
X117176849Y-103140974D01*
X117176848Y-103140976D01*
X117127673Y-103259697D01*
X117127668Y-103259711D01*
X117102600Y-103385741D01*
X114360500Y-103385741D01*
X114360500Y-101153643D01*
X116397900Y-101153643D01*
X116397900Y-101246356D01*
X116421893Y-101335900D01*
X116421894Y-101335902D01*
X116421895Y-101335905D01*
X116468250Y-101416194D01*
X116533806Y-101481750D01*
X116614095Y-101528105D01*
X116703645Y-101552100D01*
X116796355Y-101552100D01*
X116885905Y-101528105D01*
X116966194Y-101481750D01*
X117031750Y-101416194D01*
X117078105Y-101335905D01*
X117102100Y-101246355D01*
X117102100Y-101155693D01*
X118298100Y-101155693D01*
X118298100Y-101248406D01*
X118322093Y-101337950D01*
X118322094Y-101337952D01*
X118322095Y-101337955D01*
X118322097Y-101337958D01*
X118367265Y-101416193D01*
X118368450Y-101418244D01*
X118434006Y-101483800D01*
X118514295Y-101530155D01*
X118603845Y-101554150D01*
X118696555Y-101554150D01*
X118786105Y-101530155D01*
X118866394Y-101483800D01*
X118931950Y-101418244D01*
X118963474Y-101363643D01*
X124187900Y-101363643D01*
X124187900Y-101456356D01*
X124211893Y-101545900D01*
X124211894Y-101545902D01*
X124211895Y-101545905D01*
X124258250Y-101626194D01*
X124323806Y-101691750D01*
X124404095Y-101738105D01*
X124493645Y-101762100D01*
X124586355Y-101762100D01*
X124675905Y-101738105D01*
X124756194Y-101691750D01*
X124821750Y-101626194D01*
X124868105Y-101545905D01*
X124892100Y-101456355D01*
X124892100Y-101363645D01*
X124868105Y-101274095D01*
X124821750Y-101193806D01*
X124756194Y-101128250D01*
X124756193Y-101128249D01*
X124675908Y-101081897D01*
X124675905Y-101081895D01*
X124675902Y-101081894D01*
X124675900Y-101081893D01*
X124586356Y-101057900D01*
X124586355Y-101057900D01*
X124493645Y-101057900D01*
X124493643Y-101057900D01*
X124404099Y-101081893D01*
X124404091Y-101081897D01*
X124323806Y-101128249D01*
X124258249Y-101193806D01*
X124211897Y-101274091D01*
X124211893Y-101274099D01*
X124187900Y-101363643D01*
X118963474Y-101363643D01*
X118978305Y-101337955D01*
X119002300Y-101248405D01*
X119002300Y-101155695D01*
X118978305Y-101066145D01*
X118931950Y-100985856D01*
X118866394Y-100920300D01*
X118866393Y-100920299D01*
X118786108Y-100873947D01*
X118786105Y-100873945D01*
X118786102Y-100873944D01*
X118786100Y-100873943D01*
X118696556Y-100849950D01*
X118696555Y-100849950D01*
X118603845Y-100849950D01*
X118603843Y-100849950D01*
X118514299Y-100873943D01*
X118514291Y-100873947D01*
X118434006Y-100920299D01*
X118368449Y-100985856D01*
X118322097Y-101066141D01*
X118322093Y-101066149D01*
X118298100Y-101155693D01*
X117102100Y-101155693D01*
X117102100Y-101153645D01*
X117078105Y-101064095D01*
X117031750Y-100983806D01*
X116966194Y-100918250D01*
X116966193Y-100918249D01*
X116889459Y-100873947D01*
X116885905Y-100871895D01*
X116885902Y-100871894D01*
X116885900Y-100871893D01*
X116796356Y-100847900D01*
X116796355Y-100847900D01*
X116703645Y-100847900D01*
X116703643Y-100847900D01*
X116614099Y-100871893D01*
X116614091Y-100871897D01*
X116533806Y-100918249D01*
X116468249Y-100983806D01*
X116421897Y-101064091D01*
X116421893Y-101064099D01*
X116397900Y-101153643D01*
X114360500Y-101153643D01*
X114360500Y-100283643D01*
X119347900Y-100283643D01*
X119347900Y-100376356D01*
X119371893Y-100465900D01*
X119371894Y-100465902D01*
X119371895Y-100465905D01*
X119418250Y-100546194D01*
X119483806Y-100611750D01*
X119564095Y-100658105D01*
X119653645Y-100682100D01*
X119746355Y-100682100D01*
X119835905Y-100658105D01*
X119916194Y-100611750D01*
X119981750Y-100546194D01*
X120028105Y-100465905D01*
X120052100Y-100376355D01*
X120052100Y-100343643D01*
X121247900Y-100343643D01*
X121247900Y-100436356D01*
X121271893Y-100525900D01*
X121271894Y-100525902D01*
X121271895Y-100525905D01*
X121318250Y-100606194D01*
X121383806Y-100671750D01*
X121464095Y-100718105D01*
X121553645Y-100742100D01*
X121646355Y-100742100D01*
X121735905Y-100718105D01*
X121816194Y-100671750D01*
X121881750Y-100606194D01*
X121928105Y-100525905D01*
X121952100Y-100436355D01*
X121952100Y-100343645D01*
X121952099Y-100343643D01*
X122217900Y-100343643D01*
X122217900Y-100436356D01*
X122241893Y-100525900D01*
X122241894Y-100525902D01*
X122241895Y-100525905D01*
X122288250Y-100606194D01*
X122353806Y-100671750D01*
X122434095Y-100718105D01*
X122523645Y-100742100D01*
X122616355Y-100742100D01*
X122705905Y-100718105D01*
X122786194Y-100671750D01*
X122851750Y-100606194D01*
X122898105Y-100525905D01*
X122922100Y-100436355D01*
X122922100Y-100343645D01*
X122922099Y-100343643D01*
X124197900Y-100343643D01*
X124197900Y-100436356D01*
X124221893Y-100525900D01*
X124221894Y-100525902D01*
X124221895Y-100525905D01*
X124268250Y-100606194D01*
X124333806Y-100671750D01*
X124414095Y-100718105D01*
X124503645Y-100742100D01*
X124596355Y-100742100D01*
X124685905Y-100718105D01*
X124766194Y-100671750D01*
X124831750Y-100606194D01*
X124878105Y-100525905D01*
X124902100Y-100436355D01*
X124902100Y-100343645D01*
X124878105Y-100254095D01*
X124831750Y-100173806D01*
X124766194Y-100108250D01*
X124766193Y-100108249D01*
X124685908Y-100061897D01*
X124685905Y-100061895D01*
X124685902Y-100061894D01*
X124685900Y-100061893D01*
X124596356Y-100037900D01*
X124596355Y-100037900D01*
X124503645Y-100037900D01*
X124503643Y-100037900D01*
X124414099Y-100061893D01*
X124414091Y-100061897D01*
X124333806Y-100108249D01*
X124268249Y-100173806D01*
X124221897Y-100254091D01*
X124221893Y-100254099D01*
X124197900Y-100343643D01*
X122922099Y-100343643D01*
X122898105Y-100254095D01*
X122851750Y-100173806D01*
X122786194Y-100108250D01*
X122786193Y-100108249D01*
X122705908Y-100061897D01*
X122705905Y-100061895D01*
X122705902Y-100061894D01*
X122705900Y-100061893D01*
X122616356Y-100037900D01*
X122616355Y-100037900D01*
X122523645Y-100037900D01*
X122523643Y-100037900D01*
X122434099Y-100061893D01*
X122434091Y-100061897D01*
X122353806Y-100108249D01*
X122288249Y-100173806D01*
X122241897Y-100254091D01*
X122241893Y-100254099D01*
X122217900Y-100343643D01*
X121952099Y-100343643D01*
X121928105Y-100254095D01*
X121881750Y-100173806D01*
X121816194Y-100108250D01*
X121816193Y-100108249D01*
X121735908Y-100061897D01*
X121735905Y-100061895D01*
X121735902Y-100061894D01*
X121735900Y-100061893D01*
X121646356Y-100037900D01*
X121646355Y-100037900D01*
X121553645Y-100037900D01*
X121553643Y-100037900D01*
X121464099Y-100061893D01*
X121464091Y-100061897D01*
X121383806Y-100108249D01*
X121318249Y-100173806D01*
X121271897Y-100254091D01*
X121271893Y-100254099D01*
X121247900Y-100343643D01*
X120052100Y-100343643D01*
X120052100Y-100283645D01*
X120028105Y-100194095D01*
X119981750Y-100113806D01*
X119916194Y-100048250D01*
X119916193Y-100048249D01*
X119835908Y-100001897D01*
X119835905Y-100001895D01*
X119835902Y-100001894D01*
X119835900Y-100001893D01*
X119746356Y-99977900D01*
X119746355Y-99977900D01*
X119653645Y-99977900D01*
X119653643Y-99977900D01*
X119564099Y-100001893D01*
X119564091Y-100001897D01*
X119483806Y-100048249D01*
X119418249Y-100113806D01*
X119371897Y-100194091D01*
X119371893Y-100194099D01*
X119347900Y-100283643D01*
X114360500Y-100283643D01*
X114360500Y-99828643D01*
X114747900Y-99828643D01*
X114747900Y-99921356D01*
X114771893Y-100010900D01*
X114771894Y-100010902D01*
X114771895Y-100010905D01*
X114818250Y-100091194D01*
X114883806Y-100156750D01*
X114964095Y-100203105D01*
X115053645Y-100227100D01*
X115146355Y-100227100D01*
X115235905Y-100203105D01*
X115316194Y-100156750D01*
X115381750Y-100091194D01*
X115428105Y-100010905D01*
X115452100Y-99921355D01*
X115452100Y-99828645D01*
X115428105Y-99739095D01*
X115381750Y-99658806D01*
X115316194Y-99593250D01*
X115316193Y-99593249D01*
X115235908Y-99546897D01*
X115235905Y-99546895D01*
X115235902Y-99546894D01*
X115235900Y-99546893D01*
X115146356Y-99522900D01*
X115146355Y-99522900D01*
X115053645Y-99522900D01*
X115053643Y-99522900D01*
X114964099Y-99546893D01*
X114964091Y-99546897D01*
X114883806Y-99593249D01*
X114818249Y-99658806D01*
X114771897Y-99739091D01*
X114771893Y-99739099D01*
X114747900Y-99828643D01*
X114360500Y-99828643D01*
X114360500Y-99358643D01*
X121737900Y-99358643D01*
X121737900Y-99451356D01*
X121761893Y-99540900D01*
X121761894Y-99540902D01*
X121761895Y-99540905D01*
X121808250Y-99621194D01*
X121873806Y-99686750D01*
X121954095Y-99733105D01*
X122043645Y-99757100D01*
X122136355Y-99757100D01*
X122225905Y-99733105D01*
X122306194Y-99686750D01*
X122371750Y-99621194D01*
X122418105Y-99540905D01*
X122442100Y-99451355D01*
X122442100Y-99358645D01*
X122434061Y-99328645D01*
X122434060Y-99328643D01*
X122737900Y-99328643D01*
X122737900Y-99421356D01*
X122761893Y-99510900D01*
X122761897Y-99510908D01*
X122805362Y-99586193D01*
X122808250Y-99591194D01*
X122873806Y-99656750D01*
X122954095Y-99703105D01*
X123043645Y-99727100D01*
X123136355Y-99727100D01*
X123225905Y-99703105D01*
X123306194Y-99656750D01*
X123371750Y-99591194D01*
X123418105Y-99510905D01*
X123442100Y-99421355D01*
X123442100Y-99328645D01*
X123442099Y-99328643D01*
X123440759Y-99323643D01*
X124207900Y-99323643D01*
X124207900Y-99416356D01*
X124231893Y-99505900D01*
X124231894Y-99505902D01*
X124231895Y-99505905D01*
X124278250Y-99586194D01*
X124343806Y-99651750D01*
X124424095Y-99698105D01*
X124513645Y-99722100D01*
X124606355Y-99722100D01*
X124695905Y-99698105D01*
X124776194Y-99651750D01*
X124841750Y-99586194D01*
X124888105Y-99505905D01*
X124912100Y-99416355D01*
X124912100Y-99323645D01*
X124888105Y-99234095D01*
X124841750Y-99153806D01*
X124776194Y-99088250D01*
X124776193Y-99088249D01*
X124714966Y-99052900D01*
X124695905Y-99041895D01*
X124695902Y-99041894D01*
X124695900Y-99041893D01*
X124606356Y-99017900D01*
X124606355Y-99017900D01*
X124513645Y-99017900D01*
X124513643Y-99017900D01*
X124424099Y-99041893D01*
X124424091Y-99041897D01*
X124343806Y-99088249D01*
X124278249Y-99153806D01*
X124231897Y-99234091D01*
X124231893Y-99234099D01*
X124207900Y-99323643D01*
X123440759Y-99323643D01*
X123418106Y-99239099D01*
X123418105Y-99239095D01*
X123371750Y-99158806D01*
X123306194Y-99093250D01*
X123306193Y-99093249D01*
X123225908Y-99046897D01*
X123225905Y-99046895D01*
X123225902Y-99046894D01*
X123225900Y-99046893D01*
X123136356Y-99022900D01*
X123136355Y-99022900D01*
X123043645Y-99022900D01*
X123043643Y-99022900D01*
X122954099Y-99046893D01*
X122954091Y-99046897D01*
X122873806Y-99093249D01*
X122808249Y-99158806D01*
X122761897Y-99239091D01*
X122761893Y-99239099D01*
X122737900Y-99328643D01*
X122434060Y-99328643D01*
X122418106Y-99269099D01*
X122418105Y-99269095D01*
X122371750Y-99188806D01*
X122306194Y-99123250D01*
X122306193Y-99123249D01*
X122245572Y-99088250D01*
X122225905Y-99076895D01*
X122225902Y-99076894D01*
X122225900Y-99076893D01*
X122136356Y-99052900D01*
X122136355Y-99052900D01*
X122043645Y-99052900D01*
X122043643Y-99052900D01*
X121954099Y-99076893D01*
X121954091Y-99076897D01*
X121873806Y-99123249D01*
X121808249Y-99188806D01*
X121761897Y-99269091D01*
X121761893Y-99269099D01*
X121737900Y-99358643D01*
X114360500Y-99358643D01*
X114360500Y-98803643D01*
X116172900Y-98803643D01*
X116172900Y-98896356D01*
X116196893Y-98985900D01*
X116196897Y-98985908D01*
X116235574Y-99052900D01*
X116243250Y-99066194D01*
X116308806Y-99131750D01*
X116389095Y-99178105D01*
X116478645Y-99202100D01*
X116571355Y-99202100D01*
X116660905Y-99178105D01*
X116741194Y-99131750D01*
X116806750Y-99066194D01*
X116853105Y-98985905D01*
X116877100Y-98896355D01*
X116877100Y-98803645D01*
X116853105Y-98714095D01*
X116806750Y-98633806D01*
X116741194Y-98568250D01*
X116741193Y-98568249D01*
X116660908Y-98521897D01*
X116660905Y-98521895D01*
X116660902Y-98521894D01*
X116660900Y-98521893D01*
X116571356Y-98497900D01*
X116571355Y-98497900D01*
X116478645Y-98497900D01*
X116478643Y-98497900D01*
X116389099Y-98521893D01*
X116389091Y-98521897D01*
X116308806Y-98568249D01*
X116243249Y-98633806D01*
X116196897Y-98714091D01*
X116196893Y-98714099D01*
X116172900Y-98803643D01*
X114360500Y-98803643D01*
X114360500Y-97648459D01*
X123857900Y-97648459D01*
X123857900Y-97801540D01*
X123887761Y-97951662D01*
X123887763Y-97951668D01*
X123887764Y-97951672D01*
X123887766Y-97951676D01*
X123946341Y-98093091D01*
X123946342Y-98093093D01*
X124031383Y-98220368D01*
X124139631Y-98328616D01*
X124215787Y-98379501D01*
X124266905Y-98413657D01*
X124408328Y-98472236D01*
X124408335Y-98472237D01*
X124408337Y-98472238D01*
X124459705Y-98482455D01*
X124558462Y-98502100D01*
X124558467Y-98502100D01*
X124711533Y-98502100D01*
X124711538Y-98502100D01*
X124861672Y-98472236D01*
X125003095Y-98413657D01*
X125130372Y-98328613D01*
X125238613Y-98220372D01*
X125323657Y-98093095D01*
X125382236Y-97951672D01*
X125412100Y-97801538D01*
X125412100Y-97648462D01*
X125412099Y-97648459D01*
X125857900Y-97648459D01*
X125857900Y-97801540D01*
X125887761Y-97951662D01*
X125887763Y-97951668D01*
X125887764Y-97951672D01*
X125887766Y-97951676D01*
X125946341Y-98093091D01*
X125946342Y-98093093D01*
X126031383Y-98220368D01*
X126139631Y-98328616D01*
X126215787Y-98379501D01*
X126266905Y-98413657D01*
X126408328Y-98472236D01*
X126408335Y-98472237D01*
X126408337Y-98472238D01*
X126459705Y-98482455D01*
X126558462Y-98502100D01*
X126558467Y-98502100D01*
X126711533Y-98502100D01*
X126711538Y-98502100D01*
X126861672Y-98472236D01*
X127003095Y-98413657D01*
X127130372Y-98328613D01*
X127238613Y-98220372D01*
X127323657Y-98093095D01*
X127382236Y-97951672D01*
X127412100Y-97801538D01*
X127412100Y-97648462D01*
X127382236Y-97498328D01*
X127323657Y-97356905D01*
X127284366Y-97298102D01*
X127238616Y-97229631D01*
X127130368Y-97121383D01*
X127028825Y-97053535D01*
X127003095Y-97036343D01*
X127003093Y-97036342D01*
X127003091Y-97036341D01*
X126932383Y-97007053D01*
X126861672Y-96977764D01*
X126861668Y-96977763D01*
X126861662Y-96977761D01*
X126711540Y-96947900D01*
X126711538Y-96947900D01*
X126558462Y-96947900D01*
X126558459Y-96947900D01*
X126408337Y-96977761D01*
X126408329Y-96977763D01*
X126408328Y-96977764D01*
X126408324Y-96977765D01*
X126408323Y-96977766D01*
X126266908Y-97036341D01*
X126266906Y-97036342D01*
X126139631Y-97121383D01*
X126139629Y-97121386D01*
X126031386Y-97229629D01*
X126031383Y-97229631D01*
X125946342Y-97356906D01*
X125946341Y-97356908D01*
X125887766Y-97498323D01*
X125887761Y-97498337D01*
X125857900Y-97648459D01*
X125412099Y-97648459D01*
X125382236Y-97498328D01*
X125323657Y-97356905D01*
X125284366Y-97298102D01*
X125238616Y-97229631D01*
X125130368Y-97121383D01*
X125028825Y-97053535D01*
X125003095Y-97036343D01*
X125003093Y-97036342D01*
X125003091Y-97036341D01*
X124932383Y-97007053D01*
X124861672Y-96977764D01*
X124861668Y-96977763D01*
X124861662Y-96977761D01*
X124711540Y-96947900D01*
X124711538Y-96947900D01*
X124558462Y-96947900D01*
X124558459Y-96947900D01*
X124408337Y-96977761D01*
X124408329Y-96977763D01*
X124408328Y-96977764D01*
X124408324Y-96977765D01*
X124408323Y-96977766D01*
X124266908Y-97036341D01*
X124266906Y-97036342D01*
X124139631Y-97121383D01*
X124139629Y-97121386D01*
X124031386Y-97229629D01*
X124031383Y-97229631D01*
X123946342Y-97356906D01*
X123946341Y-97356908D01*
X123887766Y-97498323D01*
X123887761Y-97498337D01*
X123857900Y-97648459D01*
X114360500Y-97648459D01*
X114360500Y-96923643D01*
X114737900Y-96923643D01*
X114737900Y-97016356D01*
X114761893Y-97105900D01*
X114761894Y-97105902D01*
X114761895Y-97105905D01*
X114808250Y-97186194D01*
X114873806Y-97251750D01*
X114954095Y-97298105D01*
X115043645Y-97322100D01*
X115136355Y-97322100D01*
X115225905Y-97298105D01*
X115306194Y-97251750D01*
X115329301Y-97228643D01*
X122722900Y-97228643D01*
X122722900Y-97321356D01*
X122746893Y-97410900D01*
X122746894Y-97410902D01*
X122746895Y-97410905D01*
X122793250Y-97491194D01*
X122858806Y-97556750D01*
X122939095Y-97603105D01*
X123028645Y-97627100D01*
X123121355Y-97627100D01*
X123210905Y-97603105D01*
X123291194Y-97556750D01*
X123356750Y-97491194D01*
X123403105Y-97410905D01*
X123427100Y-97321355D01*
X123427100Y-97228645D01*
X123403105Y-97139095D01*
X123356750Y-97058806D01*
X123291194Y-96993250D01*
X123291193Y-96993249D01*
X123242057Y-96964881D01*
X123210905Y-96946895D01*
X123210902Y-96946894D01*
X123210900Y-96946893D01*
X123121356Y-96922900D01*
X123121355Y-96922900D01*
X123028645Y-96922900D01*
X123028643Y-96922900D01*
X122939099Y-96946893D01*
X122939091Y-96946897D01*
X122858806Y-96993249D01*
X122793249Y-97058806D01*
X122746897Y-97139091D01*
X122746893Y-97139099D01*
X122722900Y-97228643D01*
X115329301Y-97228643D01*
X115371750Y-97186194D01*
X115418105Y-97105905D01*
X115442100Y-97016355D01*
X115442100Y-96923645D01*
X115418105Y-96834095D01*
X115371750Y-96753806D01*
X115306194Y-96688250D01*
X115306193Y-96688249D01*
X115225908Y-96641897D01*
X115225905Y-96641895D01*
X115225902Y-96641894D01*
X115225900Y-96641893D01*
X115136356Y-96617900D01*
X115136355Y-96617900D01*
X115043645Y-96617900D01*
X115043643Y-96617900D01*
X114954099Y-96641893D01*
X114954091Y-96641897D01*
X114873806Y-96688249D01*
X114808249Y-96753806D01*
X114761897Y-96834091D01*
X114761893Y-96834099D01*
X114737900Y-96923643D01*
X114360500Y-96923643D01*
X114360500Y-96023643D01*
X119517900Y-96023643D01*
X119517900Y-96116356D01*
X119541893Y-96205900D01*
X119541894Y-96205902D01*
X119541895Y-96205905D01*
X119588250Y-96286194D01*
X119653806Y-96351750D01*
X119734095Y-96398105D01*
X119823645Y-96422100D01*
X119916355Y-96422100D01*
X120005905Y-96398105D01*
X120086194Y-96351750D01*
X120151750Y-96286194D01*
X120198105Y-96205905D01*
X120222100Y-96116355D01*
X120222100Y-96023645D01*
X120198105Y-95934095D01*
X120151750Y-95853806D01*
X120086194Y-95788250D01*
X120086193Y-95788249D01*
X120005908Y-95741897D01*
X120005905Y-95741895D01*
X120005902Y-95741894D01*
X120005900Y-95741893D01*
X119916356Y-95717900D01*
X119916355Y-95717900D01*
X119823645Y-95717900D01*
X119823643Y-95717900D01*
X119734099Y-95741893D01*
X119734091Y-95741897D01*
X119653806Y-95788249D01*
X119588249Y-95853806D01*
X119541897Y-95934091D01*
X119541893Y-95934099D01*
X119517900Y-96023643D01*
X114360500Y-96023643D01*
X114360500Y-95648459D01*
X123857900Y-95648459D01*
X123857900Y-95801540D01*
X123887761Y-95951662D01*
X123887763Y-95951668D01*
X123887764Y-95951672D01*
X123887766Y-95951676D01*
X123946341Y-96093091D01*
X123946342Y-96093093D01*
X124031383Y-96220368D01*
X124139631Y-96328616D01*
X124215787Y-96379501D01*
X124266905Y-96413657D01*
X124408328Y-96472236D01*
X124408335Y-96472237D01*
X124408337Y-96472238D01*
X124459705Y-96482455D01*
X124558462Y-96502100D01*
X124558467Y-96502100D01*
X124711533Y-96502100D01*
X124711538Y-96502100D01*
X124861672Y-96472236D01*
X125003095Y-96413657D01*
X125130372Y-96328613D01*
X125238613Y-96220372D01*
X125323657Y-96093095D01*
X125382236Y-95951672D01*
X125412100Y-95801538D01*
X125412100Y-95648462D01*
X125412099Y-95648459D01*
X125857900Y-95648459D01*
X125857900Y-95801540D01*
X125887761Y-95951662D01*
X125887763Y-95951668D01*
X125887764Y-95951672D01*
X125887766Y-95951676D01*
X125946341Y-96093091D01*
X125946342Y-96093093D01*
X126031383Y-96220368D01*
X126139631Y-96328616D01*
X126215787Y-96379501D01*
X126266905Y-96413657D01*
X126408328Y-96472236D01*
X126408335Y-96472237D01*
X126408337Y-96472238D01*
X126459705Y-96482455D01*
X126558462Y-96502100D01*
X126558467Y-96502100D01*
X126711533Y-96502100D01*
X126711538Y-96502100D01*
X126861672Y-96472236D01*
X127003095Y-96413657D01*
X127130372Y-96328613D01*
X127238613Y-96220372D01*
X127323657Y-96093095D01*
X127382236Y-95951672D01*
X127412100Y-95801538D01*
X127412100Y-95648462D01*
X127382236Y-95498328D01*
X127323657Y-95356905D01*
X127289501Y-95305787D01*
X127238616Y-95229631D01*
X127130368Y-95121383D01*
X127028825Y-95053535D01*
X127003095Y-95036343D01*
X127003093Y-95036342D01*
X127003091Y-95036341D01*
X126932383Y-95007053D01*
X126861672Y-94977764D01*
X126861668Y-94977763D01*
X126861662Y-94977761D01*
X126711540Y-94947900D01*
X126711538Y-94947900D01*
X126558462Y-94947900D01*
X126558459Y-94947900D01*
X126408337Y-94977761D01*
X126408329Y-94977763D01*
X126408328Y-94977764D01*
X126408324Y-94977765D01*
X126408323Y-94977766D01*
X126266908Y-95036341D01*
X126266906Y-95036342D01*
X126139631Y-95121383D01*
X126139629Y-95121386D01*
X126031386Y-95229629D01*
X126031383Y-95229631D01*
X125946342Y-95356906D01*
X125946341Y-95356908D01*
X125887766Y-95498323D01*
X125887761Y-95498337D01*
X125857900Y-95648459D01*
X125412099Y-95648459D01*
X125382236Y-95498328D01*
X125323657Y-95356905D01*
X125289501Y-95305787D01*
X125238616Y-95229631D01*
X125130368Y-95121383D01*
X125028825Y-95053535D01*
X125003095Y-95036343D01*
X125003093Y-95036342D01*
X125003091Y-95036341D01*
X124932383Y-95007053D01*
X124861672Y-94977764D01*
X124861668Y-94977763D01*
X124861662Y-94977761D01*
X124711540Y-94947900D01*
X124711538Y-94947900D01*
X124558462Y-94947900D01*
X124558459Y-94947900D01*
X124408337Y-94977761D01*
X124408329Y-94977763D01*
X124408328Y-94977764D01*
X124408324Y-94977765D01*
X124408323Y-94977766D01*
X124266908Y-95036341D01*
X124266906Y-95036342D01*
X124139631Y-95121383D01*
X124139629Y-95121386D01*
X124031386Y-95229629D01*
X124031383Y-95229631D01*
X123946342Y-95356906D01*
X123946341Y-95356908D01*
X123887766Y-95498323D01*
X123887761Y-95498337D01*
X123857900Y-95648459D01*
X114360500Y-95648459D01*
X114360500Y-93475000D01*
X123842982Y-93475000D01*
X124319314Y-93475000D01*
X124314920Y-93479394D01*
X124262259Y-93570606D01*
X124235000Y-93672339D01*
X124235000Y-93777661D01*
X124262259Y-93879394D01*
X124314920Y-93970606D01*
X124319314Y-93975000D01*
X123842982Y-93975000D01*
X123901767Y-94116920D01*
X123992313Y-94252432D01*
X124107567Y-94367686D01*
X124243080Y-94458232D01*
X124243079Y-94458232D01*
X124385000Y-94517017D01*
X124385000Y-94040686D01*
X124389394Y-94045080D01*
X124480606Y-94097741D01*
X124582339Y-94125000D01*
X124687661Y-94125000D01*
X124789394Y-94097741D01*
X124880606Y-94045080D01*
X124885000Y-94040686D01*
X124885000Y-94517016D01*
X125026920Y-94458232D01*
X125162432Y-94367686D01*
X125162435Y-94367684D01*
X125277684Y-94252435D01*
X125277686Y-94252432D01*
X125368232Y-94116920D01*
X125427018Y-93975000D01*
X124950686Y-93975000D01*
X124955080Y-93970606D01*
X125007741Y-93879394D01*
X125035000Y-93777661D01*
X125035000Y-93672339D01*
X125007741Y-93570606D01*
X124955080Y-93479394D01*
X124950686Y-93475000D01*
X125427018Y-93475000D01*
X125368232Y-93333079D01*
X125277686Y-93197567D01*
X125162432Y-93082313D01*
X125026919Y-92991767D01*
X125026920Y-92991767D01*
X124885000Y-92932981D01*
X124885000Y-93409314D01*
X124880606Y-93404920D01*
X124789394Y-93352259D01*
X124687661Y-93325000D01*
X124582339Y-93325000D01*
X124480606Y-93352259D01*
X124389394Y-93404920D01*
X124385000Y-93409314D01*
X124385000Y-92932981D01*
X124243079Y-92991767D01*
X124107567Y-93082313D01*
X124107565Y-93082316D01*
X123992316Y-93197565D01*
X123992313Y-93197567D01*
X123901767Y-93333079D01*
X123842982Y-93475000D01*
X114360500Y-93475000D01*
X114360500Y-92783643D01*
X114867900Y-92783643D01*
X114867900Y-92876356D01*
X114891893Y-92965900D01*
X114891894Y-92965902D01*
X114891895Y-92965905D01*
X114938250Y-93046194D01*
X115003806Y-93111750D01*
X115084095Y-93158105D01*
X115173645Y-93182100D01*
X115266355Y-93182100D01*
X115355905Y-93158105D01*
X115436194Y-93111750D01*
X115501750Y-93046194D01*
X115548105Y-92965905D01*
X115572100Y-92876355D01*
X115572100Y-92783645D01*
X115548105Y-92694095D01*
X115501750Y-92613806D01*
X115436194Y-92548250D01*
X115436193Y-92548249D01*
X115355908Y-92501897D01*
X115355905Y-92501895D01*
X115355902Y-92501894D01*
X115355900Y-92501893D01*
X115266356Y-92477900D01*
X115266355Y-92477900D01*
X115173645Y-92477900D01*
X115173643Y-92477900D01*
X115084099Y-92501893D01*
X115084091Y-92501897D01*
X115003806Y-92548249D01*
X114938249Y-92613806D01*
X114891897Y-92694091D01*
X114891893Y-92694099D01*
X114867900Y-92783643D01*
X114360500Y-92783643D01*
X114360500Y-91743643D01*
X117907900Y-91743643D01*
X117907900Y-91836356D01*
X117931893Y-91925900D01*
X117931894Y-91925902D01*
X117931895Y-91925905D01*
X117978250Y-92006194D01*
X118043806Y-92071750D01*
X118124095Y-92118105D01*
X118213645Y-92142100D01*
X118306355Y-92142100D01*
X118395905Y-92118105D01*
X118476194Y-92071750D01*
X118541750Y-92006194D01*
X118588105Y-91925905D01*
X118612100Y-91836355D01*
X118612100Y-91778643D01*
X118897900Y-91778643D01*
X118897900Y-91871356D01*
X118921893Y-91960900D01*
X118921894Y-91960902D01*
X118921895Y-91960905D01*
X118968250Y-92041194D01*
X119033806Y-92106750D01*
X119114095Y-92153105D01*
X119203645Y-92177100D01*
X119296355Y-92177100D01*
X119385905Y-92153105D01*
X119466194Y-92106750D01*
X119531750Y-92041194D01*
X119578105Y-91960905D01*
X119598807Y-91883643D01*
X122577900Y-91883643D01*
X122577900Y-91976356D01*
X122601893Y-92065900D01*
X122601897Y-92065908D01*
X122645885Y-92142099D01*
X122648250Y-92146194D01*
X122713806Y-92211750D01*
X122794095Y-92258105D01*
X122883645Y-92282100D01*
X122976355Y-92282100D01*
X123065905Y-92258105D01*
X123146194Y-92211750D01*
X123211750Y-92146194D01*
X123258105Y-92065905D01*
X123282100Y-91976355D01*
X123282100Y-91883645D01*
X123258105Y-91794095D01*
X123211750Y-91713806D01*
X123146403Y-91648459D01*
X123857900Y-91648459D01*
X123857900Y-91801540D01*
X123887761Y-91951662D01*
X123887763Y-91951668D01*
X123887764Y-91951672D01*
X123910347Y-92006193D01*
X123946341Y-92093091D01*
X123946342Y-92093093D01*
X124031383Y-92220368D01*
X124139631Y-92328616D01*
X124215787Y-92379501D01*
X124266905Y-92413657D01*
X124408328Y-92472236D01*
X124408335Y-92472237D01*
X124408337Y-92472238D01*
X124436802Y-92477900D01*
X124558462Y-92502100D01*
X124558467Y-92502100D01*
X124711533Y-92502100D01*
X124711538Y-92502100D01*
X124861672Y-92472236D01*
X125003095Y-92413657D01*
X125130372Y-92328613D01*
X125238613Y-92220372D01*
X125323657Y-92093095D01*
X125382236Y-91951672D01*
X125412100Y-91801538D01*
X125412100Y-91648462D01*
X125412099Y-91648459D01*
X125857900Y-91648459D01*
X125857900Y-91801540D01*
X125887761Y-91951662D01*
X125887763Y-91951668D01*
X125887764Y-91951672D01*
X125910347Y-92006193D01*
X125946341Y-92093091D01*
X125946342Y-92093093D01*
X126031383Y-92220368D01*
X126139631Y-92328616D01*
X126215787Y-92379501D01*
X126266905Y-92413657D01*
X126408328Y-92472236D01*
X126408335Y-92472237D01*
X126408337Y-92472238D01*
X126436802Y-92477900D01*
X126558462Y-92502100D01*
X126558467Y-92502100D01*
X126711533Y-92502100D01*
X126711538Y-92502100D01*
X126861672Y-92472236D01*
X127003095Y-92413657D01*
X127130372Y-92328613D01*
X127238613Y-92220372D01*
X127323657Y-92093095D01*
X127382236Y-91951672D01*
X127412100Y-91801538D01*
X127412100Y-91648462D01*
X127391172Y-91543250D01*
X127382238Y-91498337D01*
X127382237Y-91498335D01*
X127382236Y-91498328D01*
X127323657Y-91356905D01*
X127289501Y-91305787D01*
X127238616Y-91229631D01*
X127130368Y-91121383D01*
X127028825Y-91053535D01*
X127003095Y-91036343D01*
X127003093Y-91036342D01*
X127003091Y-91036341D01*
X126932383Y-91007053D01*
X126861672Y-90977764D01*
X126861668Y-90977763D01*
X126861662Y-90977761D01*
X126711540Y-90947900D01*
X126711538Y-90947900D01*
X126558462Y-90947900D01*
X126558459Y-90947900D01*
X126408337Y-90977761D01*
X126408329Y-90977763D01*
X126408328Y-90977764D01*
X126408324Y-90977765D01*
X126408323Y-90977766D01*
X126266908Y-91036341D01*
X126266906Y-91036342D01*
X126139631Y-91121383D01*
X126139629Y-91121386D01*
X126031386Y-91229629D01*
X126031383Y-91229631D01*
X125946342Y-91356906D01*
X125946341Y-91356908D01*
X125887766Y-91498323D01*
X125887761Y-91498337D01*
X125857900Y-91648459D01*
X125412099Y-91648459D01*
X125391172Y-91543250D01*
X125382238Y-91498337D01*
X125382237Y-91498335D01*
X125382236Y-91498328D01*
X125323657Y-91356905D01*
X125289501Y-91305787D01*
X125238616Y-91229631D01*
X125130368Y-91121383D01*
X125028825Y-91053535D01*
X125003095Y-91036343D01*
X125003093Y-91036342D01*
X125003091Y-91036341D01*
X124932383Y-91007053D01*
X124861672Y-90977764D01*
X124861668Y-90977763D01*
X124861662Y-90977761D01*
X124711540Y-90947900D01*
X124711538Y-90947900D01*
X124558462Y-90947900D01*
X124558459Y-90947900D01*
X124408337Y-90977761D01*
X124408329Y-90977763D01*
X124408328Y-90977764D01*
X124408324Y-90977765D01*
X124408323Y-90977766D01*
X124266908Y-91036341D01*
X124266906Y-91036342D01*
X124139631Y-91121383D01*
X124139629Y-91121386D01*
X124031386Y-91229629D01*
X124031383Y-91229631D01*
X123946342Y-91356906D01*
X123946341Y-91356908D01*
X123887766Y-91498323D01*
X123887761Y-91498337D01*
X123857900Y-91648459D01*
X123146403Y-91648459D01*
X123146194Y-91648250D01*
X123146193Y-91648249D01*
X123065908Y-91601897D01*
X123065905Y-91601895D01*
X123065902Y-91601894D01*
X123065900Y-91601893D01*
X122976356Y-91577900D01*
X122976355Y-91577900D01*
X122883645Y-91577900D01*
X122883643Y-91577900D01*
X122794099Y-91601893D01*
X122794091Y-91601897D01*
X122713806Y-91648249D01*
X122648249Y-91713806D01*
X122601897Y-91794091D01*
X122601893Y-91794099D01*
X122577900Y-91883643D01*
X119598807Y-91883643D01*
X119602100Y-91871355D01*
X119602100Y-91778645D01*
X119578105Y-91689095D01*
X119531750Y-91608806D01*
X119466194Y-91543250D01*
X119466193Y-91543249D01*
X119405572Y-91508250D01*
X119385905Y-91496895D01*
X119385902Y-91496894D01*
X119385900Y-91496893D01*
X119298535Y-91473484D01*
X119296356Y-91472900D01*
X119296355Y-91472900D01*
X119203645Y-91472900D01*
X119203643Y-91472900D01*
X119114099Y-91496893D01*
X119114091Y-91496897D01*
X119033806Y-91543249D01*
X118968249Y-91608806D01*
X118921897Y-91689091D01*
X118921893Y-91689099D01*
X118897900Y-91778643D01*
X118612100Y-91778643D01*
X118612100Y-91743645D01*
X118588105Y-91654095D01*
X118541750Y-91573806D01*
X118476194Y-91508250D01*
X118476193Y-91508249D01*
X118395908Y-91461897D01*
X118395905Y-91461895D01*
X118395902Y-91461894D01*
X118395900Y-91461893D01*
X118306356Y-91437900D01*
X118306355Y-91437900D01*
X118213645Y-91437900D01*
X118213643Y-91437900D01*
X118124099Y-91461893D01*
X118124091Y-91461897D01*
X118043806Y-91508249D01*
X117978249Y-91573806D01*
X117931897Y-91654091D01*
X117931893Y-91654099D01*
X117907900Y-91743643D01*
X114360500Y-91743643D01*
X114360500Y-91428643D01*
X119872900Y-91428643D01*
X119872900Y-91521356D01*
X119896893Y-91610900D01*
X119896897Y-91610908D01*
X119942035Y-91689091D01*
X119943250Y-91691194D01*
X120008806Y-91756750D01*
X120089095Y-91803105D01*
X120178645Y-91827100D01*
X120271355Y-91827100D01*
X120360905Y-91803105D01*
X120441194Y-91756750D01*
X120506750Y-91691194D01*
X120553105Y-91610905D01*
X120577100Y-91521355D01*
X120577100Y-91428645D01*
X120553105Y-91339095D01*
X120506750Y-91258806D01*
X120441194Y-91193250D01*
X120441193Y-91193249D01*
X120360908Y-91146897D01*
X120360905Y-91146895D01*
X120360902Y-91146894D01*
X120360900Y-91146893D01*
X120271356Y-91122900D01*
X120271355Y-91122900D01*
X120178645Y-91122900D01*
X120178643Y-91122900D01*
X120089099Y-91146893D01*
X120089091Y-91146897D01*
X120008806Y-91193249D01*
X119943249Y-91258806D01*
X119896897Y-91339091D01*
X119896893Y-91339099D01*
X119872900Y-91428643D01*
X114360500Y-91428643D01*
X114360500Y-89475000D01*
X123842982Y-89475000D01*
X124319314Y-89475000D01*
X124314920Y-89479394D01*
X124262259Y-89570606D01*
X124235000Y-89672339D01*
X124235000Y-89777661D01*
X124262259Y-89879394D01*
X124314920Y-89970606D01*
X124319314Y-89975000D01*
X123842982Y-89975000D01*
X123901767Y-90116920D01*
X123992313Y-90252432D01*
X124107567Y-90367686D01*
X124243080Y-90458232D01*
X124243079Y-90458232D01*
X124385000Y-90517017D01*
X124385000Y-90040686D01*
X124389394Y-90045080D01*
X124480606Y-90097741D01*
X124582339Y-90125000D01*
X124687661Y-90125000D01*
X124789394Y-90097741D01*
X124880606Y-90045080D01*
X124885000Y-90040686D01*
X124885000Y-90517016D01*
X125026920Y-90458232D01*
X125162432Y-90367686D01*
X125162435Y-90367684D01*
X125277684Y-90252435D01*
X125277686Y-90252432D01*
X125368232Y-90116920D01*
X125427018Y-89975000D01*
X124950686Y-89975000D01*
X124955080Y-89970606D01*
X125007741Y-89879394D01*
X125035000Y-89777661D01*
X125035000Y-89672339D01*
X125007741Y-89570606D01*
X124955080Y-89479394D01*
X124950686Y-89475000D01*
X125427018Y-89475000D01*
X125368232Y-89333079D01*
X125277686Y-89197567D01*
X125162432Y-89082313D01*
X125026919Y-88991767D01*
X125026920Y-88991767D01*
X124885000Y-88932981D01*
X124885000Y-89409314D01*
X124880606Y-89404920D01*
X124789394Y-89352259D01*
X124687661Y-89325000D01*
X124582339Y-89325000D01*
X124480606Y-89352259D01*
X124389394Y-89404920D01*
X124385000Y-89409314D01*
X124385000Y-88932981D01*
X124243079Y-88991767D01*
X124107567Y-89082313D01*
X124107565Y-89082316D01*
X123992316Y-89197565D01*
X123992313Y-89197567D01*
X123901767Y-89333079D01*
X123842982Y-89475000D01*
X114360500Y-89475000D01*
X114360500Y-88603643D01*
X115797900Y-88603643D01*
X115797900Y-88696356D01*
X115821893Y-88785900D01*
X115821894Y-88785902D01*
X115821895Y-88785905D01*
X115868250Y-88866194D01*
X115933806Y-88931750D01*
X116014095Y-88978105D01*
X116103645Y-89002100D01*
X116196355Y-89002100D01*
X116285905Y-88978105D01*
X116366194Y-88931750D01*
X116431750Y-88866194D01*
X116478105Y-88785905D01*
X116502100Y-88696355D01*
X116502100Y-88603645D01*
X116478105Y-88514095D01*
X116431750Y-88433806D01*
X116366194Y-88368250D01*
X116366193Y-88368249D01*
X116297546Y-88328616D01*
X116285905Y-88321895D01*
X116285902Y-88321894D01*
X116285900Y-88321893D01*
X116198535Y-88298484D01*
X116196356Y-88297900D01*
X116196355Y-88297900D01*
X116103645Y-88297900D01*
X116103643Y-88297900D01*
X116014099Y-88321893D01*
X116014091Y-88321897D01*
X115933806Y-88368249D01*
X115868249Y-88433806D01*
X115821897Y-88514091D01*
X115821893Y-88514099D01*
X115797900Y-88603643D01*
X114360500Y-88603643D01*
X114360500Y-88253643D01*
X120947900Y-88253643D01*
X120947900Y-88346356D01*
X120971893Y-88435900D01*
X120971897Y-88435908D01*
X121017035Y-88514091D01*
X121018250Y-88516194D01*
X121083806Y-88581750D01*
X121164095Y-88628105D01*
X121253645Y-88652100D01*
X121346355Y-88652100D01*
X121435905Y-88628105D01*
X121516194Y-88581750D01*
X121581750Y-88516194D01*
X121628105Y-88435905D01*
X121652100Y-88346355D01*
X121652100Y-88253645D01*
X121628105Y-88164095D01*
X121581750Y-88083806D01*
X121516194Y-88018250D01*
X121516193Y-88018249D01*
X121435908Y-87971897D01*
X121435905Y-87971895D01*
X121435902Y-87971894D01*
X121435900Y-87971893D01*
X121346356Y-87947900D01*
X121346355Y-87947900D01*
X121253645Y-87947900D01*
X121253643Y-87947900D01*
X121164099Y-87971893D01*
X121164091Y-87971897D01*
X121083806Y-88018249D01*
X121018249Y-88083806D01*
X120971897Y-88164091D01*
X120971893Y-88164099D01*
X120947900Y-88253643D01*
X114360500Y-88253643D01*
X114360500Y-87778643D01*
X116172900Y-87778643D01*
X116172900Y-87871356D01*
X116196893Y-87960900D01*
X116196897Y-87960908D01*
X116230002Y-88018249D01*
X116243250Y-88041194D01*
X116308806Y-88106750D01*
X116389095Y-88153105D01*
X116478645Y-88177100D01*
X116571355Y-88177100D01*
X116660905Y-88153105D01*
X116741194Y-88106750D01*
X116806750Y-88041194D01*
X116853105Y-87960905D01*
X116877100Y-87871355D01*
X116877100Y-87778645D01*
X116853105Y-87689095D01*
X116806750Y-87608806D01*
X116741194Y-87543250D01*
X116741193Y-87543249D01*
X116692057Y-87514881D01*
X116660905Y-87496895D01*
X116660902Y-87496894D01*
X116660900Y-87496893D01*
X116571356Y-87472900D01*
X116571355Y-87472900D01*
X116478645Y-87472900D01*
X116478643Y-87472900D01*
X116389099Y-87496893D01*
X116389091Y-87496897D01*
X116308806Y-87543249D01*
X116243249Y-87608806D01*
X116196897Y-87689091D01*
X116196893Y-87689099D01*
X116172900Y-87778643D01*
X114360500Y-87778643D01*
X114360500Y-86878643D01*
X115922900Y-86878643D01*
X115922900Y-86971356D01*
X115946893Y-87060900D01*
X115946894Y-87060902D01*
X115946895Y-87060905D01*
X115993250Y-87141194D01*
X116058806Y-87206750D01*
X116139095Y-87253105D01*
X116228645Y-87277100D01*
X116321355Y-87277100D01*
X116408897Y-87253643D01*
X117197900Y-87253643D01*
X117197900Y-87346356D01*
X117221893Y-87435900D01*
X117221897Y-87435908D01*
X117257107Y-87496895D01*
X117268250Y-87516194D01*
X117333806Y-87581750D01*
X117414095Y-87628105D01*
X117503645Y-87652100D01*
X117596355Y-87652100D01*
X117609943Y-87648459D01*
X123857900Y-87648459D01*
X123857900Y-87801540D01*
X123887761Y-87951662D01*
X123887763Y-87951668D01*
X123887764Y-87951672D01*
X123915341Y-88018249D01*
X123946341Y-88093091D01*
X123946342Y-88093093D01*
X124031383Y-88220368D01*
X124139631Y-88328616D01*
X124215787Y-88379501D01*
X124266905Y-88413657D01*
X124408328Y-88472236D01*
X124408335Y-88472237D01*
X124408337Y-88472238D01*
X124459705Y-88482455D01*
X124558462Y-88502100D01*
X124558467Y-88502100D01*
X124711533Y-88502100D01*
X124711538Y-88502100D01*
X124861672Y-88472236D01*
X125003095Y-88413657D01*
X125130372Y-88328613D01*
X125238613Y-88220372D01*
X125323657Y-88093095D01*
X125382236Y-87951672D01*
X125412100Y-87801538D01*
X125412100Y-87648462D01*
X125412099Y-87648459D01*
X125857900Y-87648459D01*
X125857900Y-87801540D01*
X125887761Y-87951662D01*
X125887763Y-87951668D01*
X125887764Y-87951672D01*
X125915341Y-88018249D01*
X125946341Y-88093091D01*
X125946342Y-88093093D01*
X126031383Y-88220368D01*
X126139631Y-88328616D01*
X126215787Y-88379501D01*
X126266905Y-88413657D01*
X126408328Y-88472236D01*
X126408335Y-88472237D01*
X126408337Y-88472238D01*
X126459705Y-88482455D01*
X126558462Y-88502100D01*
X126558467Y-88502100D01*
X126711533Y-88502100D01*
X126711538Y-88502100D01*
X126861672Y-88472236D01*
X127003095Y-88413657D01*
X127130372Y-88328613D01*
X127238613Y-88220372D01*
X127323657Y-88093095D01*
X127382236Y-87951672D01*
X127412100Y-87801538D01*
X127412100Y-87648462D01*
X127391172Y-87543250D01*
X127382238Y-87498337D01*
X127382237Y-87498335D01*
X127382236Y-87498328D01*
X127323657Y-87356905D01*
X127270333Y-87277100D01*
X127238616Y-87229631D01*
X127130368Y-87121383D01*
X127028177Y-87053102D01*
X127003095Y-87036343D01*
X127003093Y-87036342D01*
X127003091Y-87036341D01*
X126931651Y-87006750D01*
X126861672Y-86977764D01*
X126861668Y-86977763D01*
X126861662Y-86977761D01*
X126711540Y-86947900D01*
X126711538Y-86947900D01*
X126558462Y-86947900D01*
X126558459Y-86947900D01*
X126408337Y-86977761D01*
X126408329Y-86977763D01*
X126408328Y-86977764D01*
X126408324Y-86977765D01*
X126408323Y-86977766D01*
X126266908Y-87036341D01*
X126266906Y-87036342D01*
X126139631Y-87121383D01*
X126139629Y-87121386D01*
X126031386Y-87229629D01*
X126031383Y-87229631D01*
X125946342Y-87356906D01*
X125946341Y-87356908D01*
X125887766Y-87498323D01*
X125887761Y-87498337D01*
X125857900Y-87648459D01*
X125412099Y-87648459D01*
X125391172Y-87543250D01*
X125382238Y-87498337D01*
X125382237Y-87498335D01*
X125382236Y-87498328D01*
X125323657Y-87356905D01*
X125270333Y-87277100D01*
X125238616Y-87229631D01*
X125130368Y-87121383D01*
X125028177Y-87053102D01*
X125003095Y-87036343D01*
X125003093Y-87036342D01*
X125003091Y-87036341D01*
X124931651Y-87006750D01*
X124861672Y-86977764D01*
X124861668Y-86977763D01*
X124861662Y-86977761D01*
X124711540Y-86947900D01*
X124711538Y-86947900D01*
X124558462Y-86947900D01*
X124558459Y-86947900D01*
X124408337Y-86977761D01*
X124408329Y-86977763D01*
X124408328Y-86977764D01*
X124408324Y-86977765D01*
X124408323Y-86977766D01*
X124266908Y-87036341D01*
X124266906Y-87036342D01*
X124139631Y-87121383D01*
X124139629Y-87121386D01*
X124031386Y-87229629D01*
X124031383Y-87229631D01*
X123946342Y-87356906D01*
X123946341Y-87356908D01*
X123887766Y-87498323D01*
X123887761Y-87498337D01*
X123857900Y-87648459D01*
X117609943Y-87648459D01*
X117685905Y-87628105D01*
X117766194Y-87581750D01*
X117831750Y-87516194D01*
X117878105Y-87435905D01*
X117902100Y-87346355D01*
X117902100Y-87253645D01*
X117878105Y-87164095D01*
X117872071Y-87153643D01*
X118072900Y-87153643D01*
X118072900Y-87246356D01*
X118096893Y-87335900D01*
X118096894Y-87335902D01*
X118096895Y-87335905D01*
X118143250Y-87416194D01*
X118208806Y-87481750D01*
X118289095Y-87528105D01*
X118378645Y-87552100D01*
X118471355Y-87552100D01*
X118560905Y-87528105D01*
X118641194Y-87481750D01*
X118706750Y-87416194D01*
X118753105Y-87335905D01*
X118777100Y-87246355D01*
X118777100Y-87153645D01*
X118753105Y-87064095D01*
X118706750Y-86983806D01*
X118641194Y-86918250D01*
X118641193Y-86918249D01*
X118560908Y-86871897D01*
X118560905Y-86871895D01*
X118560902Y-86871894D01*
X118560900Y-86871893D01*
X118471356Y-86847900D01*
X118471355Y-86847900D01*
X118378645Y-86847900D01*
X118378643Y-86847900D01*
X118289099Y-86871893D01*
X118289091Y-86871897D01*
X118208806Y-86918249D01*
X118143249Y-86983806D01*
X118096897Y-87064091D01*
X118096893Y-87064099D01*
X118072900Y-87153643D01*
X117872071Y-87153643D01*
X117831750Y-87083806D01*
X117766194Y-87018250D01*
X117766193Y-87018249D01*
X117685908Y-86971897D01*
X117685905Y-86971895D01*
X117685902Y-86971894D01*
X117685900Y-86971893D01*
X117596356Y-86947900D01*
X117596355Y-86947900D01*
X117503645Y-86947900D01*
X117503643Y-86947900D01*
X117414099Y-86971893D01*
X117414091Y-86971897D01*
X117333806Y-87018249D01*
X117268249Y-87083806D01*
X117221897Y-87164091D01*
X117221893Y-87164099D01*
X117197900Y-87253643D01*
X116408897Y-87253643D01*
X116410905Y-87253105D01*
X116491194Y-87206750D01*
X116556750Y-87141194D01*
X116603105Y-87060905D01*
X116627100Y-86971355D01*
X116627100Y-86878645D01*
X116603105Y-86789095D01*
X116556750Y-86708806D01*
X116526587Y-86678643D01*
X118797900Y-86678643D01*
X118797900Y-86771356D01*
X118821893Y-86860900D01*
X118821897Y-86860908D01*
X118860693Y-86928106D01*
X118868250Y-86941194D01*
X118933806Y-87006750D01*
X119014095Y-87053105D01*
X119103645Y-87077100D01*
X119196355Y-87077100D01*
X119285905Y-87053105D01*
X119366194Y-87006750D01*
X119431750Y-86941194D01*
X119478105Y-86860905D01*
X119501487Y-86773643D01*
X119817900Y-86773643D01*
X119817900Y-86866356D01*
X119841893Y-86955900D01*
X119841894Y-86955902D01*
X119841895Y-86955905D01*
X119888250Y-87036194D01*
X119953806Y-87101750D01*
X120034095Y-87148105D01*
X120123645Y-87172100D01*
X120216355Y-87172100D01*
X120305905Y-87148105D01*
X120386194Y-87101750D01*
X120451750Y-87036194D01*
X120498105Y-86955905D01*
X120522100Y-86866355D01*
X120522100Y-86773645D01*
X120498105Y-86684095D01*
X120451750Y-86603806D01*
X120401587Y-86553643D01*
X122637900Y-86553643D01*
X122637900Y-86646356D01*
X122661893Y-86735900D01*
X122661897Y-86735908D01*
X122692606Y-86789099D01*
X122708250Y-86816194D01*
X122773806Y-86881750D01*
X122854095Y-86928105D01*
X122943645Y-86952100D01*
X123036355Y-86952100D01*
X123125905Y-86928105D01*
X123206194Y-86881750D01*
X123271750Y-86816194D01*
X123318105Y-86735905D01*
X123342100Y-86646355D01*
X123342100Y-86553645D01*
X123318105Y-86464095D01*
X123271750Y-86383806D01*
X123206194Y-86318250D01*
X123206193Y-86318249D01*
X123125908Y-86271897D01*
X123125905Y-86271895D01*
X123125902Y-86271894D01*
X123125900Y-86271893D01*
X123036356Y-86247900D01*
X123036355Y-86247900D01*
X122943645Y-86247900D01*
X122943643Y-86247900D01*
X122854099Y-86271893D01*
X122854091Y-86271897D01*
X122773806Y-86318249D01*
X122708249Y-86383806D01*
X122661897Y-86464091D01*
X122661893Y-86464099D01*
X122637900Y-86553643D01*
X120401587Y-86553643D01*
X120386194Y-86538250D01*
X120386193Y-86538249D01*
X120335196Y-86508806D01*
X120305905Y-86491895D01*
X120305902Y-86491894D01*
X120305900Y-86491893D01*
X120216356Y-86467900D01*
X120216355Y-86467900D01*
X120123645Y-86467900D01*
X120123643Y-86467900D01*
X120034099Y-86491893D01*
X120034091Y-86491897D01*
X119953806Y-86538249D01*
X119888249Y-86603806D01*
X119841897Y-86684091D01*
X119841893Y-86684099D01*
X119817900Y-86773643D01*
X119501487Y-86773643D01*
X119502100Y-86771355D01*
X119502100Y-86678645D01*
X119478105Y-86589095D01*
X119431750Y-86508806D01*
X119366194Y-86443250D01*
X119366193Y-86443249D01*
X119285908Y-86396897D01*
X119285905Y-86396895D01*
X119285902Y-86396894D01*
X119285900Y-86396893D01*
X119196356Y-86372900D01*
X119196355Y-86372900D01*
X119103645Y-86372900D01*
X119103643Y-86372900D01*
X119014099Y-86396893D01*
X119014091Y-86396897D01*
X118933806Y-86443249D01*
X118868249Y-86508806D01*
X118821897Y-86589091D01*
X118821893Y-86589099D01*
X118797900Y-86678643D01*
X116526587Y-86678643D01*
X116491194Y-86643250D01*
X116491193Y-86643249D01*
X116410908Y-86596897D01*
X116410905Y-86596895D01*
X116410902Y-86596894D01*
X116410900Y-86596893D01*
X116321356Y-86572900D01*
X116321355Y-86572900D01*
X116228645Y-86572900D01*
X116228643Y-86572900D01*
X116139099Y-86596893D01*
X116139091Y-86596897D01*
X116058806Y-86643249D01*
X115993249Y-86708806D01*
X115946897Y-86789091D01*
X115946893Y-86789099D01*
X115922900Y-86878643D01*
X114360500Y-86878643D01*
X114360500Y-85648459D01*
X123857900Y-85648459D01*
X123857900Y-85801540D01*
X123887761Y-85951662D01*
X123887763Y-85951668D01*
X123887764Y-85951672D01*
X123887766Y-85951676D01*
X123946341Y-86093091D01*
X123946342Y-86093093D01*
X124031383Y-86220368D01*
X124139631Y-86328616D01*
X124205908Y-86372900D01*
X124266905Y-86413657D01*
X124408328Y-86472236D01*
X124408335Y-86472237D01*
X124408337Y-86472238D01*
X124459705Y-86482455D01*
X124558462Y-86502100D01*
X124558467Y-86502100D01*
X124711533Y-86502100D01*
X124711538Y-86502100D01*
X124861672Y-86472236D01*
X125003095Y-86413657D01*
X125130372Y-86328613D01*
X125238613Y-86220372D01*
X125323657Y-86093095D01*
X125382236Y-85951672D01*
X125412100Y-85801538D01*
X125412100Y-85648462D01*
X125412099Y-85648459D01*
X125857900Y-85648459D01*
X125857900Y-85801540D01*
X125887761Y-85951662D01*
X125887763Y-85951668D01*
X125887764Y-85951672D01*
X125887766Y-85951676D01*
X125946341Y-86093091D01*
X125946342Y-86093093D01*
X126031383Y-86220368D01*
X126139631Y-86328616D01*
X126205908Y-86372900D01*
X126266905Y-86413657D01*
X126408328Y-86472236D01*
X126408335Y-86472237D01*
X126408337Y-86472238D01*
X126459705Y-86482455D01*
X126558462Y-86502100D01*
X126558467Y-86502100D01*
X126711533Y-86502100D01*
X126711538Y-86502100D01*
X126861672Y-86472236D01*
X127003095Y-86413657D01*
X127130372Y-86328613D01*
X127238613Y-86220372D01*
X127323657Y-86093095D01*
X127382236Y-85951672D01*
X127412100Y-85801538D01*
X127412100Y-85648462D01*
X127382236Y-85498328D01*
X127323657Y-85356905D01*
X127271005Y-85278106D01*
X127238616Y-85229631D01*
X127130368Y-85121383D01*
X127026675Y-85052099D01*
X127003095Y-85036343D01*
X127003093Y-85036342D01*
X127003091Y-85036341D01*
X126906552Y-84996354D01*
X126861672Y-84977764D01*
X126861668Y-84977763D01*
X126861662Y-84977761D01*
X126711540Y-84947900D01*
X126711538Y-84947900D01*
X126558462Y-84947900D01*
X126558459Y-84947900D01*
X126408337Y-84977761D01*
X126408329Y-84977763D01*
X126408328Y-84977764D01*
X126408324Y-84977765D01*
X126408323Y-84977766D01*
X126266908Y-85036341D01*
X126266906Y-85036342D01*
X126139631Y-85121383D01*
X126139629Y-85121386D01*
X126031386Y-85229629D01*
X126031383Y-85229631D01*
X125946342Y-85356906D01*
X125946341Y-85356908D01*
X125887766Y-85498323D01*
X125887761Y-85498337D01*
X125857900Y-85648459D01*
X125412099Y-85648459D01*
X125382236Y-85498328D01*
X125323657Y-85356905D01*
X125271005Y-85278106D01*
X125238616Y-85229631D01*
X125130368Y-85121383D01*
X125026675Y-85052099D01*
X125003095Y-85036343D01*
X125003093Y-85036342D01*
X125003091Y-85036341D01*
X124906552Y-84996354D01*
X124861672Y-84977764D01*
X124861668Y-84977763D01*
X124861662Y-84977761D01*
X124711540Y-84947900D01*
X124711538Y-84947900D01*
X124558462Y-84947900D01*
X124558459Y-84947900D01*
X124408337Y-84977761D01*
X124408329Y-84977763D01*
X124408328Y-84977764D01*
X124408324Y-84977765D01*
X124408323Y-84977766D01*
X124266908Y-85036341D01*
X124266906Y-85036342D01*
X124139631Y-85121383D01*
X124139629Y-85121386D01*
X124031386Y-85229629D01*
X124031383Y-85229631D01*
X123946342Y-85356906D01*
X123946341Y-85356908D01*
X123887766Y-85498323D01*
X123887761Y-85498337D01*
X123857900Y-85648459D01*
X114360500Y-85648459D01*
X114360500Y-84613643D01*
X114737900Y-84613643D01*
X114737900Y-84706356D01*
X114761893Y-84795900D01*
X114761894Y-84795902D01*
X114761895Y-84795905D01*
X114808250Y-84876194D01*
X114873806Y-84941750D01*
X114954095Y-84988105D01*
X115043645Y-85012100D01*
X115136355Y-85012100D01*
X115225905Y-84988105D01*
X115306194Y-84941750D01*
X115371750Y-84876194D01*
X115418105Y-84795905D01*
X115442100Y-84706355D01*
X115442100Y-84653643D01*
X115807900Y-84653643D01*
X115807900Y-84746356D01*
X115831893Y-84835900D01*
X115831897Y-84835908D01*
X115877035Y-84914091D01*
X115878250Y-84916194D01*
X115943806Y-84981750D01*
X116024095Y-85028105D01*
X116113645Y-85052100D01*
X116206355Y-85052100D01*
X116295905Y-85028105D01*
X116376194Y-84981750D01*
X116441750Y-84916194D01*
X116448996Y-84903643D01*
X117977900Y-84903643D01*
X117977900Y-84996356D01*
X118001893Y-85085900D01*
X118001894Y-85085902D01*
X118001895Y-85085905D01*
X118048250Y-85166194D01*
X118113806Y-85231750D01*
X118194095Y-85278105D01*
X118283645Y-85302100D01*
X118376355Y-85302100D01*
X118465905Y-85278105D01*
X118546194Y-85231750D01*
X118611750Y-85166194D01*
X118658105Y-85085905D01*
X118680147Y-85003643D01*
X120207900Y-85003643D01*
X120207900Y-85096356D01*
X120231893Y-85185900D01*
X120231897Y-85185908D01*
X120257138Y-85229628D01*
X120278250Y-85266194D01*
X120343806Y-85331750D01*
X120424095Y-85378105D01*
X120513645Y-85402100D01*
X120606355Y-85402100D01*
X120695905Y-85378105D01*
X120776194Y-85331750D01*
X120841750Y-85266194D01*
X120888105Y-85185905D01*
X120912100Y-85096355D01*
X120912100Y-85003645D01*
X120888105Y-84914095D01*
X120841750Y-84833806D01*
X120776194Y-84768250D01*
X120776193Y-84768249D01*
X120695908Y-84721897D01*
X120695905Y-84721895D01*
X120695902Y-84721894D01*
X120695900Y-84721893D01*
X120608535Y-84698484D01*
X120606356Y-84697900D01*
X120606355Y-84697900D01*
X120513645Y-84697900D01*
X120513643Y-84697900D01*
X120424099Y-84721893D01*
X120424091Y-84721897D01*
X120343806Y-84768249D01*
X120278249Y-84833806D01*
X120231897Y-84914091D01*
X120231893Y-84914099D01*
X120207900Y-85003643D01*
X118680147Y-85003643D01*
X118682100Y-84996355D01*
X118682100Y-84903645D01*
X118658105Y-84814095D01*
X118611750Y-84733806D01*
X118546194Y-84668250D01*
X118546193Y-84668249D01*
X118520894Y-84653643D01*
X121697900Y-84653643D01*
X121697900Y-84746356D01*
X121721893Y-84835900D01*
X121721897Y-84835908D01*
X121767035Y-84914091D01*
X121768250Y-84916194D01*
X121833806Y-84981750D01*
X121914095Y-85028105D01*
X122003645Y-85052100D01*
X122096355Y-85052100D01*
X122185905Y-85028105D01*
X122266194Y-84981750D01*
X122331750Y-84916194D01*
X122378105Y-84835905D01*
X122402100Y-84746355D01*
X122402100Y-84653645D01*
X122378105Y-84564095D01*
X122331750Y-84483806D01*
X122266194Y-84418250D01*
X122266193Y-84418249D01*
X122185908Y-84371897D01*
X122185905Y-84371895D01*
X122185902Y-84371894D01*
X122185900Y-84371893D01*
X122096356Y-84347900D01*
X122096355Y-84347900D01*
X122003645Y-84347900D01*
X122003643Y-84347900D01*
X121914099Y-84371893D01*
X121914091Y-84371897D01*
X121833806Y-84418249D01*
X121768249Y-84483806D01*
X121721897Y-84564091D01*
X121721893Y-84564099D01*
X121697900Y-84653643D01*
X118520894Y-84653643D01*
X118465908Y-84621897D01*
X118465905Y-84621895D01*
X118465902Y-84621894D01*
X118465900Y-84621893D01*
X118376356Y-84597900D01*
X118376355Y-84597900D01*
X118283645Y-84597900D01*
X118283643Y-84597900D01*
X118194099Y-84621893D01*
X118194091Y-84621897D01*
X118113806Y-84668249D01*
X118048249Y-84733806D01*
X118001897Y-84814091D01*
X118001893Y-84814099D01*
X117977900Y-84903643D01*
X116448996Y-84903643D01*
X116488105Y-84835905D01*
X116512100Y-84746355D01*
X116512100Y-84653645D01*
X116488105Y-84564095D01*
X116441750Y-84483806D01*
X116376194Y-84418250D01*
X116376193Y-84418249D01*
X116295908Y-84371897D01*
X116295905Y-84371895D01*
X116295902Y-84371894D01*
X116295900Y-84371893D01*
X116206356Y-84347900D01*
X116206355Y-84347900D01*
X116113645Y-84347900D01*
X116113643Y-84347900D01*
X116024099Y-84371893D01*
X116024091Y-84371897D01*
X115943806Y-84418249D01*
X115878249Y-84483806D01*
X115831897Y-84564091D01*
X115831893Y-84564099D01*
X115807900Y-84653643D01*
X115442100Y-84653643D01*
X115442100Y-84613645D01*
X115418105Y-84524095D01*
X115371750Y-84443806D01*
X115306194Y-84378250D01*
X115306193Y-84378249D01*
X115225908Y-84331897D01*
X115225905Y-84331895D01*
X115225902Y-84331894D01*
X115225900Y-84331893D01*
X115136356Y-84307900D01*
X115136355Y-84307900D01*
X115043645Y-84307900D01*
X115043643Y-84307900D01*
X114954099Y-84331893D01*
X114954091Y-84331897D01*
X114873806Y-84378249D01*
X114808249Y-84443806D01*
X114761897Y-84524091D01*
X114761893Y-84524099D01*
X114737900Y-84613643D01*
X114360500Y-84613643D01*
X114360500Y-83628643D01*
X122797900Y-83628643D01*
X122797900Y-83721356D01*
X122821893Y-83810900D01*
X122821894Y-83810902D01*
X122821895Y-83810905D01*
X122868250Y-83891194D01*
X122933806Y-83956750D01*
X123014095Y-84003105D01*
X123103645Y-84027100D01*
X123196355Y-84027100D01*
X123285905Y-84003105D01*
X123366194Y-83956750D01*
X123431750Y-83891194D01*
X123478105Y-83810905D01*
X123502100Y-83721355D01*
X123502100Y-83648459D01*
X123857900Y-83648459D01*
X123857900Y-83801540D01*
X123887761Y-83951662D01*
X123887763Y-83951668D01*
X123887764Y-83951672D01*
X123909067Y-84003102D01*
X123946341Y-84093091D01*
X123946342Y-84093093D01*
X124031383Y-84220368D01*
X124139631Y-84328616D01*
X124204401Y-84371893D01*
X124266905Y-84413657D01*
X124408328Y-84472236D01*
X124408335Y-84472237D01*
X124408337Y-84472238D01*
X124459705Y-84482455D01*
X124558462Y-84502100D01*
X124558467Y-84502100D01*
X124711533Y-84502100D01*
X124711538Y-84502100D01*
X124861672Y-84472236D01*
X125003095Y-84413657D01*
X125105329Y-84345345D01*
X125130368Y-84328616D01*
X125130371Y-84328614D01*
X125238614Y-84220371D01*
X125238616Y-84220368D01*
X125255345Y-84195329D01*
X125323657Y-84093095D01*
X125382236Y-83951672D01*
X125412100Y-83801538D01*
X125412100Y-83648462D01*
X125412099Y-83648459D01*
X125857900Y-83648459D01*
X125857900Y-83801540D01*
X125887761Y-83951662D01*
X125887763Y-83951668D01*
X125887764Y-83951672D01*
X125909067Y-84003102D01*
X125946341Y-84093091D01*
X125946342Y-84093093D01*
X126031383Y-84220368D01*
X126139631Y-84328616D01*
X126204401Y-84371893D01*
X126266905Y-84413657D01*
X126408328Y-84472236D01*
X126408335Y-84472237D01*
X126408337Y-84472238D01*
X126459705Y-84482455D01*
X126558462Y-84502100D01*
X126558467Y-84502100D01*
X126711533Y-84502100D01*
X126711538Y-84502100D01*
X126861672Y-84472236D01*
X127003095Y-84413657D01*
X127105329Y-84345345D01*
X127130368Y-84328616D01*
X127130371Y-84328614D01*
X127238614Y-84220371D01*
X127238616Y-84220368D01*
X127255345Y-84195329D01*
X127323657Y-84093095D01*
X127382236Y-83951672D01*
X127412100Y-83801538D01*
X127412100Y-83648462D01*
X127382236Y-83498328D01*
X127323657Y-83356905D01*
X127289501Y-83305787D01*
X127238616Y-83229631D01*
X127130368Y-83121383D01*
X127028825Y-83053535D01*
X127003095Y-83036343D01*
X127003093Y-83036342D01*
X127003091Y-83036341D01*
X126932383Y-83007053D01*
X126861672Y-82977764D01*
X126861668Y-82977763D01*
X126861662Y-82977761D01*
X126711540Y-82947900D01*
X126711538Y-82947900D01*
X126558462Y-82947900D01*
X126558459Y-82947900D01*
X126408337Y-82977761D01*
X126408329Y-82977763D01*
X126408328Y-82977764D01*
X126408324Y-82977765D01*
X126408323Y-82977766D01*
X126266908Y-83036341D01*
X126266906Y-83036342D01*
X126139631Y-83121383D01*
X126139629Y-83121386D01*
X126031386Y-83229629D01*
X126031383Y-83229631D01*
X125946342Y-83356906D01*
X125946341Y-83356908D01*
X125887766Y-83498323D01*
X125887761Y-83498337D01*
X125857900Y-83648459D01*
X125412099Y-83648459D01*
X125382236Y-83498328D01*
X125323657Y-83356905D01*
X125289501Y-83305787D01*
X125238616Y-83229631D01*
X125130368Y-83121383D01*
X125028825Y-83053535D01*
X125003095Y-83036343D01*
X125003093Y-83036342D01*
X125003091Y-83036341D01*
X124932383Y-83007053D01*
X124861672Y-82977764D01*
X124861668Y-82977763D01*
X124861662Y-82977761D01*
X124711540Y-82947900D01*
X124711538Y-82947900D01*
X124558462Y-82947900D01*
X124558459Y-82947900D01*
X124408337Y-82977761D01*
X124408329Y-82977763D01*
X124408328Y-82977764D01*
X124408324Y-82977765D01*
X124408323Y-82977766D01*
X124266908Y-83036341D01*
X124266906Y-83036342D01*
X124139631Y-83121383D01*
X124139629Y-83121386D01*
X124031386Y-83229629D01*
X124031383Y-83229631D01*
X123946342Y-83356906D01*
X123946341Y-83356908D01*
X123887766Y-83498323D01*
X123887761Y-83498337D01*
X123857900Y-83648459D01*
X123502100Y-83648459D01*
X123502100Y-83628645D01*
X123478105Y-83539095D01*
X123431750Y-83458806D01*
X123366194Y-83393250D01*
X123366193Y-83393249D01*
X123303248Y-83356908D01*
X123285905Y-83346895D01*
X123285902Y-83346894D01*
X123285900Y-83346893D01*
X123196356Y-83322900D01*
X123196355Y-83322900D01*
X123103645Y-83322900D01*
X123103643Y-83322900D01*
X123014099Y-83346893D01*
X123014091Y-83346897D01*
X122933806Y-83393249D01*
X122868249Y-83458806D01*
X122821897Y-83539091D01*
X122821893Y-83539099D01*
X122797900Y-83628643D01*
X114360500Y-83628643D01*
X114360500Y-81553643D01*
X115757900Y-81553643D01*
X115757900Y-81646356D01*
X115781893Y-81735900D01*
X115781897Y-81735908D01*
X115822649Y-81806494D01*
X115828250Y-81816194D01*
X115893806Y-81881750D01*
X115974095Y-81928105D01*
X116063645Y-81952100D01*
X116156355Y-81952100D01*
X116245905Y-81928105D01*
X116326194Y-81881750D01*
X116391750Y-81816194D01*
X116438105Y-81735905D01*
X116462100Y-81646355D01*
X116462100Y-81553645D01*
X116438105Y-81464095D01*
X116391750Y-81383806D01*
X116326194Y-81318250D01*
X116326193Y-81318249D01*
X116245908Y-81271897D01*
X116245905Y-81271895D01*
X116245902Y-81271894D01*
X116245900Y-81271893D01*
X116156356Y-81247900D01*
X116156355Y-81247900D01*
X116063645Y-81247900D01*
X116063643Y-81247900D01*
X115974099Y-81271893D01*
X115974091Y-81271897D01*
X115893806Y-81318249D01*
X115828249Y-81383806D01*
X115781897Y-81464091D01*
X115781893Y-81464099D01*
X115757900Y-81553643D01*
X114360500Y-81553643D01*
X114360500Y-81103919D01*
X114361113Y-81096129D01*
X114363301Y-81082313D01*
X114371030Y-81033508D01*
X114374204Y-81022256D01*
X114378531Y-81011810D01*
X114380132Y-81008334D01*
X114404573Y-80960368D01*
X114413723Y-80947774D01*
X114457774Y-80903723D01*
X114470368Y-80894573D01*
X114518334Y-80870132D01*
X114521810Y-80868531D01*
X114532256Y-80864204D01*
X114543508Y-80861030D01*
X114606130Y-80851112D01*
X114613919Y-80850500D01*
X124333769Y-80850500D01*
X124368983Y-80865086D01*
G37*
%TD.AperFunction*%
%TD*%
M02*
