%TF.GenerationSoftware,KiCad,Pcbnew,9.0.0*%
%TF.CreationDate,2025-06-10T15:00:40-04:00*%
%TF.ProjectId,aditBoard,61646974-426f-4617-9264-2e6b69636164,rev?*%
%TF.SameCoordinates,Original*%
%TF.FileFunction,Copper,L6,Bot*%
%TF.FilePolarity,Positive*%
%FSLAX46Y46*%
G04 Gerber Fmt 4.6, Leading zero omitted, Abs format (unit mm)*
G04 Created by KiCad (PCBNEW 9.0.0) date 2025-06-10 15:00:40*
%MOMM*%
%LPD*%
G01*
G04 APERTURE LIST*
%TA.AperFunction,SMDPad,CuDef*%
%ADD10R,0.900000X1.800000*%
%TD*%
%TA.AperFunction,ComponentPad*%
%ADD11C,1.350000*%
%TD*%
%TA.AperFunction,ComponentPad*%
%ADD12O,1.350000X1.350000*%
%TD*%
%TA.AperFunction,ComponentPad*%
%ADD13O,1.000000X2.100000*%
%TD*%
%TA.AperFunction,ComponentPad*%
%ADD14O,1.000000X1.800000*%
%TD*%
%TA.AperFunction,ViaPad*%
%ADD15C,0.500000*%
%TD*%
%TA.AperFunction,Conductor*%
%ADD16C,0.200000*%
%TD*%
G04 APERTURE END LIST*
D10*
%TO.P,SW3,1*%
%TO.N,Net-(U3-RUN)*%
X117015000Y-90625000D03*
%TO.P,SW3,2*%
%TO.N,/GND*%
X121125000Y-90625000D03*
%TD*%
%TO.P,SW2,1*%
%TO.N,Net-(R6-Pad2)*%
X117015000Y-97300000D03*
%TO.P,SW2,2*%
%TO.N,/GND*%
X121125000Y-97300000D03*
%TD*%
D11*
%TO.P,J2,1,Pin_1*%
%TO.N,/GND*%
X124635000Y-81725000D03*
D12*
%TO.P,J2,2,Pin_2*%
X126635000Y-81725000D03*
%TO.P,J2,3,Pin_3*%
%TO.N,/SDA*%
X124635000Y-83725000D03*
%TO.P,J2,4,Pin_4*%
%TO.N,/SCL*%
X126635000Y-83725000D03*
%TO.P,J2,5,Pin_5*%
%TO.N,/PLUG*%
X124635000Y-85725000D03*
%TO.P,J2,6,Pin_6*%
%TO.N,/A2*%
X126635000Y-85725000D03*
%TO.P,J2,7,Pin_7*%
%TO.N,/A1*%
X124635000Y-87725000D03*
%TO.P,J2,8,Pin_8*%
%TO.N,/A0*%
X126635000Y-87725000D03*
%TO.P,J2,9,Pin_9*%
%TO.N,/GND*%
X124635000Y-89725000D03*
%TO.P,J2,10,Pin_10*%
X126635000Y-89725000D03*
%TO.P,J2,11,Pin_11*%
%TO.N,/TXD*%
X124635000Y-91725000D03*
%TO.P,J2,12,Pin_12*%
%TO.N,/RXD*%
X126635000Y-91725000D03*
%TO.P,J2,13,Pin_13*%
%TO.N,/GND*%
X124635000Y-93725000D03*
%TO.P,J2,14,Pin_14*%
X126635000Y-93725000D03*
%TO.P,J2,15,Pin_15*%
%TO.N,/RST*%
X124635000Y-95725000D03*
%TO.P,J2,16,Pin_16*%
%TO.N,/3V3*%
X126635000Y-95725000D03*
%TO.P,J2,17,Pin_17*%
%TO.N,unconnected-(J2-Pin_17-Pad17)*%
X124635000Y-97725000D03*
%TO.P,J2,18,Pin_18*%
%TO.N,unconnected-(J2-Pin_18-Pad18)*%
X126635000Y-97725000D03*
%TD*%
D13*
%TO.P,J1,S1,SHIELD*%
%TO.N,/GND*%
X117755000Y-104000000D03*
D14*
X117755000Y-108180000D03*
D13*
X126395000Y-104000000D03*
D14*
X126395000Y-108180000D03*
%TD*%
D15*
%TO.N,/GND*%
X117850000Y-97350000D03*
%TO.N,/5V*%
X115675000Y-107600000D03*
%TO.N,/GND*%
X117700200Y-101280000D03*
X125292500Y-103450000D03*
X118875000Y-103425000D03*
%TO.N,/5V*%
X116750000Y-101200000D03*
X115100000Y-99875000D03*
X118650200Y-101202050D03*
X116525000Y-107600000D03*
%TO.N,Net-(U3-RUN)*%
X116275000Y-86925000D03*
X123150000Y-83675000D03*
%TO.N,/GND*%
X121025000Y-97100000D03*
%TO.N,Net-(R6-Pad2)*%
X123075000Y-97275000D03*
%TO.N,/GND*%
X126660000Y-100830000D03*
X114990000Y-94970000D03*
X116150000Y-83700000D03*
X118160000Y-82120000D03*
X117590000Y-88250000D03*
X122570000Y-101350000D03*
X119850000Y-90310000D03*
X120360000Y-83880000D03*
X115090000Y-97930000D03*
X115100000Y-100830000D03*
X122050000Y-83740000D03*
X123090000Y-98415000D03*
X115090000Y-83700000D03*
X122060000Y-81750000D03*
X125580000Y-99370000D03*
X115150000Y-81600000D03*
X117975000Y-90400000D03*
X119810000Y-88250000D03*
X115150000Y-82675000D03*
X121190000Y-94630000D03*
X125560000Y-101410000D03*
%TO.N,/3V3*%
X116150000Y-88650000D03*
X118260000Y-91790000D03*
X119150000Y-86725000D03*
X122930000Y-91930000D03*
X116525000Y-98850000D03*
X122570000Y-100390000D03*
X119870000Y-96070000D03*
X123090000Y-99375000D03*
X122050000Y-84700000D03*
X116160000Y-84700000D03*
X115090000Y-96970000D03*
X121300000Y-88300000D03*
X122090000Y-99405000D03*
X115220000Y-92830000D03*
X115090000Y-84660000D03*
%TO.N,/1V1*%
X116110000Y-81600000D03*
X119700000Y-100330000D03*
X121600000Y-100390000D03*
X119250000Y-91825000D03*
X118330000Y-84950000D03*
X118425000Y-87200000D03*
%TO.N,/5V*%
X124475000Y-103425000D03*
X119675000Y-103425000D03*
%TO.N,Net-(U1-DIN)*%
X116275000Y-104500000D03*
X120225000Y-91475000D03*
%TO.N,/A2*%
X124540000Y-101410000D03*
%TO.N,/A0*%
X124560000Y-99370000D03*
%TO.N,/A1*%
X124550000Y-100390000D03*
%TO.N,/SCL*%
X120170000Y-86820000D03*
%TO.N,/RST*%
X122990000Y-86600000D03*
%TO.N,/SDA*%
X120560000Y-85050000D03*
%TO.N,/SWCLK*%
X123325000Y-104500000D03*
X117550000Y-87300000D03*
%TO.N,/SWD*%
X119240000Y-105690000D03*
X116525000Y-87825000D03*
%TD*%
D16*
%TO.N,Net-(U3-RUN)*%
X115647400Y-89257400D02*
X117015000Y-90625000D01*
X116275000Y-87050000D02*
X115647400Y-87677600D01*
X115647400Y-87677600D02*
X115647400Y-89257400D01*
X116275000Y-86925000D02*
X116275000Y-87050000D01*
%TO.N,Net-(R6-Pad2)*%
X123075000Y-97275000D02*
X121600000Y-98750000D01*
X121600000Y-98750000D02*
X117375000Y-98750000D01*
X117375000Y-98750000D02*
X117015000Y-98390000D01*
X117015000Y-98390000D02*
X117015000Y-97300000D01*
%TO.N,/GND*%
X121125000Y-97200000D02*
X121025000Y-97100000D01*
X121125000Y-97300000D02*
X121125000Y-97200000D01*
X121125000Y-90625000D02*
X120165000Y-90625000D01*
X120165000Y-90625000D02*
X119850000Y-90310000D01*
%TD*%
M02*
