%TF.GenerationSoftware,KiCad,Pcbnew,9.0.0*%
%TF.CreationDate,2025-06-10T15:00:40-04:00*%
%TF.ProjectId,aditBoard,61646974-426f-4617-9264-2e6b69636164,rev?*%
%TF.SameCoordinates,Original*%
%TF.FileFunction,Copper,L3,Inr*%
%TF.FilePolarity,Positive*%
%FSLAX46Y46*%
G04 Gerber Fmt 4.6, Leading zero omitted, Abs format (unit mm)*
G04 Created by KiCad (PCBNEW 9.0.0) date 2025-06-10 15:00:40*
%MOMM*%
%LPD*%
G01*
G04 APERTURE LIST*
%TA.AperFunction,ComponentPad*%
%ADD10C,1.350000*%
%TD*%
%TA.AperFunction,ComponentPad*%
%ADD11O,1.350000X1.350000*%
%TD*%
%TA.AperFunction,ComponentPad*%
%ADD12O,1.000000X2.100000*%
%TD*%
%TA.AperFunction,ComponentPad*%
%ADD13O,1.000000X1.800000*%
%TD*%
%TA.AperFunction,ViaPad*%
%ADD14C,0.500000*%
%TD*%
G04 APERTURE END LIST*
D10*
%TO.N,/GND*%
%TO.C,J2*%
X124635000Y-81725000D03*
D11*
X126635000Y-81725000D03*
%TO.N,/SDA*%
X124635000Y-83725000D03*
%TO.N,/SCL*%
X126635000Y-83725000D03*
%TO.N,/PLUG*%
X124635000Y-85725000D03*
%TO.N,/A2*%
X126635000Y-85725000D03*
%TO.N,/A1*%
X124635000Y-87725000D03*
%TO.N,/A0*%
X126635000Y-87725000D03*
%TO.N,/GND*%
X124635000Y-89725000D03*
X126635000Y-89725000D03*
%TO.N,/TXD*%
X124635000Y-91725000D03*
%TO.N,/RXD*%
X126635000Y-91725000D03*
%TO.N,/GND*%
X124635000Y-93725000D03*
X126635000Y-93725000D03*
%TO.N,/RST*%
X124635000Y-95725000D03*
%TO.N,/3V3*%
X126635000Y-95725000D03*
%TO.N,unconnected-(J2-Pin_17-Pad17)*%
X124635000Y-97725000D03*
%TO.N,unconnected-(J2-Pin_18-Pad18)*%
X126635000Y-97725000D03*
%TD*%
D12*
%TO.N,/GND*%
%TO.C,J1*%
X117755000Y-104000000D03*
D13*
X117755000Y-108180000D03*
D12*
X126395000Y-104000000D03*
D13*
X126395000Y-108180000D03*
%TD*%
D14*
%TO.N,/GND*%
X117850000Y-97350000D03*
%TO.N,/5V*%
X115675000Y-107600000D03*
%TO.N,/GND*%
X117700200Y-101280000D03*
X125292500Y-103450000D03*
X118875000Y-103425000D03*
%TO.N,/5V*%
X116750000Y-101200000D03*
X115100000Y-99875000D03*
X118650200Y-101202050D03*
X116525000Y-107600000D03*
%TO.N,Net-(U3-RUN)*%
X116275000Y-86925000D03*
X123150000Y-83675000D03*
%TO.N,/GND*%
X121025000Y-97100000D03*
%TO.N,Net-(R6-Pad2)*%
X123075000Y-97275000D03*
%TO.N,/GND*%
X126660000Y-100830000D03*
X114990000Y-94970000D03*
X116150000Y-83700000D03*
X118160000Y-82120000D03*
X117590000Y-88250000D03*
X122570000Y-101350000D03*
X119850000Y-90310000D03*
X120360000Y-83880000D03*
X115090000Y-97930000D03*
X115100000Y-100830000D03*
X122050000Y-83740000D03*
X123090000Y-98415000D03*
X115090000Y-83700000D03*
X122060000Y-81750000D03*
X125580000Y-99370000D03*
X115150000Y-81600000D03*
X117975000Y-90400000D03*
X119810000Y-88250000D03*
X115150000Y-82675000D03*
X121190000Y-94630000D03*
X125560000Y-101410000D03*
%TO.N,/3V3*%
X116150000Y-88650000D03*
X118260000Y-91790000D03*
X119150000Y-86725000D03*
X122930000Y-91930000D03*
X116525000Y-98850000D03*
X122570000Y-100390000D03*
X119870000Y-96070000D03*
X123090000Y-99375000D03*
X122050000Y-84700000D03*
X116160000Y-84700000D03*
X115090000Y-96970000D03*
X121300000Y-88300000D03*
X122090000Y-99405000D03*
X115220000Y-92830000D03*
X115090000Y-84660000D03*
%TO.N,/1V1*%
X116110000Y-81600000D03*
X119700000Y-100330000D03*
X121600000Y-100390000D03*
X119250000Y-91825000D03*
X118330000Y-84950000D03*
X118425000Y-87200000D03*
%TO.N,/5V*%
X124475000Y-103425000D03*
X119675000Y-103425000D03*
%TO.N,Net-(U1-DIN)*%
X116275000Y-104500000D03*
X120225000Y-91475000D03*
%TO.N,/A2*%
X124540000Y-101410000D03*
%TO.N,/A0*%
X124560000Y-99370000D03*
%TO.N,/A1*%
X124550000Y-100390000D03*
%TO.N,/SCL*%
X120170000Y-86820000D03*
%TO.N,/RST*%
X122990000Y-86600000D03*
%TO.N,/SDA*%
X120560000Y-85050000D03*
%TO.N,/SWCLK*%
X123325000Y-104500000D03*
X117550000Y-87300000D03*
%TO.N,/SWD*%
X119240000Y-105690000D03*
X116525000Y-87825000D03*
%TD*%
%TA.AperFunction,Conductor*%
%TO.N,/5V*%
G36*
X121723314Y-99389586D02*
G01*
X121737900Y-99424800D01*
X121737900Y-99451356D01*
X121761893Y-99540900D01*
X121761894Y-99540902D01*
X121761895Y-99540905D01*
X121808250Y-99621194D01*
X121873806Y-99686750D01*
X121954095Y-99733105D01*
X122043645Y-99757100D01*
X122136355Y-99757100D01*
X122225905Y-99733105D01*
X122306194Y-99686750D01*
X122371750Y-99621194D01*
X122418105Y-99540905D01*
X122442100Y-99451355D01*
X122442100Y-99424800D01*
X122456686Y-99389586D01*
X122491900Y-99375000D01*
X122688124Y-99375000D01*
X122723338Y-99389586D01*
X122737498Y-99418302D01*
X122737899Y-99421354D01*
X122761893Y-99510900D01*
X122761897Y-99510908D01*
X122805362Y-99586193D01*
X122808250Y-99591194D01*
X122873806Y-99656750D01*
X122954095Y-99703105D01*
X123043645Y-99727100D01*
X123136355Y-99727100D01*
X123225905Y-99703105D01*
X123306194Y-99656750D01*
X123371750Y-99591194D01*
X123418105Y-99510905D01*
X123442100Y-99421355D01*
X123442100Y-99421354D01*
X123442502Y-99418302D01*
X123461558Y-99385292D01*
X123491876Y-99375000D01*
X124158782Y-99375000D01*
X124193996Y-99389586D01*
X124205807Y-99413536D01*
X124207055Y-99413202D01*
X124231893Y-99505900D01*
X124231894Y-99505902D01*
X124231895Y-99505905D01*
X124278250Y-99586194D01*
X124343806Y-99651750D01*
X124424095Y-99698105D01*
X124513645Y-99722100D01*
X124606355Y-99722100D01*
X124695905Y-99698105D01*
X124776194Y-99651750D01*
X124841750Y-99586194D01*
X124888105Y-99505905D01*
X124912100Y-99416355D01*
X124912945Y-99413202D01*
X124914539Y-99413629D01*
X124930903Y-99385290D01*
X124961218Y-99375000D01*
X125178782Y-99375000D01*
X125213996Y-99389586D01*
X125225807Y-99413536D01*
X125227055Y-99413202D01*
X125251893Y-99505900D01*
X125251894Y-99505902D01*
X125251895Y-99505905D01*
X125298250Y-99586194D01*
X125363806Y-99651750D01*
X125444095Y-99698105D01*
X125533645Y-99722100D01*
X125626355Y-99722100D01*
X125715905Y-99698105D01*
X125796194Y-99651750D01*
X125861750Y-99586194D01*
X125908105Y-99505905D01*
X125932100Y-99416355D01*
X125932945Y-99413202D01*
X125934539Y-99413629D01*
X125950903Y-99385290D01*
X125981218Y-99375000D01*
X127479700Y-99375000D01*
X127514914Y-99389586D01*
X127529500Y-99424800D01*
X127529500Y-110546080D01*
X127528887Y-110553870D01*
X127518970Y-110616483D01*
X127515791Y-110627754D01*
X127511477Y-110638167D01*
X127509841Y-110641714D01*
X127485431Y-110689622D01*
X127476273Y-110702228D01*
X127432228Y-110746273D01*
X127419623Y-110755430D01*
X127419622Y-110755431D01*
X127371714Y-110779841D01*
X127368167Y-110781477D01*
X127357754Y-110785791D01*
X127346483Y-110788970D01*
X127283870Y-110798887D01*
X127276080Y-110799500D01*
X114613920Y-110799500D01*
X114606130Y-110798887D01*
X114543515Y-110788970D01*
X114532243Y-110785790D01*
X114521836Y-110781478D01*
X114518290Y-110779843D01*
X114470376Y-110755430D01*
X114457770Y-110746272D01*
X114413726Y-110702228D01*
X114404568Y-110689623D01*
X114380146Y-110641693D01*
X114378522Y-110638167D01*
X114374205Y-110627747D01*
X114371029Y-110616483D01*
X114366783Y-110589675D01*
X114361113Y-110553870D01*
X114360500Y-110546080D01*
X114360500Y-107700732D01*
X117152900Y-107700732D01*
X117152900Y-108659268D01*
X117193933Y-108812402D01*
X117273200Y-108949698D01*
X117385302Y-109061800D01*
X117522598Y-109141067D01*
X117675732Y-109182100D01*
X117834268Y-109182100D01*
X117987402Y-109141067D01*
X118124698Y-109061800D01*
X118236800Y-108949698D01*
X118316067Y-108812402D01*
X118357100Y-108659268D01*
X118357100Y-107700732D01*
X125792900Y-107700732D01*
X125792900Y-108659268D01*
X125833933Y-108812402D01*
X125913200Y-108949698D01*
X126025302Y-109061800D01*
X126162598Y-109141067D01*
X126315732Y-109182100D01*
X126474268Y-109182100D01*
X126627402Y-109141067D01*
X126764698Y-109061800D01*
X126876800Y-108949698D01*
X126956067Y-108812402D01*
X126997100Y-108659268D01*
X126997100Y-107700732D01*
X126956067Y-107547598D01*
X126876800Y-107410302D01*
X126764698Y-107298200D01*
X126764697Y-107298199D01*
X126627405Y-107218935D01*
X126627402Y-107218933D01*
X126627399Y-107218932D01*
X126474268Y-107177900D01*
X126315732Y-107177900D01*
X126162600Y-107218932D01*
X126162594Y-107218935D01*
X126025302Y-107298199D01*
X125913199Y-107410302D01*
X125833935Y-107547594D01*
X125833933Y-107547598D01*
X125792900Y-107700732D01*
X118357100Y-107700732D01*
X118316067Y-107547598D01*
X118236800Y-107410302D01*
X118124698Y-107298200D01*
X118124697Y-107298199D01*
X117987405Y-107218935D01*
X117987402Y-107218933D01*
X117987399Y-107218932D01*
X117834268Y-107177900D01*
X117675732Y-107177900D01*
X117522600Y-107218932D01*
X117522594Y-107218935D01*
X117385302Y-107298199D01*
X117273199Y-107410302D01*
X117193935Y-107547594D01*
X117193933Y-107547598D01*
X117152900Y-107700732D01*
X114360500Y-107700732D01*
X114360500Y-105643643D01*
X118887900Y-105643643D01*
X118887900Y-105736356D01*
X118911893Y-105825900D01*
X118911894Y-105825902D01*
X118911895Y-105825905D01*
X118958250Y-105906194D01*
X119023806Y-105971750D01*
X119104095Y-106018105D01*
X119193645Y-106042100D01*
X119286355Y-106042100D01*
X119375905Y-106018105D01*
X119456194Y-105971750D01*
X119521750Y-105906194D01*
X119568105Y-105825905D01*
X119592100Y-105736355D01*
X119592100Y-105643645D01*
X119568105Y-105554095D01*
X119521750Y-105473806D01*
X119456194Y-105408250D01*
X119456193Y-105408249D01*
X119375908Y-105361897D01*
X119375905Y-105361895D01*
X119375902Y-105361894D01*
X119375900Y-105361893D01*
X119286356Y-105337900D01*
X119286355Y-105337900D01*
X119193645Y-105337900D01*
X119193643Y-105337900D01*
X119104099Y-105361893D01*
X119104091Y-105361897D01*
X119023806Y-105408249D01*
X118958249Y-105473806D01*
X118911897Y-105554091D01*
X118911893Y-105554099D01*
X118887900Y-105643643D01*
X114360500Y-105643643D01*
X114360500Y-104453643D01*
X115922900Y-104453643D01*
X115922900Y-104546356D01*
X115946893Y-104635900D01*
X115946897Y-104635908D01*
X115985537Y-104702836D01*
X115993250Y-104716194D01*
X116058806Y-104781750D01*
X116139095Y-104828105D01*
X116228645Y-104852100D01*
X116321355Y-104852100D01*
X116410905Y-104828105D01*
X116491194Y-104781750D01*
X116556750Y-104716194D01*
X116603105Y-104635905D01*
X116627100Y-104546355D01*
X116627100Y-104453645D01*
X116603105Y-104364095D01*
X116556750Y-104283806D01*
X116491194Y-104218250D01*
X116491193Y-104218249D01*
X116410908Y-104171897D01*
X116410905Y-104171895D01*
X116410902Y-104171894D01*
X116410900Y-104171893D01*
X116321356Y-104147900D01*
X116321355Y-104147900D01*
X116228645Y-104147900D01*
X116228643Y-104147900D01*
X116139099Y-104171893D01*
X116139091Y-104171897D01*
X116058806Y-104218249D01*
X115993249Y-104283806D01*
X115946897Y-104364091D01*
X115946893Y-104364099D01*
X115922900Y-104453643D01*
X114360500Y-104453643D01*
X114360500Y-103370731D01*
X117152900Y-103370731D01*
X117152900Y-104629268D01*
X117172611Y-104702831D01*
X117193933Y-104782402D01*
X117273200Y-104919698D01*
X117385302Y-105031800D01*
X117522598Y-105111067D01*
X117675732Y-105152100D01*
X117834268Y-105152100D01*
X117987402Y-105111067D01*
X118124698Y-105031800D01*
X118236800Y-104919698D01*
X118316067Y-104782402D01*
X118357100Y-104629268D01*
X118357100Y-104430815D01*
X118659500Y-104430815D01*
X118659500Y-104569184D01*
X118695310Y-104702831D01*
X118695314Y-104702839D01*
X118741247Y-104782399D01*
X118764495Y-104822665D01*
X118862335Y-104920505D01*
X118982164Y-104989688D01*
X119115817Y-105025500D01*
X119254183Y-105025500D01*
X119387836Y-104989688D01*
X119507665Y-104920505D01*
X119605505Y-104822665D01*
X119674688Y-104702836D01*
X119710500Y-104569183D01*
X119710500Y-104453643D01*
X122972900Y-104453643D01*
X122972900Y-104546356D01*
X122996893Y-104635900D01*
X122996897Y-104635908D01*
X123035537Y-104702836D01*
X123043250Y-104716194D01*
X123108806Y-104781750D01*
X123189095Y-104828105D01*
X123278645Y-104852100D01*
X123371355Y-104852100D01*
X123460905Y-104828105D01*
X123541194Y-104781750D01*
X123606750Y-104716194D01*
X123653105Y-104635905D01*
X123677100Y-104546355D01*
X123677100Y-104453645D01*
X123670983Y-104430815D01*
X124439500Y-104430815D01*
X124439500Y-104569184D01*
X124475310Y-104702831D01*
X124475314Y-104702839D01*
X124521247Y-104782399D01*
X124544495Y-104822665D01*
X124642335Y-104920505D01*
X124762164Y-104989688D01*
X124895817Y-105025500D01*
X125034183Y-105025500D01*
X125167836Y-104989688D01*
X125287665Y-104920505D01*
X125385505Y-104822665D01*
X125454688Y-104702836D01*
X125490500Y-104569183D01*
X125490500Y-104430817D01*
X125454688Y-104297164D01*
X125385505Y-104177335D01*
X125287665Y-104079495D01*
X125287664Y-104079494D01*
X125167839Y-104010314D01*
X125167836Y-104010312D01*
X125167833Y-104010311D01*
X125167831Y-104010310D01*
X125034184Y-103974500D01*
X125034183Y-103974500D01*
X124895817Y-103974500D01*
X124895815Y-103974500D01*
X124762168Y-104010310D01*
X124762160Y-104010314D01*
X124642335Y-104079494D01*
X124544494Y-104177335D01*
X124475314Y-104297160D01*
X124475310Y-104297168D01*
X124439500Y-104430815D01*
X123670983Y-104430815D01*
X123653105Y-104364095D01*
X123606750Y-104283806D01*
X123541194Y-104218250D01*
X123541193Y-104218249D01*
X123460908Y-104171897D01*
X123460905Y-104171895D01*
X123460902Y-104171894D01*
X123460900Y-104171893D01*
X123371356Y-104147900D01*
X123371355Y-104147900D01*
X123278645Y-104147900D01*
X123278643Y-104147900D01*
X123189099Y-104171893D01*
X123189091Y-104171897D01*
X123108806Y-104218249D01*
X123043249Y-104283806D01*
X122996897Y-104364091D01*
X122996893Y-104364099D01*
X122972900Y-104453643D01*
X119710500Y-104453643D01*
X119710500Y-104430817D01*
X119674688Y-104297164D01*
X119605505Y-104177335D01*
X119507665Y-104079495D01*
X119507664Y-104079494D01*
X119387839Y-104010314D01*
X119387836Y-104010312D01*
X119387833Y-104010311D01*
X119387831Y-104010310D01*
X119254184Y-103974500D01*
X119254183Y-103974500D01*
X119115817Y-103974500D01*
X119115815Y-103974500D01*
X118982168Y-104010310D01*
X118982160Y-104010314D01*
X118862335Y-104079494D01*
X118764494Y-104177335D01*
X118695314Y-104297160D01*
X118695310Y-104297168D01*
X118659500Y-104430815D01*
X118357100Y-104430815D01*
X118357100Y-103378643D01*
X118522900Y-103378643D01*
X118522900Y-103471356D01*
X118546893Y-103560900D01*
X118546894Y-103560902D01*
X118546895Y-103560905D01*
X118593250Y-103641194D01*
X118658806Y-103706750D01*
X118739095Y-103753105D01*
X118828645Y-103777100D01*
X118921355Y-103777100D01*
X119010905Y-103753105D01*
X119091194Y-103706750D01*
X119156750Y-103641194D01*
X119203105Y-103560905D01*
X119227100Y-103471355D01*
X119227100Y-103403643D01*
X124940400Y-103403643D01*
X124940400Y-103496356D01*
X124964393Y-103585900D01*
X124964397Y-103585908D01*
X124996315Y-103641193D01*
X125010750Y-103666194D01*
X125076306Y-103731750D01*
X125156595Y-103778105D01*
X125246145Y-103802100D01*
X125338855Y-103802100D01*
X125428405Y-103778105D01*
X125508694Y-103731750D01*
X125574250Y-103666194D01*
X125620605Y-103585905D01*
X125644600Y-103496355D01*
X125644600Y-103403645D01*
X125635781Y-103370731D01*
X125792900Y-103370731D01*
X125792900Y-104629268D01*
X125812611Y-104702831D01*
X125833933Y-104782402D01*
X125913200Y-104919698D01*
X126025302Y-105031800D01*
X126162598Y-105111067D01*
X126315732Y-105152100D01*
X126474268Y-105152100D01*
X126627402Y-105111067D01*
X126764698Y-105031800D01*
X126876800Y-104919698D01*
X126956067Y-104782402D01*
X126997100Y-104629268D01*
X126997100Y-103370732D01*
X126956067Y-103217598D01*
X126876800Y-103080302D01*
X126764698Y-102968200D01*
X126764697Y-102968199D01*
X126627405Y-102888935D01*
X126627402Y-102888933D01*
X126627399Y-102888932D01*
X126474268Y-102847900D01*
X126315732Y-102847900D01*
X126162600Y-102888932D01*
X126162594Y-102888935D01*
X126025302Y-102968199D01*
X125913199Y-103080302D01*
X125833935Y-103217594D01*
X125833932Y-103217600D01*
X125792900Y-103370731D01*
X125635781Y-103370731D01*
X125620605Y-103314095D01*
X125574250Y-103233806D01*
X125508694Y-103168250D01*
X125508693Y-103168249D01*
X125428408Y-103121897D01*
X125428405Y-103121895D01*
X125428402Y-103121894D01*
X125428400Y-103121893D01*
X125338856Y-103097900D01*
X125338855Y-103097900D01*
X125246145Y-103097900D01*
X125246143Y-103097900D01*
X125156599Y-103121893D01*
X125156591Y-103121897D01*
X125076306Y-103168249D01*
X125010749Y-103233806D01*
X124964397Y-103314091D01*
X124964393Y-103314099D01*
X124940400Y-103403643D01*
X119227100Y-103403643D01*
X119227100Y-103378645D01*
X119203105Y-103289095D01*
X119156750Y-103208806D01*
X119091194Y-103143250D01*
X119091193Y-103143249D01*
X119042057Y-103114881D01*
X119010905Y-103096895D01*
X119010902Y-103096894D01*
X119010900Y-103096893D01*
X118921356Y-103072900D01*
X118921355Y-103072900D01*
X118828645Y-103072900D01*
X118828643Y-103072900D01*
X118739099Y-103096893D01*
X118739091Y-103096897D01*
X118658806Y-103143249D01*
X118593249Y-103208806D01*
X118546897Y-103289091D01*
X118546893Y-103289099D01*
X118522900Y-103378643D01*
X118357100Y-103378643D01*
X118357100Y-103370732D01*
X118316067Y-103217598D01*
X118236800Y-103080302D01*
X118124698Y-102968200D01*
X118124697Y-102968199D01*
X117987405Y-102888935D01*
X117987402Y-102888933D01*
X117987399Y-102888932D01*
X117834268Y-102847900D01*
X117675732Y-102847900D01*
X117522600Y-102888932D01*
X117522594Y-102888935D01*
X117385302Y-102968199D01*
X117273199Y-103080302D01*
X117193935Y-103217594D01*
X117193932Y-103217600D01*
X117152900Y-103370731D01*
X114360500Y-103370731D01*
X114360500Y-101233643D01*
X117348100Y-101233643D01*
X117348100Y-101326356D01*
X117372093Y-101415900D01*
X117372097Y-101415908D01*
X117412509Y-101485905D01*
X117418450Y-101496194D01*
X117484006Y-101561750D01*
X117564295Y-101608105D01*
X117653845Y-101632100D01*
X117746555Y-101632100D01*
X117836105Y-101608105D01*
X117916394Y-101561750D01*
X117981950Y-101496194D01*
X118028305Y-101415905D01*
X118052300Y-101326355D01*
X118052300Y-101303643D01*
X122217900Y-101303643D01*
X122217900Y-101396356D01*
X122241893Y-101485900D01*
X122241894Y-101485902D01*
X122241895Y-101485905D01*
X122288250Y-101566194D01*
X122353806Y-101631750D01*
X122434095Y-101678105D01*
X122523645Y-101702100D01*
X122616355Y-101702100D01*
X122705905Y-101678105D01*
X122786194Y-101631750D01*
X122851750Y-101566194D01*
X122898105Y-101485905D01*
X122922100Y-101396355D01*
X122922100Y-101363643D01*
X124187900Y-101363643D01*
X124187900Y-101456356D01*
X124211893Y-101545900D01*
X124211897Y-101545908D01*
X124247804Y-101608102D01*
X124258250Y-101626194D01*
X124323806Y-101691750D01*
X124404095Y-101738105D01*
X124493645Y-101762100D01*
X124586355Y-101762100D01*
X124675905Y-101738105D01*
X124756194Y-101691750D01*
X124821750Y-101626194D01*
X124868105Y-101545905D01*
X124892100Y-101456355D01*
X124892100Y-101363645D01*
X124892099Y-101363643D01*
X125207900Y-101363643D01*
X125207900Y-101456356D01*
X125231893Y-101545900D01*
X125231897Y-101545908D01*
X125267804Y-101608102D01*
X125278250Y-101626194D01*
X125343806Y-101691750D01*
X125424095Y-101738105D01*
X125513645Y-101762100D01*
X125606355Y-101762100D01*
X125695905Y-101738105D01*
X125776194Y-101691750D01*
X125841750Y-101626194D01*
X125888105Y-101545905D01*
X125912100Y-101456355D01*
X125912100Y-101363645D01*
X125888105Y-101274095D01*
X125841750Y-101193806D01*
X125776194Y-101128250D01*
X125776193Y-101128249D01*
X125695908Y-101081897D01*
X125695905Y-101081895D01*
X125695902Y-101081894D01*
X125695900Y-101081893D01*
X125606356Y-101057900D01*
X125606355Y-101057900D01*
X125513645Y-101057900D01*
X125513643Y-101057900D01*
X125424099Y-101081893D01*
X125424091Y-101081897D01*
X125343806Y-101128249D01*
X125278249Y-101193806D01*
X125231897Y-101274091D01*
X125231893Y-101274099D01*
X125207900Y-101363643D01*
X124892099Y-101363643D01*
X124868105Y-101274095D01*
X124821750Y-101193806D01*
X124756194Y-101128250D01*
X124756193Y-101128249D01*
X124675908Y-101081897D01*
X124675905Y-101081895D01*
X124675902Y-101081894D01*
X124675900Y-101081893D01*
X124586356Y-101057900D01*
X124586355Y-101057900D01*
X124493645Y-101057900D01*
X124493643Y-101057900D01*
X124404099Y-101081893D01*
X124404091Y-101081897D01*
X124323806Y-101128249D01*
X124258249Y-101193806D01*
X124211897Y-101274091D01*
X124211893Y-101274099D01*
X124187900Y-101363643D01*
X122922100Y-101363643D01*
X122922100Y-101303645D01*
X122898105Y-101214095D01*
X122851750Y-101133806D01*
X122786194Y-101068250D01*
X122786193Y-101068249D01*
X122705908Y-101021897D01*
X122705905Y-101021895D01*
X122705902Y-101021894D01*
X122705900Y-101021893D01*
X122616356Y-100997900D01*
X122616355Y-100997900D01*
X122523645Y-100997900D01*
X122523643Y-100997900D01*
X122434099Y-101021893D01*
X122434091Y-101021897D01*
X122353806Y-101068249D01*
X122288249Y-101133806D01*
X122241897Y-101214091D01*
X122241893Y-101214099D01*
X122217900Y-101303643D01*
X118052300Y-101303643D01*
X118052300Y-101233645D01*
X118028305Y-101144095D01*
X117981950Y-101063806D01*
X117916394Y-100998250D01*
X117916393Y-100998249D01*
X117836108Y-100951897D01*
X117836105Y-100951895D01*
X117836102Y-100951894D01*
X117836100Y-100951893D01*
X117746556Y-100927900D01*
X117746555Y-100927900D01*
X117653845Y-100927900D01*
X117653843Y-100927900D01*
X117564299Y-100951893D01*
X117564291Y-100951897D01*
X117484006Y-100998249D01*
X117418449Y-101063806D01*
X117372097Y-101144091D01*
X117372093Y-101144099D01*
X117348100Y-101233643D01*
X114360500Y-101233643D01*
X114360500Y-100783643D01*
X114747900Y-100783643D01*
X114747900Y-100876356D01*
X114771893Y-100965900D01*
X114771894Y-100965902D01*
X114771895Y-100965905D01*
X114818250Y-101046194D01*
X114883806Y-101111750D01*
X114964095Y-101158105D01*
X115053645Y-101182100D01*
X115146355Y-101182100D01*
X115235905Y-101158105D01*
X115316194Y-101111750D01*
X115381750Y-101046194D01*
X115428105Y-100965905D01*
X115452100Y-100876355D01*
X115452100Y-100783645D01*
X115452099Y-100783643D01*
X126307900Y-100783643D01*
X126307900Y-100876356D01*
X126331893Y-100965900D01*
X126331894Y-100965902D01*
X126331895Y-100965905D01*
X126378250Y-101046194D01*
X126443806Y-101111750D01*
X126524095Y-101158105D01*
X126613645Y-101182100D01*
X126706355Y-101182100D01*
X126795905Y-101158105D01*
X126876194Y-101111750D01*
X126941750Y-101046194D01*
X126988105Y-100965905D01*
X127012100Y-100876355D01*
X127012100Y-100783645D01*
X126988105Y-100694095D01*
X126941750Y-100613806D01*
X126876194Y-100548250D01*
X126876193Y-100548249D01*
X126795908Y-100501897D01*
X126795905Y-100501895D01*
X126795902Y-100501894D01*
X126795900Y-100501893D01*
X126706356Y-100477900D01*
X126706355Y-100477900D01*
X126613645Y-100477900D01*
X126613643Y-100477900D01*
X126524099Y-100501893D01*
X126524091Y-100501897D01*
X126443806Y-100548249D01*
X126378249Y-100613806D01*
X126331897Y-100694091D01*
X126331893Y-100694099D01*
X126307900Y-100783643D01*
X115452099Y-100783643D01*
X115428105Y-100694095D01*
X115381750Y-100613806D01*
X115316194Y-100548250D01*
X115316193Y-100548249D01*
X115235908Y-100501897D01*
X115235905Y-100501895D01*
X115235902Y-100501894D01*
X115235900Y-100501893D01*
X115146356Y-100477900D01*
X115146355Y-100477900D01*
X115053645Y-100477900D01*
X115053643Y-100477900D01*
X114964099Y-100501893D01*
X114964091Y-100501897D01*
X114883806Y-100548249D01*
X114818249Y-100613806D01*
X114771897Y-100694091D01*
X114771893Y-100694099D01*
X114747900Y-100783643D01*
X114360500Y-100783643D01*
X114360500Y-100283643D01*
X119347900Y-100283643D01*
X119347900Y-100376356D01*
X119371893Y-100465900D01*
X119371894Y-100465902D01*
X119371895Y-100465905D01*
X119418250Y-100546194D01*
X119483806Y-100611750D01*
X119564095Y-100658105D01*
X119653645Y-100682100D01*
X119746355Y-100682100D01*
X119835905Y-100658105D01*
X119916194Y-100611750D01*
X119981750Y-100546194D01*
X120028105Y-100465905D01*
X120052100Y-100376355D01*
X120052100Y-100343643D01*
X121247900Y-100343643D01*
X121247900Y-100436356D01*
X121271893Y-100525900D01*
X121271894Y-100525902D01*
X121271895Y-100525905D01*
X121318250Y-100606194D01*
X121383806Y-100671750D01*
X121464095Y-100718105D01*
X121553645Y-100742100D01*
X121646355Y-100742100D01*
X121735905Y-100718105D01*
X121816194Y-100671750D01*
X121881750Y-100606194D01*
X121928105Y-100525905D01*
X121952100Y-100436355D01*
X121952100Y-100343645D01*
X121952099Y-100343643D01*
X122217900Y-100343643D01*
X122217900Y-100436356D01*
X122241893Y-100525900D01*
X122241894Y-100525902D01*
X122241895Y-100525905D01*
X122288250Y-100606194D01*
X122353806Y-100671750D01*
X122434095Y-100718105D01*
X122523645Y-100742100D01*
X122616355Y-100742100D01*
X122705905Y-100718105D01*
X122786194Y-100671750D01*
X122851750Y-100606194D01*
X122898105Y-100525905D01*
X122922100Y-100436355D01*
X122922100Y-100343645D01*
X122922099Y-100343643D01*
X124197900Y-100343643D01*
X124197900Y-100436356D01*
X124221893Y-100525900D01*
X124221894Y-100525902D01*
X124221895Y-100525905D01*
X124268250Y-100606194D01*
X124333806Y-100671750D01*
X124414095Y-100718105D01*
X124503645Y-100742100D01*
X124596355Y-100742100D01*
X124685905Y-100718105D01*
X124766194Y-100671750D01*
X124831750Y-100606194D01*
X124878105Y-100525905D01*
X124902100Y-100436355D01*
X124902100Y-100343645D01*
X124878105Y-100254095D01*
X124831750Y-100173806D01*
X124766194Y-100108250D01*
X124766193Y-100108249D01*
X124685908Y-100061897D01*
X124685905Y-100061895D01*
X124685902Y-100061894D01*
X124685900Y-100061893D01*
X124596356Y-100037900D01*
X124596355Y-100037900D01*
X124503645Y-100037900D01*
X124503643Y-100037900D01*
X124414099Y-100061893D01*
X124414091Y-100061897D01*
X124333806Y-100108249D01*
X124268249Y-100173806D01*
X124221897Y-100254091D01*
X124221893Y-100254099D01*
X124197900Y-100343643D01*
X122922099Y-100343643D01*
X122898105Y-100254095D01*
X122851750Y-100173806D01*
X122786194Y-100108250D01*
X122786193Y-100108249D01*
X122705908Y-100061897D01*
X122705905Y-100061895D01*
X122705902Y-100061894D01*
X122705900Y-100061893D01*
X122616356Y-100037900D01*
X122616355Y-100037900D01*
X122523645Y-100037900D01*
X122523643Y-100037900D01*
X122434099Y-100061893D01*
X122434091Y-100061897D01*
X122353806Y-100108249D01*
X122288249Y-100173806D01*
X122241897Y-100254091D01*
X122241893Y-100254099D01*
X122217900Y-100343643D01*
X121952099Y-100343643D01*
X121928105Y-100254095D01*
X121881750Y-100173806D01*
X121816194Y-100108250D01*
X121816193Y-100108249D01*
X121735908Y-100061897D01*
X121735905Y-100061895D01*
X121735902Y-100061894D01*
X121735900Y-100061893D01*
X121646356Y-100037900D01*
X121646355Y-100037900D01*
X121553645Y-100037900D01*
X121553643Y-100037900D01*
X121464099Y-100061893D01*
X121464091Y-100061897D01*
X121383806Y-100108249D01*
X121318249Y-100173806D01*
X121271897Y-100254091D01*
X121271893Y-100254099D01*
X121247900Y-100343643D01*
X120052100Y-100343643D01*
X120052100Y-100283645D01*
X120028105Y-100194095D01*
X119981750Y-100113806D01*
X119916194Y-100048250D01*
X119916193Y-100048249D01*
X119835908Y-100001897D01*
X119835905Y-100001895D01*
X119835902Y-100001894D01*
X119835900Y-100001893D01*
X119746356Y-99977900D01*
X119746355Y-99977900D01*
X119653645Y-99977900D01*
X119653643Y-99977900D01*
X119564099Y-100001893D01*
X119564091Y-100001897D01*
X119483806Y-100048249D01*
X119418249Y-100113806D01*
X119371897Y-100194091D01*
X119371893Y-100194099D01*
X119347900Y-100283643D01*
X114360500Y-100283643D01*
X114360500Y-99424800D01*
X114375086Y-99389586D01*
X114410300Y-99375000D01*
X121688100Y-99375000D01*
X121723314Y-99389586D01*
G37*
%TD.AperFunction*%
%TD*%
M02*
