M48
; DRILL file {KiCad 8.0.1} date 2024-03-27T16:27:59-0400
; FORMAT={-:-/ absolute / inch / decimal}
; #@! TF.CreationDate,2024-03-27T16:27:59-04:00
; #@! TF.GenerationSoftware,Kicad,Pcbnew,8.0.1
; #@! TF.FileFunction,Plated,1,4,PTH
FMAT,2
INCH
; #@! TA.AperFunction,Plated,PTH,ViaDrill
T1C0.0118
; #@! TA.AperFunction,Plated,PTH,ComponentDrill
T2C0.0236
; #@! TA.AperFunction,Plated,PTH,ComponentDrill
T3C0.0315
%
G90
G05
T1
X4.5343Y-3.2343
X4.5362Y-3.6547
X4.5461Y-3.7531
X4.55Y-3.9697
X4.5504Y-3.8701
X4.552Y-3.2862
X4.5528Y-3.3543
X4.5583Y-3.8142
X4.5709Y-3.4772
X4.5874Y-3.4165
X4.5878Y-3.4469
X4.5882Y-3.2138
X4.5965Y-3.9161
X4.6079Y-3.8031
X4.6134Y-3.3441
X4.6157Y-3.2331
X4.6295Y-3.4744
X4.6299Y-3.5567
X4.639Y-4.0287
X4.6484Y-3.4177
X4.6559Y-3.6138
X4.6587Y-3.3445
X4.6709Y-4.0291
X4.6803Y-3.422
X4.6846Y-3.615
X4.6945Y-4.161
X4.7126Y-3.95
X4.7169Y-3.4744
X4.7185Y-3.5555
X4.7193Y-3.7823
X4.7311Y-3.4181
X4.7465Y-3.3484
X4.7713Y-3.7256
X4.7756Y-3.4764
X4.7835Y-3.2969
X4.7925Y-3.9303
X4.8028Y-3.8874
X4.8134Y-3.2024
X4.815Y-4.122
X4.8307Y-3.2965
X4.8331Y-3.3303
X4.8398Y-3.6193
X4.8421Y-3.4094
X4.8449Y-3.9224
X4.8457Y-3.8862
X4.8461Y-3.8146
X4.8594Y-4.028
X4.8752Y-3.9217
X4.8917Y-4.028
X4.8921Y-3.8941
X4.9161Y-4.0165
X4.9469Y-4.0165
X4.9681Y-3.9126
X4.9709Y-3.9457
T3
X4.9069Y-3.2175
X4.9069Y-3.2963
X4.9069Y-3.375
X4.9069Y-3.4537
X4.9069Y-3.5325
X4.9069Y-3.6112
X4.9069Y-3.69
X4.9069Y-3.7687
X4.9069Y-3.8474
X4.9856Y-3.2175
X4.9856Y-3.2963
X4.9856Y-3.375
X4.9856Y-3.4537
X4.9856Y-3.5325
X4.9856Y-3.6112
X4.9856Y-3.69
X4.9856Y-3.7687
X4.9856Y-3.8474
T2
G00X4.5953Y-4.0728
M15
G01X4.5953Y-4.1161
M16
G05
G00X4.5953Y-4.2433
M15
G01X4.5953Y-4.2748
M16
G05
G00X4.9354Y-4.0728
M15
G01X4.9354Y-4.1161
M16
G05
G00X4.9354Y-4.2433
M15
G01X4.9354Y-4.2748
M16
G05
M30
